<?xml version="1.0" encoding="utf-8"?>
<!-- Generator: Adobe Illustrator 22.0.1, SVG Export Plug-In . SVG Version: 6.00 Build 0)  -->
<svg version="1.1" id="Capa_1" xmlns="http://www.w3.org/2000/svg" xmlns:xlink="http://www.w3.org/1999/xlink" x="0px" y="0px"
	 viewBox="0 0 260 98" style="enable-background:new 0 0 260 98;" xml:space="preserve">
<style type="text/css">
	.st0{fill:#191E25;}
	.st1{display:none;fill:#191E25;}
	.st2{fill:#FFFFFF;}
	.st3{fill:none;stroke:#E66728;stroke-width:2;stroke-linecap:round;stroke-linejoin:round;}
	.st4{fill:#E66728;}
	.st5{fill:none;stroke:#E66728;stroke-width:1.5;stroke-linecap:round;stroke-linejoin:round;}
	.st6{clip-path:url(#SVGID_2_);fill:#E66728;}
	.st7{clip-path:url(#SVGID_2_);fill:#FFFFFF;}
	.st8{fill:none;stroke:#D25A2B;stroke-width:2.082;stroke-linecap:round;stroke-linejoin:round;}
	.st9{fill:none;stroke:#D25A2B;stroke-width:1.948;stroke-linecap:round;stroke-linejoin:round;}
	.st10{clip-path:url(#SVGID_4_);fill:#E66728;}
	.st11{clip-path:url(#SVGID_4_);fill:#FFFFFF;}
	.st12{clip-path:url(#SVGID_6_);fill:#E66728;}
	.st13{clip-path:url(#SVGID_6_);fill:#FFFFFF;}
	.st14{clip-path:url(#SVGID_8_);fill:#E66728;}
	.st15{clip-path:url(#SVGID_8_);fill:#FFFFFF;}
	.st16{fill:none;stroke:#D66F2C;stroke-width:1.594;stroke-linecap:round;stroke-linejoin:round;}
	.st17{clip-path:url(#SVGID_10_);fill:#FFFFFF;}
	.st18{clip-path:url(#SVGID_12_);fill:#FFFFFF;}
	.st19{fill:none;stroke:#D25A2B;stroke-width:1.906;stroke-linecap:round;stroke-linejoin:round;}
	.st20{fill:none;stroke:#DF6829;stroke-width:1.763;stroke-linecap:round;stroke-linejoin:round;}
	.st21{fill:none;stroke:#D25A2B;stroke-width:1.763;stroke-linecap:round;stroke-linejoin:round;}
	.st22{clip-path:url(#SVGID_14_);fill:#E66728;}
	.st23{clip-path:url(#SVGID_14_);fill:#FFFFFF;}
	.st24{clip-path:url(#SVGID_16_);fill:#E66728;}
	.st25{clip-path:url(#SVGID_16_);fill:#FFFFFF;}
	.st26{clip-path:url(#SVGID_18_);fill:#E66728;}
	.st27{clip-path:url(#SVGID_18_);fill:#FFFFFF;}
	.st28{clip-path:url(#SVGID_20_);fill:#E66728;}
	.st29{clip-path:url(#SVGID_20_);fill:#FFFFFF;}
	.st30{clip-path:url(#SVGID_22_);fill:#FFFFFF;}
	.st31{clip-path:url(#SVGID_24_);fill:#FFFFFF;}
	.st32{clip-path:url(#SVGID_26_);fill:#FFFFFF;}
	.st33{clip-path:url(#SVGID_28_);fill:#FFFFFF;}
	.st34{clip-path:url(#SVGID_28_);fill:none;stroke:#E66728;stroke-width:2;stroke-linecap:round;stroke-linejoin:round;}
	.st35{clip-path:url(#SVGID_30_);fill:#FFFFFF;}
	.st36{clip-path:url(#SVGID_30_);fill:none;stroke:#E66728;stroke-width:2;stroke-linecap:round;stroke-linejoin:round;}
</style>
<g>
	<g>
		<path class="st2" d="M103.8,71.7h0.6v5.8h2.1v0.5h-2.6V71.7z"/>
		<path class="st2" d="M109.8,71.7h0.6l2.1,6.4h-0.6l-0.6-1.8h-2.5l-0.6,1.8h-0.6L109.8,71.7z M109,75.8h2.2l-1.1-3.5h0L109,75.8z"
			/>
		<path class="st2" d="M121,78c-0.2,0.1-0.6,0.2-1.1,0.2c-1.9,0-2.7-1.6-2.7-3.3c0-1.6,0.8-3.2,2.7-3.2c0.3,0,0.8,0.1,1.1,0.2l0,0.6
			c-0.2-0.1-0.6-0.3-1.1-0.3c-0.4,0-2.1,0.2-2.1,2.7c0,2.2,1.4,2.7,2.1,2.7c0.5,0,0.7-0.1,1.1-0.3L121,78z"/>
		<path class="st2" d="M123.2,71.7h0.6v6.4h-0.6V71.7z"/>
		<path class="st2" d="M126,77.2c0.4,0.4,1,0.4,1.1,0.4c1,0,1.2-0.9,1.2-1.2c0-0.7-0.4-1-1.2-1.6c-0.9-0.6-1.2-1-1.2-1.7
			c0-1.4,1.3-1.5,1.7-1.5c0.5,0,0.9,0.1,1,0.2l0,0.6c-0.2-0.1-0.5-0.3-1-0.3c-0.4,0-1,0.2-1,0.9c0,0.6,0.3,0.9,0.9,1.3
			c1.1,0.8,1.5,1.1,1.5,2c0,1.1-0.7,1.8-1.7,1.8c-0.4,0-0.9-0.1-1.2-0.3L126,77.2z"/>
		<path class="st2" d="M130.4,71.7h3.5v0.5h-1.5v5.8h-0.6v-5.8h-1.5V71.7z"/>
		<path class="st2" d="M135.8,71.7h2.7v0.5h-2.1v2.3h2v0.5h-2v2.5h2.2v0.5h-2.8V71.7z"/>
		<path class="st2" d="M140.8,71.7h1.5c1.1,0,1.7,0.7,1.7,1.6c0,1.1-0.7,1.4-1.3,1.5v0c0.2,0,0.5,0.1,0.6,0.5l1,2.6h-0.6l-0.8-2.2
			c-0.2-0.6-0.4-0.8-0.8-0.8h-0.7v3h-0.6V71.7z M141.3,74.6h0.8c1.1,0,1.2-1,1.2-1.2c0-1.1-0.8-1.1-1.2-1.1h-0.7V74.6z"/>
		<path class="st2" d="M146.2,71.7h0.7l2.7,5.7h0v-5.7h0.5v6.4h-0.7l-2.7-5.6h0v5.6h-0.5V71.7z"/>
		<path class="st2" d="M154.1,71.7h0.6l2.1,6.4h-0.6l-0.6-1.8h-2.5l-0.6,1.8H152L154.1,71.7z M153.3,75.8h2.2l-1.1-3.5h0L153.3,75.8
			z"/>
	</g>
	<g>
		<path class="st2" d="M156.2,47.1h0.1c0-0.1,0-0.2,0.1-0.3h-0.2V47V47.1z M166.3,45c-0.4,0.8-0.6,1.2-0.6,1.1
			c-0.1,0.2-0.2,0.3-0.2,0.3c0,0-0.1,0.1-0.2,0.1v0.2c-0.2,0-0.4,0-0.5,0c0,0.1,0,0.2-0.1,0.3c0,0.1-0.1,0.1-0.1,0.2
			c-0.4,0.6-0.9,1.3-1.7,2.1c-0.7,0.8-1.6,1.7-2.4,2.5c-0.9,0.8-1.8,1.5-2.6,2.2c-0.9,0.6-1.6,1-2.2,1.2c-0.3,0.1-0.6,0.1-0.9,0.1
			c-0.3,0-0.5-0.1-0.6-0.3c0-0.9,0.4-2.1,1.1-3.6c0.7-1.6,1.6-3.2,2.6-4.8c1.3-2.2,2.8-4.1,4.5-5.9c1.7-1.7,3.1-2.6,4.3-2.4
			c0.5,0,0.9,0.3,1.4,0.8c0,0.1,0,0.2,0.1,0.2l0.1,0.1c0,0.4-0.3,0.7-0.7,1.1c-0.5,0.4-0.7,0.8-0.7,1.4c0,0.3,0.2,0.5,0.7,0.5
			C167.2,43.3,166.7,44.2,166.3,45 M156.4,56.5c0.9-0.4,1.7-1,2.6-1.7c0.9-0.7,1.7-1.6,2.6-2.5c0.8-0.9,1.6-1.7,2.2-2.5
			c0.3-0.4,0.6-0.8,0.9-1.3c0.3-0.5,0.5-1,0.7-1.5c0,0.2-0.1,0.4-0.2,0.6c-0.1,0.2-0.1,0.4-0.1,0.5l-0.3,1c-0.1,0.4-0.3,0.9-0.5,1.6
			c-0.3,0.6-0.4,1.2-0.6,1.8h-0.1c0,0.1,0,0.3-0.1,0.6v0.1v0.1v0.2c-0.1,0-0.2,0.1-0.2,0.1l0.1,0.2v0.4v0.4c0,0.3,0.1,0.5,0.2,0.8
			c0.1,0.3,0.3,0.5,0.5,0.6c0.5,0.1,1,0.1,1.4,0c0.1,0,0.4-0.1,0.9-0.3c0.5-0.2,0.9-0.4,1.3-0.6c0.1,0,0.3-0.1,0.6-0.3
			c0.2-0.2,0.4-0.3,0.4-0.5c0.3-0.1,0.5-0.3,0.6-0.4c0,0,0.1-0.1,0.3-0.2c0.1-0.1,0.3-0.2,0.5-0.3c-0.1,0-0.3,0-0.3,0.1
			c-0.1,0.1-0.2,0.1-0.2,0.1c-0.1-0.1-0.1-0.1,0-0.1c0.4-0.2,0.6-0.3,0.8-0.1c0-0.3,0.2-0.5,0.5-0.7c-0.1,0-0.3,0.2-0.6,0.5
			c0-0.1-0.1-0.2-0.1-0.3c0.1,0,0.3-0.1,0.4-0.1c0.1,0,0.2-0.1,0.4-0.2c0-0.1,0-0.2,0-0.3h0.2h0.2c0-0.1,0.1-0.2,0.2-0.3
			c0-0.1,0.1-0.2,0.1-0.2v-0.1v-0.1h0.2h0.2c-0.2-0.1-0.4-0.1-0.6,0c-0.2,0.1-0.4,0.3-0.6,0.4c-0.7,0.5-1.5,1.1-2.4,1.6
			c-0.9,0.5-1.6,0.8-1.9,0.9c-0.5,0.1-0.9,0.1-1,0c-0.1-0.1-0.2-0.2-0.2-0.2v-0.1l0.1-0.1c-0.1-0.3-0.1-0.7,0-1.2
			c0.1-0.5,0.3-1.1,0.4-1.8c0.3-1.1,0.7-2.3,1.2-3.4c0.5-1.1,0.8-1.7,0.9-1.8c0-0.3,0.1-0.6,0.2-0.9c0.2-0.3,0.2-0.7,0.2-1.1
			c0.1,0,0.2,0,0.2,0c0,0,0.1,0,0.2,0v-0.2v-0.2h0.1h0.1c0-0.1,0.1-0.4,0.2-0.7c0.1-0.3,0.2-0.7,0.4-1.1c0.3-0.6,0.5-1.2,0.7-1.9
			c0.2-0.7,0-1-0.4-1.1c-0.4,0-0.7,0-0.9-0.1c-0.1,0-0.1-0.1-0.1-0.3c0-0.4-0.3-0.6-0.7-0.7c-0.5,0-1.2,0-1.9,0.2
			c-0.7,0.2-1.1,0.3-1.1,0.5c-0.7-0.2-2,0.6-3.8,2.3c-1.9,1.7-3.4,3.6-4.5,5.7h-0.2c-0.2,0.2-0.3,0.3-0.2,0.3
			c0.3,0.2,0.5,0.3,0.5,0.3c-0.2,0.1-0.3,0.2-0.5,0.3c-0.1,0.1-0.3,0.1-0.4,0.1c0,0,0,0.1,0.1,0.1l-0.1,0.4h0.1
			c0,0.2-0.1,0.3-0.4,0.3c-0.7,1-1.4,2.4-1.9,4.4c-0.5,2-0.7,2.9-0.5,2.9c0,0.3,0.1,0.5,0.4,0.7c0.2,0.1,0.4,0.3,0.4,0.3
			c0.1,0,0.2,0,0.2-0.1c0-0.1,0.1-0.1,0.2-0.1v0.3v0.2C154.8,57,155.5,56.9,156.4,56.5 M152.3,36.2c0.1-0.2,0.2-0.4,0.2-0.4
			c-0.1,0.2-0.3,0.3-0.3,0.4c-0.1,0.1-0.1,0.2-0.1,0.4C152,36.5,152.1,36.4,152.3,36.2 M146.1,49.2L146.1,49.2L146.1,49.2z
			 M152.1,36.6c-0.1,0-0.2,0.1-0.3,0.2L152.1,36.6z M151,38.7l-0.1,0.1C151,38.8,151,38.7,151,38.7 M150.7,39.3
			c-0.2,0-0.3,0.2-0.3,0.5C150.6,39.7,150.7,39.5,150.7,39.3 M150.4,40.4c0-0.1,0-0.2,0-0.3c0,0-0.1,0-0.1-0.1
			c0,0.1-0.1,0.3-0.1,0.3l0.1,0.1L150.4,40.4z M149.9,41c-0.1,0.1-0.1,0.2-0.1,0.2L149.9,41z M148.7,43.8h0.1c0.2-0.3,0.2-0.7,0.2-1
			c0,0.2-0.1,0.4-0.2,0.5C148.8,43.5,148.7,43.6,148.7,43.8 M147.7,45.8h0.2v-0.2h-0.2V45.8z M147.4,47c0-0.1,0-0.2,0.1-0.2
			c0,0,0.1-0.1,0.1-0.2h-0.3c0,0.2,0,0.4-0.1,0.5H147.4z M146.2,49.8h0.1c0-0.2,0.1-0.4,0.2-0.6c0.1-0.2,0.1-0.3,0.2-0.5
			C146.5,49,146.3,49.3,146.2,49.8 M135,46.9h0.2v-0.1v-0.1c-0.1,0-0.2,0-0.3-0.1C135,46.6,135,46.8,135,46.9 M150.5,35.3l-0.1-0.1
			c0.1-0.1,0.2-0.1,0.3-0.1c0,0,0,0.1,0.1,0.1L150.5,35.3z M145.4,47.4c-0.2,0.5-0.4,1-0.5,1.4c-0.5,0.9-1.2,2-2.3,3.3
			c-1.1,1.3-2.1,2.3-3.2,2.8c-1,0.5-1.8,0.7-2.7,0.7c-0.8,0-1.5-0.5-2-1.4c-0.4-0.9-0.4-2-0.1-3.4c0.4-1.4,0.9-2.7,1.6-4
			c1.2-2.2,2.8-4.3,4.7-6.1c1.9-1.8,3.5-2.7,4.9-2.6c0.6,0.2,1,0.5,1.4,1c0,0,0.1,0,0.1,0c0,0,0.1,0,0.1,0c0,0,0,0.1,0.1,0.2
			c0.1,0.3-0.1,0.6-0.6,1c-0.5,0.4-0.8,0.8-0.8,1.3c0,0.4,0.2,0.6,0.7,0.7h0.1h0.2c-0.1,0.2-0.2,0.4-0.2,0.5c0,0.2-0.1,0.3-0.1,0.5
			c-0.1,0.2-0.2,0.5-0.3,0.8c-0.1,0.3-0.2,0.7-0.4,1.1c0,0-0.1,0.1-0.1,0.1c0,0.1,0,0.2,0.1,0.3c0,0-0.1,0.1,0,0.1h-0.2
			c0,0.1-0.1,0.2-0.1,0.3h0.1c0,0.2-0.1,0.3-0.3,0.3l-0.1,0.3v0.1h-0.1l-0.1,0.3v0.1l-0.3,1C145,48,145.2,47.8,145.4,47.4
			L145.4,47.4z M150.4,38.9c0.1-0.2,0.2-0.4,0.3-0.5c0.4-0.6,0.7-1.2,1-1.8c0.2-0.4,0.4-0.7,0.6-1.1c0.2-0.4,0.4-0.7,0.6-1.1
			c0.6-1.1,1.3-2.2,2.1-3.1c0.4-0.5,0.6-0.9,0.6-1.2v-0.9c0.1-0.3-0.1-0.4-0.8-0.5c-0.7-0.1-1.1,0.1-1.4,0.6
			c-0.2,0.3-0.4,0.6-0.6,0.9c-0.3,0.3-0.4,0.6-0.4,1.1l-0.4,0.4c-0.1,0.5-0.4,1.1-0.7,1.6c-0.3,0.5-0.6,1.1-0.9,1.6
			c0,0.1-0.1,0.2-0.1,0.3c0,0.1-0.1,0.2-0.1,0.2c-0.2,0.5-0.5,1-0.7,1.5c-0.3,0.5-0.5,1-0.6,1.4c-0.2,0-0.6-0.1-1-0.1
			c0-0.1-0.1-0.2-0.1-0.3c0-0.3-0.2-0.5-0.7-0.5c-0.6-0.1-1.3-0.1-2,0.1c-0.7,0.2-1.1,0.3-1.1,0.5c-0.7-0.1-2,0.7-3.9,2.4
			c-1.9,1.7-3.4,3.6-4.5,5.6h-0.1c0,0.1-0.1,0.2-0.3,0.3c0.4,0.1,0.6,0.3,0.6,0.4c-0.4,0.2-0.7,0.4-1,0.4c0,0.1,0.1,0.1,0.2,0.1
			c0,0,0,0.1-0.1,0.2c0,0.1-0.1,0.1-0.1,0.2h0.1c0,0.2,0,0.2-0.1,0.2c-0.1,0-0.1-0.1-0.2-0.1c-0.7,1-1.1,2-1.4,3
			c-0.2,1-0.3,1.9-0.3,2.7c0.2,1.4,0.8,2.2,1.6,2.7c0.1,0,0.2,0,0.2-0.1c0,0,0.1-0.1,0.2-0.1c0,0,0.1,0.2,0.1,0.3
			c0.5,0.3,1.3,0.4,2.2,0.4c1.4,0,2.7-0.7,4-2.1c1.3-1.3,2.4-2.7,3.2-4.2c-0.1,0.2-0.2,0.4-0.3,0.6c0,0.2-0.1,0.4-0.1,0.5l-0.3,0.5
			l-0.3,1.3c0,0.2,0,0.6,0.1,1.2c0,0.5,0.3,0.9,0.7,1.2c0.5,0.1,1,0.1,1.6,0c0.1,0,0.4-0.1,0.8-0.3c0.4-0.2,0.9-0.4,1.3-0.6
			c0.1,0,0.3-0.1,0.6-0.3c0.2-0.1,0.4-0.3,0.4-0.5c0.2-0.2,0.4-0.3,0.6-0.3c0,0,0.1-0.1,0.3-0.3c0.1-0.2,0.3-0.3,0.5-0.3
			c-0.1,0-0.2,0-0.3,0.1c-0.1,0.1-0.2,0.1-0.2,0.1c-0.1-0.1-0.1-0.2,0-0.2c0.1,0,0.2,0,0.4-0.1c0.2,0,0.3-0.1,0.3-0.1
			c0.2-0.4,0.4-0.6,0.5-0.7c-0.4,0.1-0.6,0.3-0.6,0.6c0-0.1-0.1-0.2-0.1-0.3c0.4-0.2,0.7-0.3,0.7-0.3c0-0.1,0-0.2,0-0.3h0.3
			c0-0.1,0.1-0.2,0.1-0.3c0,0,0.1,0,0.1-0.1c0,0,0.1-0.1,0.1-0.1v-0.1v-0.1c0,0,0.1,0,0.2,0c0.1,0,0.1,0,0.2,0
			c-0.2-0.1-0.4-0.1-0.6,0.1c-0.2,0.2-0.4,0.3-0.5,0.4c-0.7,0.5-1.6,1-2.5,1.6c-0.9,0.5-1.6,0.8-1.9,0.8c-0.1,0-0.3,0.1-0.3,0.1
			c-0.3,0-0.5-0.2-0.7-0.5c-0.1-0.5,0-1.5,0.3-2.9c0,0,0-0.1,0.1-0.2v-0.1c0.2-1.2,0.5-2.3,0.9-3.3c0.3-1,0.6-1.6,0.7-1.7
			c0-0.2,0.1-0.5,0.4-0.9c0.2-0.3,0.4-0.7,0.4-1.1c0.2,0,0.3,0,0.3-0.1v-0.4h0.1h0.1c0-0.1,0.2-0.7,0.6-1.8c0.1-0.3,0.2-0.6,0.4-1
			c0.2-0.3,0.3-0.6,0.4-1C150.3,39.3,150.3,39.1,150.4,38.9 M125.2,41.2L125.2,41.2c-0.2-0.2-0.2-0.3,0-0.5c0.1-0.1,0.3-0.2,0.4-0.2
			c0.2,0,0.4,0,0.6-0.1c0-0.1,0.2-0.2,0.7-0.2c0.1,0.2,0.2,0.3,0.3,0.4c0.1,0.1,0.1,0.3,0.1,0.5c-0.2,0.2-0.4,0.4-0.7,0.4
			c-0.3,0-0.6,0.1-0.7,0.1C125.6,41.6,125.4,41.4,125.2,41.2 M117.5,52.9c0.5-1.2,1-2.4,1.6-3.6c0.6-1.2,1.3-2.2,1.9-3.2
			c0.6-1,1.1-1.6,1.4-2c0.1-0.1,0.2-0.2,0.5-0.3c0.2-0.1,0.4-0.2,0.5-0.3c0.7,0.1,1.4,0.1,2.3,0c0.8-0.1,1.4-0.3,1.6-0.4
			c-0.4,2.1-1,3.9-2,5.6c-1,1.6-1.9,3-3,4.1c-1,1.1-1.9,1.9-2.8,2.4c-0.8,0.5-1.3,0.7-1.4,0.4c-0.2,0-0.3,0-0.5,0.1v0.1
			c-0.3,0-0.5,0.1-0.7,0.2C116.8,55.1,117,54.1,117.5,52.9 M116.7,57.6c0.2,0,0.4-0.2,0.5-0.5c0.1,0,0.3,0,0.5,0
			c0.2,0,0.4-0.1,0.4-0.2c0.9-0.1,2-0.9,3.5-2.2c1.5-1.3,2.2-2.2,2.2-2.7c0.1-0.1,0.2-0.2,0.3-0.3v-0.1c0.1-0.1,0.3-0.2,0.5-0.2
			v-0.2c0,0-0.1,0-0.1-0.1c0,0-0.1-0.1-0.1-0.1h0.1h0.1V51c0.1-0.1,0.2-0.2,0.3-0.2c0.7-1,1.3-2.1,1.7-3.3c0.5-1.2,0.9-2.3,1.3-3.3
			l-0.1-0.1c0.1-0.3,0.2-0.6,0.3-0.9c0.1-0.3,0.2-0.6,0.4-0.9c1.4-0.3,2.5-0.9,3.4-1.8c0.9-0.9,2.5-1.4,4.8-1.4
			c0.1,0.5,0.4,0.7,0.9,0.3c0.4-0.1,0.6-0.2,0.7-0.3c0.1-0.1,0-0.3-0.3-0.5c-0.4-0.3-0.7-0.4-1.2-0.4c-0.4,0-0.7,0-1,0l-0.2,0.2
			c-0.7,0.1-1.4,0.3-2.1,0.6c-0.7,0.3-1.5,0.5-2.1,0.8c-0.5,0.2-1.1,0.3-1.5,0.5c-0.5,0.1-0.9,0.2-1.3,0.2c0-0.4-0.1-0.7-0.3-1.1
			c-0.2-0.4-0.5-0.6-0.7-0.7c-0.9,0-1.9,0.1-3,0.4c-1.1,0.3-1.8,0.8-2.2,1.6c-0.3,0.5-0.5,0.8-0.6,0.9c-0.1,0-0.1,0.4,0,1.2
			c-0.2,0.2-0.4,0.5-0.6,0.9c-0.2,0.4-0.4,0.6-0.5,0.6c0,0.1,0.1,0.3,0.1,0.5h-0.1h-0.1c-0.2,0.8-0.8,1.9-1.7,3.2
			c-1,1.3-1.7,2.5-2.1,3.6c-0.4,0.9-0.6,1.6-0.8,2.1c-0.2,0.5-0.3,1.2-0.4,1.8c-0.1,1.2,0,2,0.5,2.3
			C116.3,57.7,116.6,57.7,116.7,57.6 M97.5,41.2c-0.7-0.5-1.3-0.7-1.8-0.7c0.2-0.5,0.6-1.6,1.3-3.3c0.7-1.6,1.1-2.9,1.3-3.7
			c0,0-0.1,0-0.2-0.1c0.2-0.4,0.4-0.7,0.5-1.2c0.1-0.4,0.2-0.7,0.2-1c0-0.3,0-0.6-0.1-0.7c-0.1-0.2-0.3-0.3-0.7-0.3
			c-0.3,0-0.5,0-0.8,0.1c-0.3,0.1-0.6,0.1-0.9,0.2c0.4-0.2,1.1-0.4,2-0.7c0.9-0.3,1.6-0.5,2-0.6c0,0,0-0.1,0.2-0.3
			c0.1,0,0.2,0,0.2,0.3c0.1,0,0.3-0.1,0.5-0.2c0.2-0.1,0.4-0.3,0.5-0.4c1.8-0.3,3.5-0.6,5.2-1.1c1.7-0.5,3.6-0.5,5.5-0.1v0.1
			c0.5,0,0.8,0.2,0.9,0.5c0,0.3,0.1,0.7,0.2,1.2c0,0.8-0.4,1.7-1.1,2.6c-0.7,0.9-1.4,1.8-2.2,2.6c-0.8,0.8-1.6,1.5-2.2,2.1
			c-0.7,0.6-1,1-1.1,1.1c-0.1,0-0.2,0-0.3,0.1v0.2c-0.1,0-0.2,0-0.3,0c-0.1,0-0.1,0-0.2,0V38c-1.1,0.9-2.3,1.7-3.5,2.5
			c-1.2,0.8-2.5,1.5-3.8,2C98.6,42.1,98.2,41.7,97.5,41.2 M94.8,43c0.3-0.5,0.8-0.6,1.5-0.5c0,0.2,0,0.3,0.1,0.5
			c0.2,0,0.3,0.2,0.5,0.4c-0.2,0-0.5,0.1-0.8,0.3c-0.3,0.2-0.4,0.3-0.4,0.5c-0.2,0-0.4,0.1-0.6,0.2c-0.2,0.1-0.3,0.2-0.5,0.2
			C94.4,44,94.5,43.5,94.8,43 M109.1,56.4c0.7-0.7,1.4-1.2,2-1.6c0-0.1-0.1-0.2-0.1-0.4c0.1-0.1,0.3-0.3,0.4-0.5
			c0.1-0.2,0.3-0.4,0.6-0.6c0-0.2,0-0.4,0.1-0.6c0.1-0.2,0.2-0.5,0.2-0.8c0,0.1-0.2,0.1-0.4,0.1c0,0.2,0,0.3-0.1,0.5
			c-0.1,0.1-0.2,0.3-0.2,0.5c-0.1,0.1-0.4,0.3-0.8,0.5c-0.4,0.2-0.5,0.4-0.4,0.5c-0.2,0.2-0.4,0.4-0.7,0.4c-0.3,0.1-0.5,0.3-0.6,0.6
			c-0.2,0-0.4,0.2-0.4,0.5c-0.3-0.1-0.4-0.2-0.5-0.2c-0.5,0.3-0.9,0.5-1.3,0.6c-0.4,0.2-0.8,0.2-1.1,0.1c-1.1-0.2-2.1-0.7-2.8-1.7
			c-0.7-1-1.3-2-1.8-3.2c-0.5-1.2-0.8-2.3-1.1-3.5c-0.3-1.2-0.5-2-0.7-2.6l0.1-0.1c-0.2-0.4-0.3-0.6-0.4-0.7c0,0,0.1-0.1,0.1-0.1
			c0-0.1-0.1-0.2-0.2-0.3c1-0.6,2.4-1.4,4.2-2.4c1.7-1,3.4-2.2,5.1-3.5c1.4-1.1,2.7-2.2,3.7-3.4c1.1-1.2,1.8-2.4,2-3.6
			c0.5-0.2,0.8-0.9,1-2.1c0.2-1.2-0.2-2-1.3-2.3v-0.1c-0.5,0-0.8,0-1,0v-0.1c0.1,0,0,0-0.5-0.1c-0.6-0.3-2.1-0.2-4.5,0.2
			c-2.4,0.4-5,1-7.6,1.7c-2.7,0.7-5,1.3-7.1,2c-2.1,0.7-3.1,1-2.9,1.1c-0.8,0.3-1.5,0.5-2,0.6v0.1c-0.2,0.1-0.5,0.2-0.7,0.4
			c0,1.1,0.5,1.5,1.6,1.2c1.1-0.3,1.9-0.6,2.6-0.9v-0.1c0.5-0.3,1.2-0.6,2-0.9c0.8-0.3,1.5-0.5,2-0.6c0,0.3,0,0.5-0.1,0.5
			c-0.1,0.1,0,0.2,0.1,0.3c0.2,0,0.2,0,0.1,0.1c-0.1,0.1-0.1,0.1-0.1,0.1c-0.1,0.4,0,0.6,0.4,0.7c-0.1,0.9-0.3,1.8-0.4,2.7
			c-0.1,0.9-0.4,1.7-0.7,2.6c0,0.3,0.1,0.5,0.2,0.6c-0.1,0-0.2,0-0.2,0c-0.1,0-0.1,0-0.2,0c0,0,0,0.1,0.1,0.2c0,0.1,0.1,0.1,0.1,0.1
			c-0.1,0-0.2,0.1-0.2,0.1c-0.1,0-0.1,0-0.2,0c0,0.1,0,0.2-0.1,0.3h-0.2c0,0.5-0.1,0.7-0.3,0.9c0,0.1-0.1,0.2-0.1,0.3
			c0,0.1,0,0.2,0,0.3c-1.5,1.3-2,2.7-1.4,4.2c-0.8,2-1.7,4.1-2.6,6.1c-0.9,2-1.5,3.4-1.6,4.2c0,0,0.1,0,0.1,0c0,0,0.1,0,0.1,0
			c0,0.1-0.2,0.2-0.3,0.3c0,0.3,0.1,0.5,0.3,0.6c0,0-0.1,0.1-0.2,0.1c0.5,0.5,1,0.5,1.7,0.3c0,0,0.1-0.5,0.4-1.6
			c0.3-1,0.7-2.2,1.1-3.5c0.4-1.3,0.8-2.5,1.2-3.6c0.4-1.1,0.6-1.7,0.7-1.9c0.4,0.1,1.2-0.1,2.3-0.6c1.1-0.6,1.8-0.9,1.9-1
			c0.7,1.2,1.2,2.5,1.5,4c0.3,1.5,0.7,2.9,1.2,4.3c0.5,1.3,1.1,2.4,1.9,3.3c0.8,0.9,2,1.3,3.6,1.2C107.3,57.4,108.4,57,109.1,56.4"
			/>
	</g>
	<polyline class="st19" points="83.8,18.5 83.8,4.2 176.2,4.2 176.2,18.5 	"/>
	<polyline class="st19" points="83.8,78.1 83.8,93.2 176.2,93.2 176.2,77.7 	"/>
</g>
</svg>
