<?xml version="1.0" encoding="utf-8"?>
<!-- Generator: Adobe Illustrator 22.0.1, SVG Export Plug-In . SVG Version: 6.00 Build 0)  -->
<svg version="1.1" id="Capa_1" xmlns="http://www.w3.org/2000/svg" xmlns:xlink="http://www.w3.org/1999/xlink" x="0px" y="0px"
	 viewBox="0 0 260 98.9" style="enable-background:new 0 0 260 98.9;" xml:space="preserve">
<style type="text/css">
	.st0{fill:#FFFFFF;}
	.st1{fill:none;stroke:#E66728;stroke-width:2;stroke-linecap:round;stroke-linejoin:round;}
	.st2{fill:#E66728;}
	.st3{fill:none;stroke:#E66728;stroke-width:1.5;stroke-linecap:round;stroke-linejoin:round;}
	.st4{clip-path:url(#SVGID_2_);fill:#E66728;}
	.st5{clip-path:url(#SVGID_2_);fill:#FFFFFF;}
	.st6{fill:none;stroke:#D25A2B;stroke-width:2.082;stroke-linecap:round;stroke-linejoin:round;}
	.st7{fill:none;stroke:#D25A2B;stroke-width:1.948;stroke-linecap:round;stroke-linejoin:round;}
	.st8{clip-path:url(#SVGID_4_);fill:#E66728;}
	.st9{clip-path:url(#SVGID_4_);fill:#FFFFFF;}
	.st10{clip-path:url(#SVGID_6_);fill:#E66728;}
	.st11{clip-path:url(#SVGID_6_);fill:#FFFFFF;}
	.st12{clip-path:url(#SVGID_8_);fill:#E66728;}
	.st13{clip-path:url(#SVGID_8_);fill:#FFFFFF;}
	.st14{fill:none;stroke:#D66F2C;stroke-width:1.594;stroke-linecap:round;stroke-linejoin:round;}
	.st15{clip-path:url(#SVGID_10_);fill:#FFFFFF;}
	.st16{clip-path:url(#SVGID_12_);fill:#FFFFFF;}
	.st17{clip-path:url(#SVGID_14_);fill:#FFFFFF;}
	.st18{fill:none;stroke:#D25A2B;stroke-width:1.906;stroke-linecap:round;stroke-linejoin:round;}
	.st19{fill:none;stroke:#DF6829;stroke-width:1.763;stroke-linecap:round;stroke-linejoin:round;}
	.st20{fill:none;stroke:#D25A2B;stroke-width:1.763;stroke-linecap:round;stroke-linejoin:round;}
</style>
<g>
	<g>
		<defs>
			<rect id="SVGID_9_" x="38.7" y="-26.3" width="182.6" height="152.1"/>
		</defs>
		<clipPath id="SVGID_2_">
			<use xlink:href="#SVGID_9_"  style="overflow:visible;"/>
		</clipPath>
		<path class="st5" d="M146.3,84.7h4.4v-1.1h-3.2V75h-1.2V84.7z M143.9,75h-1.2v6.3c0,1.5-0.7,2.5-1.8,2.5s-1.8-1-1.8-2.5V75h-1.2
			v6.2c0,1,0.1,1.5,0.4,2.2c0.4,0.8,1.3,1.5,2.7,1.5s2.3-0.7,2.7-1.5c0.3-0.7,0.4-1.2,0.4-2.2V75z M135.8,83.3
			c-0.5,0.3-1.1,0.5-1.7,0.5c-2.1,0-3.1-1.7-3.1-4.2c0-2.4,1.5-3.6,3-3.6c0.7,0,1.3,0.2,1.8,0.5v-1.2c-0.4-0.2-1.1-0.3-1.8-0.3
			c-2.5,0-4.3,1.9-4.3,5c0,2.6,1.3,5,4.4,5c0.6,0,1.2-0.1,1.8-0.3V83.3z M123.4,81.1l1.5-4.9h0l1.5,4.9H123.4z M124.3,75l-3.3,9.7
			h1.2l0.8-2.5h3.7l0.8,2.5h1.3l-3.2-9.7H124.3z M110.8,84.7h1.2v-8.4h0l2.7,8.4h0.9l2.8-8.4h0v8.4h1.2V75h-1.8l-2.5,7.7h0l-2.4-7.7
			h-1.9V84.7z"/>
		<path class="st5" d="M171,42.5L171,42.5c-0.2-0.2-0.2-0.3,0-0.6c0.1-0.1,0.3-0.2,0.5-0.2c0.2,0,0.4,0,0.7-0.1
			c0-0.1,0.2-0.2,0.7-0.2c0.1,0.2,0.2,0.3,0.3,0.4c0.1,0.1,0.1,0.3,0.1,0.6c-0.2,0.2-0.5,0.4-0.8,0.4c-0.3,0-0.6,0.1-0.8,0.1
			C171.4,42.9,171.1,42.8,171,42.5 M162.9,54.7c0.5-1.3,1-2.5,1.7-3.8c0.7-1.2,1.3-2.4,2-3.4c0.6-1,1.1-1.7,1.5-2.1
			c0.1-0.1,0.3-0.2,0.5-0.3c0.2-0.1,0.4-0.2,0.6-0.3c0.7,0.1,1.5,0.2,2.4,0c0.9-0.1,1.4-0.3,1.7-0.5c-0.4,2.2-1.1,4.1-2.1,5.8
			c-1,1.7-2,3.1-3.1,4.3c-1.1,1.2-2,2-2.9,2.6c-0.9,0.5-1.4,0.7-1.5,0.5c-0.2,0-0.4,0-0.5,0.1v0.1c-0.3,0-0.5,0.1-0.8,0.2
			C162.2,57.1,162.4,56,162.9,54.7 M162.1,59.7c0.2,0,0.4-0.2,0.6-0.5c0.1,0,0.3,0,0.6,0c0.2,0,0.4-0.1,0.4-0.2
			c0.9-0.1,2.1-0.9,3.7-2.3c1.6-1.4,2.4-2.3,2.4-2.8c0.1-0.1,0.2-0.2,0.4-0.3v-0.1c0.1-0.1,0.3-0.2,0.5-0.2V53c0,0-0.1,0-0.1-0.1
			c0,0-0.1-0.1-0.1-0.1h0.1h0.1v-0.1c0.1-0.1,0.3-0.2,0.4-0.2c0.7-1,1.3-2.1,1.8-3.5c0.5-1.3,0.9-2.5,1.3-3.5l-0.1-0.1
			c0.1-0.3,0.3-0.6,0.4-1c0.1-0.4,0.2-0.7,0.4-1c1.4-0.3,2.6-0.9,3.5-1.9c0.9-1,2.6-1.4,5-1.4c0.1,0.6,0.4,0.7,0.9,0.4
			c0.4-0.1,0.6-0.3,0.7-0.4c0.1-0.1,0-0.3-0.3-0.6c-0.4-0.3-0.8-0.4-1.2-0.5c-0.4,0-0.8,0-1.1,0l-0.2,0.2c-0.7,0.1-1.5,0.4-2.2,0.6
			c-0.8,0.3-1.5,0.6-2.2,0.9c-0.6,0.2-1.1,0.4-1.6,0.5c-0.5,0.1-1,0.2-1.4,0.2c0-0.4-0.1-0.8-0.4-1.2c-0.2-0.4-0.5-0.7-0.8-0.7
			c-1,0-2,0.1-3.1,0.4c-1.1,0.3-1.9,0.8-2.3,1.7c-0.3,0.6-0.5,0.9-0.6,0.9c-0.1,0-0.1,0.5,0,1.2c-0.2,0.2-0.4,0.6-0.6,1
			c-0.2,0.4-0.4,0.6-0.6,0.7c0,0.1,0.1,0.3,0.1,0.5h-0.1h-0.1c-0.2,0.9-0.8,2-1.8,3.3c-1,1.4-1.7,2.6-2.2,3.7
			c-0.4,0.9-0.7,1.6-0.8,2.2c-0.2,0.6-0.3,1.2-0.5,1.9c-0.1,1.2,0,2,0.6,2.4C161.7,59.8,161.9,59.8,162.1,59.7 M149.4,46
			c-0.2,0-0.4-0.1-0.4-0.2c0-0.1,0.1-0.1,0.2-0.1C149.3,45.8,149.3,45.9,149.4,46 M153.8,45.3l-0.1-0.1h0.2h0.2c0,0,0.1,0,0.1,0.1
			H154H153.8z M147.6,52.7h0.1v0.1V53h-0.1h-0.1C147.4,52.9,147.5,52.8,147.6,52.7 M144.7,58.8c0.5-1,1.3-2.2,2.2-3.6
			c0.3-0.5,0.6-0.8,0.8-1.1c0.2-0.2,0.5-0.6,1-1.2c0.9-1.2,1.8-2.4,2.7-3.5c0.9-1.2,1.7-2.1,2.4-2.9c0.3-0.3,0.8-0.9,1.7-1.8
			c0.8-0.9,1.6-1.5,2.2-1.8c0.2,0,0.3,0,0.4-0.1c0,0.7-0.5,1.9-1.4,3.6c-0.9,1.7-1.5,2.9-1.9,3.7c-0.2,0.4-0.5,1-0.9,1.9
			c-0.4,0.9-0.7,1.6-1,2.4v0.1l-0.1,0.1l-0.1,0.1c0,0.2-0.1,0.4-0.2,0.5v0.2v0.2c0,0-0.1,0.1-0.1,0.3c0,0.2-0.1,0.4-0.2,0.5
			c0,0.2,0.1,0.3,0.2,0.3c-0.3,0.8-0.1,1.5,0.6,2.2c0.5,0,1,0,1.6,0c0.1,0,0.5-0.1,0.9-0.3c0.5-0.2,0.9-0.4,1.4-0.6
			c0.1,0,0.3-0.2,0.6-0.3c0.2-0.2,0.4-0.3,0.5-0.5c0.3-0.1,0.5-0.2,0.7-0.4c0.1,0,0.2-0.1,0.3-0.2c0.1-0.1,0.2-0.2,0.4-0.3
			c-0.1,0-0.2,0.1-0.4,0.3c-0.1-0.1-0.1-0.2,0-0.2c0.3-0.3,0.5-0.3,0.8-0.1c0-0.3,0.2-0.6,0.5-0.7c-0.1,0-0.4,0.2-0.6,0.5
			c-0.1-0.1-0.1-0.2-0.1-0.3c0.1,0,0.4-0.1,0.8-0.3v-0.2V55h0.3c0,0,0-0.1,0.1-0.1c0,0,0.1-0.1,0.1-0.1c0.3-0.1,0.4-0.2,0.3-0.2
			v-0.1v-0.1h0.4c-0.2-0.1-0.4-0.1-0.6,0c-0.2,0.1-0.4,0.3-0.6,0.4c-0.7,0.6-1.6,1.1-2.5,1.6c-1,0.5-1.7,0.8-2,0.9
			c-0.5,0.1-0.8,0.1-1,0c-0.1-0.1-0.2-0.2-0.2-0.2c0-0.1-0.1-0.3-0.2-0.4c0-0.1,0-0.4,0-1c0-0.5,0.3-1.3,0.6-2.3
			c0.7-1.7,1.7-3.6,2.8-5.7c1.2-2.1,2.2-4.3,3-6.6v-0.4c0-0.2-0.1-0.5-0.4-0.7c-0.3-0.3-0.6-0.5-1-0.5c-0.4,0.1-0.7,0.2-0.9,0.4
			c0,0-0.3,0.2-0.7,0.7c-0.4,0.5-0.9,1-1.4,1.5c-0.5,0.6-1,1.1-1.4,1.6c-0.5,0.5-0.7,0.8-0.7,0.8v0.4h0.1h0.1c0,0.1-0.1,0.2-0.1,0.2
			c-0.1-0.1-0.3-0.1-0.5-0.1c-1,1.2-1.8,2.1-2.3,2.7c-0.5,0.6-1.6,2.1-3.2,4.7v0.2c0,0.1-0.1,0.1-0.2,0.1h-0.1
			c0.6-2.6,1.4-4.8,2.4-6.8c1-2,1.8-3.8,2.2-5.6c0-0.3-0.2-0.5-0.7-0.6c-0.5-0.1-0.8,0.1-1,0.5c0,0.6-0.3,1.1-0.8,1.7
			c-0.8,1.1-1.9,2-3.2,2.8c-1.3,0.8-2.4,1.2-3.3,1.2c-1.2-0.3-1.8,0.1-1.8,1.3c0,0.2,0.3,0.4,0.8,0.5c1.2,0.2,2.4-0.1,3.4-0.9
			c0.9-0.7,2.1-1.6,3.5-2.6c-0.4,2.1-1.1,4.1-2.1,5.8c-1,1.7-2.3,4.1-4,7.2c-0.1,0.1-0.2,0.3-0.2,0.5c0,0.2-0.1,0.4-0.1,0.5
			c-0.1,0.5,0.1,0.8,0.7,0.9C144,59,144.4,59,144.7,58.8 M125.8,48.7h0.1c0-0.1,0-0.3,0.1-0.4h-0.2v0.2V48.7z M136.4,46.5
			c-0.5,0.9-0.7,1.2-0.7,1.1c-0.1,0.2-0.2,0.3-0.2,0.4c0,0-0.1,0.1-0.2,0.1v0.2c-0.2,0-0.4,0-0.6,0c0,0.1,0,0.2-0.1,0.3
			c0,0.1-0.1,0.2-0.1,0.2c-0.4,0.6-1,1.4-1.7,2.2c-0.8,0.9-1.6,1.7-2.6,2.6c-0.9,0.9-1.8,1.6-2.7,2.3c-0.9,0.7-1.7,1.1-2.3,1.2
			c-0.3,0.1-0.6,0.1-0.9,0.1c-0.3,0-0.5-0.1-0.6-0.3c0-0.9,0.4-2.2,1.2-3.8c0.7-1.6,1.7-3.3,2.7-5c1.4-2.3,2.9-4.3,4.7-6.2
			c1.7-1.8,3.2-2.7,4.5-2.5c0.5,0,1,0.3,1.5,0.9c0,0.1,0,0.2,0.1,0.2l0.1,0.1c0,0.4-0.3,0.8-0.8,1.1c-0.5,0.4-0.8,0.9-0.8,1.4
			c0,0.3,0.3,0.5,0.8,0.6C137.3,44.7,136.9,45.6,136.4,46.5 M126,58.6c0.9-0.4,1.8-1,2.7-1.8c0.9-0.8,1.8-1.7,2.7-2.6
			c0.9-0.9,1.7-1.8,2.3-2.6c0.3-0.4,0.6-0.8,0.9-1.3c0.3-0.5,0.6-1,0.7-1.6c0,0.2-0.1,0.4-0.2,0.6c-0.1,0.2-0.1,0.4-0.1,0.5l-0.4,1
			c-0.1,0.4-0.3,1-0.5,1.6c-0.3,0.7-0.5,1.3-0.6,1.9h-0.1c0,0.1,0,0.4-0.1,0.6V55v0.1v0.2c-0.1,0-0.2,0.1-0.2,0.1l0.1,0.2v0.4v0.4
			c0,0.3,0.1,0.6,0.2,0.9c0.1,0.3,0.3,0.5,0.5,0.6c0.6,0.1,1.1,0.1,1.5,0c0.1,0,0.5-0.1,0.9-0.3c0.5-0.2,0.9-0.4,1.4-0.6
			c0.1,0,0.3-0.1,0.6-0.3c0.3-0.2,0.4-0.4,0.5-0.5c0.3-0.1,0.5-0.3,0.6-0.4c0,0,0.1-0.1,0.3-0.2c0.1-0.1,0.3-0.2,0.5-0.3
			c-0.1,0-0.3,0-0.4,0.1c-0.1,0.1-0.2,0.1-0.2,0.1c-0.1-0.1-0.1-0.1,0-0.1c0.4-0.2,0.7-0.3,0.9-0.1c0-0.3,0.2-0.6,0.5-0.7
			c-0.1,0-0.4,0.2-0.6,0.5c0-0.1-0.1-0.2-0.1-0.3c0.1,0,0.3-0.1,0.4-0.1c0.1,0,0.2-0.1,0.4-0.2c0-0.1,0-0.2,0-0.3h0.2h0.2
			c0-0.1,0.1-0.2,0.2-0.3c0-0.1,0.1-0.2,0.1-0.2v-0.1v-0.1h0.2h0.2c-0.2-0.1-0.5-0.1-0.7,0c-0.2,0.1-0.4,0.3-0.6,0.4
			c-0.7,0.6-1.6,1.1-2.5,1.6c-1,0.5-1.6,0.8-2,0.9c-0.6,0.1-0.9,0.1-1,0c-0.1-0.1-0.2-0.2-0.2-0.2v-0.1l0.1-0.1
			c-0.1-0.3-0.2-0.7,0-1.2c0.1-0.5,0.3-1.2,0.5-1.9c0.3-1.2,0.7-2.4,1.2-3.6c0.5-1.2,0.8-1.8,1-1.9c0-0.3,0.1-0.6,0.2-1
			c0.2-0.4,0.2-0.7,0.2-1.2c0.1,0,0.2,0,0.2,0c0,0,0.1,0,0.2,0V45v-0.2h0.1h0.1c0-0.1,0.1-0.4,0.2-0.7c0.1-0.3,0.2-0.7,0.4-1.1
			c0.3-0.6,0.5-1.3,0.7-2c0.2-0.7,0-1.1-0.4-1.1c-0.4,0-0.7,0-0.9-0.1c-0.1,0-0.1-0.1-0.1-0.3c0-0.4-0.3-0.6-0.8-0.7
			c-0.6,0-1.2,0-2,0.2c-0.8,0.2-1.2,0.4-1.2,0.5c-0.7-0.2-2,0.6-4,2.5c-1.9,1.8-3.5,3.8-4.7,6H126c-0.2,0.2-0.3,0.3-0.2,0.3
			c0.3,0.2,0.5,0.3,0.5,0.4c-0.2,0.1-0.4,0.2-0.5,0.3c-0.1,0.1-0.3,0.1-0.4,0.1c0,0,0,0.1,0.1,0.1l-0.1,0.4h0.1
			c0,0.2-0.1,0.3-0.4,0.3c-0.8,1-1.4,2.5-2,4.6c-0.6,2-0.8,3.1-0.6,3.1c0,0.3,0.1,0.6,0.4,0.7c0.3,0.1,0.4,0.3,0.4,0.4
			c0.1,0,0.2,0,0.2-0.1s0.1-0.1,0.2-0.1v0.3v0.2C124.4,59,125.1,59,126,58.6 M112.4,48.7h0.1v-0.2h-0.2
			C112.4,48.6,112.4,48.7,112.4,48.7 M111.6,49.3c0.1,0,0.2-0.1,0.4-0.1c-0.1,0-0.1,0-0.1-0.1c-0.1,0-0.2,0-0.3,0
			c-0.1,0-0.2-0.1-0.2-0.1v0.1C111.5,49.2,111.5,49.3,111.6,49.3 M111.1,49.6h-0.2c-0.1,0.1-0.2,0.3-0.3,0.4
			C110.9,49.9,111,49.7,111.1,49.6 M103.3,58.9c0.1-0.4,0.5-1.2,1.4-2.4c0.4-0.5,1.3-1.6,2.6-3.2c1.3-1.6,2.3-2.7,2.9-3.1
			c0.1-0.3,0.4-0.5,0.7-0.7c0.1,0,0.3-0.1,0.4-0.1v-0.2v-0.3c0,0,0.2,0,0.5-0.1c0.3-0.1,0.4-0.2,0.4-0.4c0.3,0,0.5,0,0.6,0.1
			c0.6-0.4,1.5-1,2.7-1.7c1.2-0.7,2.2-1.1,3-1.2c-0.8,1.1-1.4,2.1-2,2.7c-0.5,0.7-1,1.3-1.3,1.7c-1.4,2-3,3.9-4.8,5.7
			c-1.8,1.8-4,3-6.6,3.5C103.4,59.4,103.2,59.3,103.3,58.9 M103.7,61.2c3.9-1.7,7.1-4.1,9.3-7c2.3-3,4.7-6,7.3-9.1
			c0,0,0.5,0,1.3-0.1c0.8-0.1,1.7,0,2.7,0.2c-0.2-0.1-0.7-0.2-1.5-0.3c-0.8,0-1.6-0.1-2.5-0.1c0.8-1,1.3-2.3,1.4-4
			c0.1-1.7-0.5-2.6-1.9-2.6c0,0-0.1-0.1-0.1-0.1c-1-0.1-2.1,0-3.4,0.3c-1.3,0.4-2.3,0.8-3.2,1.2v0.1h-0.1v0.2v0
			c-0.1,0-0.2,0.1-0.2,0.2c0,0.1,0,0,0-0.2h-0.1c-0.2,0.1-0.6,0.3-1.2,0.6c-0.5,0.3-1,0.6-1.3,0.9c0-0.4,0.3-1.4,1.1-3
			c0.8-1.6,1.6-3.2,2.6-4.9c0.9-1.7,2.2-3.9,3.8-6.7c0.7-0.7,0.9-1.3,0.6-1.9c-0.3-0.5-0.6-0.8-1-0.8c-0.6,0.1-0.9,0.3-1,0.7
			c-0.1,0.4-0.2,0.7-0.2,1c-0.3,0.4-0.4,0.7-0.2,0.9c-0.4,0.2-1.3,1.9-2.6,4.9c-1.3,3-2.8,6-4.5,8.8c-0.2,0.3-0.4,0.6-0.6,0.9
			c-0.3,0-0.6,0.3-0.9,0.8c-0.2,0.5-0.5,0.9-1.1,1.3c-0.5,0.4-0.8,0.8-0.8,1.2c0,0-0.2,0.1-0.4,0.1c-0.1,0.4-0.2,0.9-0.3,1.3
			c-0.1,0.5,0.1,0.7,0.6,0.9c0.4,0,0.8,0,1.1-0.1c0.3-0.1,0.6-0.3,0.9-0.6v-0.1v-0.1c0.4,0,0.8-0.4,1.2-1c0.4-0.6,0.9-1.1,1.4-1.3
			v-0.1c0.5-0.5,1.6-1.4,3.2-2.7c1.6-1.3,3.1-2,4.5-2c-0.1-0.2,0-0.3,0.1-0.3v0.3c0.1,0,0.3,0,0.7-0.1c0.4,0,0.7,0,1,0.3
			c0.4,0.3,0.6,0.9,0.4,1.6c-0.2,0.8-0.3,1.4-0.5,1.9c-0.1,0.4-0.3,0.8-0.5,1.2c-0.2,0.4-0.4,0.7-0.7,1c-0.6,0.1-1.3,0.4-2.3,0.7
			c-1,0.3-1.7,0.6-2.3,1v0.1V47c-0.7,0.1-1,0.3-1.1,0.5c-0.1,0-0.2,0-0.4,0.1c0,0.1,0,0.2,0.1,0.2c-0.1,0-0.2,0-0.3,0.1V48
			c-0.5,0.1-0.9,0.4-1.3,0.6c-0.4,0.3-0.7,0.5-0.9,0.6v0.2c-0.1,0-0.1,0-0.1,0.1c-0.1,0-0.1,0.1-0.1,0.2c-1,0.5-2.2,1.5-3.5,3
			c-1.3,1.5-2.4,3-3.2,4.5c-0.5,0.7-0.9,1.3-1.1,1.7c-0.2,0.5-0.4,0.9-0.5,1.4c-0.1,0.8,0,1.1,0.6,1.1
			C102.9,61.5,103.4,61.4,103.7,61.2 M96.6,24.4c0.2,0,0.3,0,0.4-0.1v-0.1c0.4,0,1-0.2,1.7-0.7c0.8-0.5,1.5-1,2.1-1.4
			c0,0,0.1,0,0.2-0.1c0.1,0,0.2-0.1,0.3-0.1c0-0.1-0.1-0.2-0.1-0.3c0.3,0,0.5,0,0.6-0.1c0.1-0.1,0.2-0.3,0.2-0.4
			c0.1,0,0.2-0.1,0.5-0.1c0.2,0,0.4-0.1,0.5-0.1l0.1-0.2c0.1-0.1,0.2-0.1,0.3-0.1c-0.2-0.2-0.5-0.2-0.9-0.1h-0.3c0,0-0.1,0-0.1-0.1
			H102c-1,0.5-2.1,1.1-3.4,1.8c-0.4,0.2-0.9,0.4-1.3,0.6c-0.5,0.1-0.8,0.3-1,0.4c-0.4,0.2-0.5,0.6-0.3,1.1c0.1,0,0.2,0.1,0.2,0.1
			C96.2,24.3,96.4,24.4,96.6,24.4 M80.8,60h0.8c0,0,0-0.1,0.1-0.1c1.9,0,4.1-0.5,6.6-1.5c2.5-1.1,4.3-1.9,5.6-2.5v-0.1
			c0.3,0,0.5,0,0.6,0.1v-0.2c0.1,0,0.3,0,0.4,0c0.1,0,0.2-0.1,0.4-0.1v-0.1c0.1-0.1,0.3-0.2,0.5-0.2c0.2,0,0.4-0.1,0.5-0.2
			c0.1,0,0.3-0.1,0.6-0.1c0.3,0,0.3-0.1,0.2-0.2c0.7-0.1,1.5-0.5,2.5-1.1c1-0.6,1.9-0.9,2.7-0.9c0-0.2,0.1-0.3,0.4-0.3
			c0.3,0,0.4-0.1,0.5-0.2c0.1,0,0.3,0,0.4,0c0.1,0,0.2-0.1,0.4-0.1v-0.1h0.2h0.2c0-0.1,0-0.2,0-0.2c0-0.1,0-0.2,0-0.3h-0.1
			c0-0.2,0-0.3,0.1-0.4c0,0-0.1,0-0.1,0c-0.1,0-0.1,0.1-0.1,0.3h-0.2h-0.2V51v-0.1h-0.2c0.1,0.3,0.4,0.5,0.8,0.5v0.2
			c-0.4,0.1-0.8,0-1-0.6c0,0-0.1,0.1-0.1,0.3h-0.5c-0.2,0-0.3,0-0.3,0.1H102h-0.1v0.1c0,0-0.3,0.1-0.9,0.3c-0.5,0.2-1.2,0.4-1.8,0.7
			c-0.7,0.2-1.3,0.5-1.9,0.6c-0.6,0.2-0.9,0.2-0.9,0.1v0.3v0.2c-0.1,0-0.3,0-0.4,0.1V54h-0.2v-0.1c-0.1,0-0.3-0.1-0.6-0.1
			c0,0.1,0,0.2,0,0.2c0,0,0,0.1,0,0.1c-0.2,0-0.4,0.1-0.5,0.1c-0.1,0-0.3,0-0.4,0c0,0.1-0.6,0.4-1.6,0.8c-1,0.4-2.2,0.8-3.5,1.2
			c-1.3,0.4-2.6,0.8-3.7,1.2c-1.2,0.4-2,0.5-2.4,0.5v0.1c-0.7,0-1.2,0-1.5,0.1v0.2c-0.4,0-0.7,0-0.9-0.1c0,0-0.1-0.1-0.1-0.2h-0.1
			h-0.1c0,0,0.1,0.1,0.1,0.2c-1,0.2-1.7-0.2-2-1.3h0.1c-0.1-0.7,0.2-1.4,1.1-2.1c0.9-0.8,1.4-1.4,1.6-1.9h0.1h0.1
			c0-0.1,0.1-0.3,0.4-0.5c0.2-0.2,0.4-0.4,0.6-0.6h0.2c0.2-0.3,0.4-0.6,0.4-0.7h0.3V51v-0.1h0.2c0-0.1,0.1-0.3,0.2-0.5
			c0.2-0.2,0.3-0.3,0.5-0.3V50h0.1h0.1v-0.2c0.6-0.3,1.2-0.9,1.9-1.6c0.7-0.8,1.3-1.1,1.9-1.1v-0.2v-0.2c0.1-0.1,0.2-0.1,0.4-0.1
			v-0.1c0.1,0,0.5-0.2,0.9-0.6c0.5-0.3,0.8-0.6,0.9-0.7h0.1v-0.2v-0.1c0.1,0,0.2,0,0.3,0c0.1,0,0.2,0,0.4,0v-0.1
			c0.4-0.2,0.8-0.5,1-0.6c0.2-0.2,0.6-0.4,1.1-0.7c0,0,0-0.1-0.1-0.1h0.2h0.2v-0.2h0.3v-0.2c0.1,0,0.2,0,0.3,0
			c0.1,0,0.2-0.1,0.4-0.1c0.1-0.5,0.8-0.9,2-1.2c1.2-0.3,1.9-0.7,2.1-1.3h0.1c0.1-0.3,0.2-0.7,0.2-1.2h-0.1c0-0.5-0.4-0.8-1.1-0.7
			c0,0.1-0.1,0.2-0.1,0.2c-0.4,0.1-0.8,0.2-1.1,0.4c-0.3,0.2-0.7,0.3-1.1,0.3v0.1c-0.4,0-0.8,0.1-1.2,0.2c-0.4,0.1-0.8,0.2-1.2,0.2
			v0.2h-0.3h-0.2V40c-0.2-0.2-0.4-0.1-0.7,0.1c-0.8,0.3-1.8,0.7-3,1c-1.2,0.4-2.2,0.6-3.1,0.7c-1.6-0.1-2.2-0.4-1.9-0.8
			c0.1-0.1,0.2-0.3,0.2-0.4c0-0.1,0.2-0.2,0.4-0.3v-0.1c0.6-0.3,1-0.8,1.4-1.4c0.3-0.6,0.9-1.1,1.6-1.4c0,0-0.1,0-0.1-0.1
			c0.1,0,0.2-0.1,0.3-0.2c0,0,0.2,0,0.6-0.2v-0.3v-0.3h0.1v0.2v0.1c0.1,0.1,0.2,0.1,0.2,0.1c0-0.2,0.5-0.8,1.6-1.7
			c1-0.9,2.2-1.8,3.5-2.8c1.3-1,2.5-1.9,3.6-2.6c1.1-0.8,1.7-1.2,1.8-1.2l0.1-0.2c0,0,0.1-0.1,0.3-0.1V28c0.5,0,0.9-0.3,1.4-1
			c0.5-0.6,1-1,1.7-1v-0.2v-0.3h0.1c-0.2-0.6-0.9-0.7-2.2-0.4c-1.3,0.3-2,0.8-2,1.3h-0.1v-0.1c-0.1,0-0.3,0-0.4,0.1
			c0,0.1,0,0.2-0.1,0.2c0,0-0.1,0.1-0.1,0.2h0.1h0.2c0.1,0.2,0.1,0.5,0.1,0.8h-0.3h-0.2c0,0,0,0.1,0,0.2c0,0.1,0,0.2,0,0.2
			c-0.2,0-1.1,0.6-2.8,1.8c-1.7,1.1-3.5,2.5-5.4,4c-1.9,1.5-3.7,3-5.4,4.5c-1.7,1.5-2.6,2.6-2.7,3.3h0.1c-0.1,0.4,0.2,0.7,0.8,1
			c0.6,0.2,1.2,0.3,1.6,0.3V43c0.7,0.2,1.4,0.2,2.2,0.1c0.8-0.1,1.5-0.3,2.1-0.5v-0.2c0.4-0.1,0.9-0.2,1.4-0.3
			c0.5-0.1,0.9-0.2,1.4-0.2c0-0.1,0.4-0.2,1.3-0.4c0.9-0.2,1.4-0.3,1.6-0.4v-0.1h0.2H94c-0.1,0.2-0.5,0.5-1.3,0.9
			c-0.8,0.4-1.2,0.6-1.2,0.6v0.2c-0.2,0.1-0.6,0.4-1.1,0.8c-0.5,0.4-0.8,0.7-0.8,0.9c-0.4,0.1-0.8,0.2-1,0.2c0,0.1,0,0.1,0.1,0.1
			c-0.2,0-0.4,0-0.6,0.1v0.1c-0.2,0.1-0.6,0.4-1.2,0.9c-0.5,0.4-1.1,0.9-1.7,1.4c-0.6,0.5-1.1,0.9-1.5,1.4c-0.5,0.4-0.7,0.7-0.7,0.7
			c-0.2,0-0.3,0-0.4,0.1c-0.1,0.3-0.5,0.8-1.1,1.4c-0.6,0.6-1.3,1.2-2,1.8c-0.7,0.6-1.3,1.2-1.8,1.7c-0.5,0.5-0.7,0.9-0.6,1.2
			c0,0-0.1,0.1-0.2,0.1c0,0.2,0,0.4,0,0.5c0,0.2,0,0.3,0,0.5c-0.1,0-0.3,0-0.5,0.1c-0.3,0.4-0.3,0.8-0.1,1.2
			c0.2,0.4,0.4,0.6,0.6,0.7v0.1v0.1c0.6,0.1,1.1,0.3,1.6,0.5c0.5,0.2,1.1,0.4,1.7,0.5C80.5,60.1,80.7,60,80.8,60"/>
	</g>
	<polyline class="st1" points="81.6,18.8 81.6,3.7 179.1,3.7 179.1,18.8 	"/>
	<polyline class="st1" points="81.5,81.2 81.5,97 179.2,97 179.2,80.7 	"/>
</g>
</svg>
