<?xml version="1.0" encoding="utf-8"?>
<!-- Generator: Adobe Illustrator 22.0.1, SVG Export Plug-In . SVG Version: 6.00 Build 0)  -->
<svg version="1.1" id="Capa_1" xmlns="http://www.w3.org/2000/svg" xmlns:xlink="http://www.w3.org/1999/xlink" x="0px" y="0px"
	 viewBox="0 0 260 98.9" style="enable-background:new 0 0 260 98.9;" xml:space="preserve">
<style type="text/css">
	.st0{fill:#FFFFFF;}
	.st1{fill:none;stroke:#E66728;stroke-width:2;stroke-linecap:round;stroke-linejoin:round;}
	.st2{fill:#E66728;}
	.st3{fill:none;stroke:#E66728;stroke-width:1.5;stroke-linecap:round;stroke-linejoin:round;}
	.st4{clip-path:url(#SVGID_2_);fill:#E66728;}
	.st5{clip-path:url(#SVGID_2_);fill:#FFFFFF;}
	.st6{fill:none;stroke:#D25A2B;stroke-width:2.082;stroke-linecap:round;stroke-linejoin:round;}
	.st7{fill:none;stroke:#D25A2B;stroke-width:1.948;stroke-linecap:round;stroke-linejoin:round;}
	.st8{clip-path:url(#SVGID_4_);fill:#E66728;}
	.st9{clip-path:url(#SVGID_4_);fill:#FFFFFF;}
	.st10{clip-path:url(#SVGID_6_);fill:#E66728;}
	.st11{clip-path:url(#SVGID_6_);fill:#FFFFFF;}
	.st12{clip-path:url(#SVGID_8_);fill:#E66728;}
	.st13{clip-path:url(#SVGID_8_);fill:#FFFFFF;}
	.st14{fill:none;stroke:#D66F2C;stroke-width:1.594;stroke-linecap:round;stroke-linejoin:round;}
	.st15{clip-path:url(#SVGID_10_);fill:#FFFFFF;}
	.st16{clip-path:url(#SVGID_12_);fill:#FFFFFF;}
	.st17{clip-path:url(#SVGID_14_);fill:#FFFFFF;}
	.st18{fill:none;stroke:#D25A2B;stroke-width:1.906;stroke-linecap:round;stroke-linejoin:round;}
	.st19{fill:none;stroke:#DF6829;stroke-width:1.763;stroke-linecap:round;stroke-linejoin:round;}
	.st20{fill:none;stroke:#D25A2B;stroke-width:1.763;stroke-linecap:round;stroke-linejoin:round;}
</style>
<g>
	<g>
		<path class="st0" d="M164,75h1c1.1,0,1.8,0.5,1.8,1.6c0,0.8-0.5,1.7-1.8,1.7H164V75z M162.8,83.7h1.2v-4.4h0.6
			c0.9,0,1.3,0.3,1.5,1.1l1.1,3.3h1.3l-1.4-3.9c-0.2-0.6-0.5-0.8-1.1-0.9v0c1.4-0.3,1.9-1.3,1.9-2.3c0-0.7-0.2-1.4-0.7-1.9
			c-0.4-0.4-1-0.7-2-0.7h-2.5V83.7z M155.9,80.1l1.5-4.8h0l1.5,4.8H155.9z M156.8,74l-3.3,9.7h1.2l0.8-2.5h3.7l0.8,2.5h1.3l-3.2-9.7
			H156.8z M143.4,83.7h1.2v-8.4h0l2.6,8.4h0.9l2.8-8.4h0v8.4h1.2V74h-1.8l-2.5,7.7h0l-2.4-7.7h-1.9V83.7z M133.8,83.7h4.4v-1.1h-3.2
			V74h-1.2V83.7z M127.1,83.7h4.7v-1.1h-3.5v-3.5h3.1v-1.1h-3.1v-3.1h3.3V74h-4.5V83.7z M119.9,75.1h0.7c2.4,0,3.3,1.6,3.3,3.6
			c0,2.5-1.1,4-3.3,4h-0.7V75.1z M118.7,83.7h1.5c3.6,0,5-2.2,5-5c0-2.2-0.9-3.4-1.8-4c-0.6-0.4-1.3-0.7-2.6-0.7h-2.1V83.7z
			 M108.3,80.1l1.5-4.8h0l1.5,4.8H108.3z M109.3,74l-3.3,9.7h1.2l0.8-2.5h3.7l0.8,2.5h1.3l-3.2-9.7H109.3z M102.7,71.7
			c-0.1,0.4-0.2,0.6-0.5,0.6c-0.1,0-0.2,0-0.5-0.2c-0.6-0.3-0.8-0.3-1.1-0.3c-0.8,0-1.2,0.5-1.3,1.5h0.7c0-0.4,0.3-0.6,0.5-0.6
			c0.1,0,0.2,0,0.7,0.2c0.5,0.3,0.7,0.3,1,0.3c0.7,0,1-0.6,1.2-1.5H102.7z M98.2,83.7h1.2v-8h0l3.7,8h1.5V74h-1.2v8h0l-3.7-8h-1.5
			V83.7z M94.5,83.7h1.2V74h-1.2V83.7z M88.8,83.7H90l3-9.7h-1.2l-2.4,7.9h0L87.2,74h-1.3L88.8,83.7z"/>
		<path class="st0" d="M200.6,41.6L200.6,41.6c-0.2-0.2-0.2-0.3,0-0.6c0.1-0.1,0.3-0.2,0.5-0.2c0.2,0,0.4,0,0.7-0.1
			c0-0.1,0.2-0.2,0.7-0.2c0.1,0.2,0.2,0.3,0.3,0.4c0.1,0.1,0.1,0.3,0.1,0.6c-0.2,0.2-0.5,0.4-0.8,0.4c-0.3,0-0.6,0.1-0.8,0.1
			C201.1,42,200.8,41.9,200.6,41.6 M192.6,53.8c0.5-1.3,1-2.5,1.7-3.8c0.7-1.2,1.3-2.3,2-3.3c0.6-1,1.1-1.7,1.5-2.1
			c0.1-0.1,0.3-0.2,0.5-0.3c0.2-0.1,0.4-0.2,0.6-0.3c0.7,0.1,1.5,0.2,2.4,0c0.9-0.1,1.4-0.3,1.7-0.5c-0.4,2.2-1.1,4.1-2.1,5.8
			c-1,1.7-2,3.1-3.1,4.3c-1.1,1.2-2,2-2.9,2.6c-0.9,0.5-1.4,0.7-1.5,0.5c-0.2,0-0.4,0-0.5,0.1v0.1c-0.3,0-0.5,0.1-0.8,0.2
			C191.9,56.2,192.1,55.1,192.6,53.8 M191.8,58.8c0.2,0,0.4-0.2,0.6-0.5c0.1,0,0.3,0,0.6,0c0.2,0,0.4-0.1,0.4-0.2
			c0.9-0.1,2.1-0.9,3.7-2.3c1.6-1.4,2.3-2.3,2.3-2.8c0.1-0.1,0.2-0.2,0.4-0.3v-0.1c0.1-0.1,0.3-0.2,0.5-0.2v-0.2c0,0-0.1,0-0.1-0.1
			c0,0-0.1-0.1-0.1-0.1h0.1h0.1v-0.1c0.1-0.1,0.3-0.2,0.4-0.2c0.7-1,1.3-2.1,1.8-3.4c0.5-1.3,0.9-2.5,1.3-3.4l-0.1-0.1
			c0.1-0.3,0.3-0.6,0.4-1c0.1-0.4,0.2-0.7,0.4-1c1.4-0.3,2.6-0.9,3.5-1.8c0.9-0.9,2.6-1.4,5-1.4c0.1,0.6,0.4,0.7,0.9,0.4
			c0.4-0.1,0.6-0.3,0.7-0.4c0.1-0.1,0-0.3-0.3-0.6c-0.4-0.3-0.8-0.4-1.2-0.5c-0.4,0-0.8,0-1.1,0l-0.2,0.2c-0.7,0.1-1.5,0.4-2.2,0.6
			c-0.8,0.3-1.5,0.6-2.2,0.9c-0.6,0.2-1.1,0.4-1.6,0.5c-0.5,0.1-1,0.2-1.4,0.2c0-0.4-0.1-0.8-0.4-1.2c-0.2-0.4-0.5-0.7-0.8-0.7
			c-0.9,0-2,0.1-3.1,0.4c-1.1,0.3-1.9,0.8-2.3,1.7c-0.3,0.6-0.5,0.9-0.6,0.9c-0.1,0-0.1,0.5,0,1.2c-0.2,0.2-0.4,0.6-0.6,1
			c-0.2,0.4-0.4,0.6-0.6,0.7c0,0.1,0.1,0.3,0.1,0.5h-0.1h-0.1c-0.2,0.9-0.8,2-1.8,3.3c-1,1.4-1.7,2.6-2.2,3.7
			c-0.4,0.9-0.7,1.6-0.8,2.2c-0.2,0.6-0.3,1.2-0.5,1.9c-0.1,1.2,0,2,0.6,2.4C191.4,58.9,191.6,58.8,191.8,58.8 M179.2,45.1
			c-0.2,0-0.4-0.1-0.4-0.2c0-0.1,0.1-0.1,0.2-0.1C179,44.9,179.1,45,179.2,45.1 M183.6,44.4l-0.1-0.1h0.2h0.2c0,0,0.1,0,0.1,0.1
			h-0.2H183.6z M177.3,51.8h0.1V52v0.1h-0.1h-0.1C177.2,52,177.2,51.9,177.3,51.8 M174.5,57.9c0.5-0.9,1.3-2.2,2.2-3.6
			c0.3-0.5,0.6-0.8,0.8-1.1c0.2-0.2,0.5-0.6,1-1.2c0.9-1.2,1.8-2.4,2.7-3.5c0.9-1.2,1.7-2.1,2.4-2.9c0.3-0.3,0.8-0.9,1.7-1.8
			c0.8-0.9,1.6-1.5,2.2-1.8c0.2,0,0.3,0,0.4-0.1c0,0.7-0.5,1.9-1.4,3.6c-0.9,1.7-1.5,2.9-1.9,3.7c-0.2,0.4-0.5,1-0.9,1.8
			c-0.4,0.9-0.7,1.6-1,2.3v0.1l-0.1,0.1l-0.1,0.1c0,0.2-0.1,0.4-0.2,0.5v0.2v0.2c0,0-0.1,0.1-0.1,0.3c0,0.2-0.1,0.4-0.2,0.5
			c0,0.2,0.1,0.3,0.2,0.3c-0.3,0.8-0.1,1.5,0.6,2.2c0.5,0,1,0,1.6,0c0.1,0,0.4-0.1,0.9-0.3c0.5-0.2,0.9-0.4,1.4-0.6
			c0.1,0,0.3-0.2,0.6-0.3c0.2-0.2,0.4-0.3,0.5-0.5c0.3-0.1,0.5-0.2,0.7-0.4c0.1,0,0.2-0.1,0.3-0.2c0.1-0.1,0.2-0.2,0.4-0.3
			c-0.1,0-0.2,0.1-0.4,0.3c-0.1-0.1-0.1-0.2,0-0.2c0.3-0.3,0.5-0.3,0.8-0.1c0-0.3,0.2-0.6,0.5-0.7c-0.1,0-0.4,0.2-0.6,0.5
			c-0.1-0.1-0.1-0.2-0.1-0.3c0.1,0,0.4-0.1,0.8-0.3v-0.2V54h0.3c0,0,0-0.1,0.1-0.1c0,0,0.1-0.1,0.1-0.1c0.3-0.1,0.4-0.2,0.3-0.2
			v-0.1v-0.1h0.4c-0.2-0.1-0.4-0.1-0.6,0c-0.2,0.1-0.4,0.3-0.6,0.4c-0.7,0.6-1.6,1.1-2.5,1.6c-1,0.5-1.6,0.8-2,0.9
			c-0.5,0.1-0.8,0.1-1,0c-0.1-0.1-0.2-0.2-0.2-0.2c0-0.1-0.1-0.3-0.2-0.4c0-0.1,0-0.4,0-1c0-0.5,0.3-1.3,0.6-2.3
			c0.7-1.7,1.6-3.6,2.8-5.7c1.2-2.1,2.2-4.3,3-6.5v-0.4c0-0.2-0.1-0.5-0.4-0.7c-0.3-0.3-0.6-0.5-1-0.5c-0.4,0.1-0.7,0.2-0.9,0.4
			c0,0-0.3,0.2-0.7,0.7c-0.4,0.5-0.9,1-1.4,1.5c-0.5,0.6-1,1.1-1.4,1.6c-0.5,0.5-0.7,0.8-0.7,0.8v0.4h0.1h0.1c0,0.1-0.1,0.2-0.1,0.2
			c-0.1-0.1-0.3-0.1-0.5-0.1c-1,1.2-1.8,2.1-2.3,2.7c-0.5,0.6-1.6,2.1-3.2,4.7v0.2c0,0.1-0.1,0.1-0.2,0.1h-0.1
			c0.6-2.6,1.4-4.8,2.4-6.8c1-2,1.8-3.8,2.2-5.5c0-0.3-0.2-0.5-0.7-0.6c-0.5-0.1-0.8,0.1-1,0.5c0,0.6-0.3,1.1-0.8,1.7
			c-0.8,1.1-1.9,2-3.2,2.8c-1.3,0.8-2.4,1.2-3.3,1.2c-1.2-0.3-1.8,0.1-1.8,1.3c0,0.2,0.3,0.4,0.8,0.5c1.2,0.2,2.4-0.1,3.4-0.9
			c0.9-0.7,2.1-1.6,3.5-2.6c-0.4,2.1-1.1,4.1-2.1,5.8c-0.9,1.7-2.3,4.1-4,7.1c-0.1,0.1-0.2,0.3-0.2,0.5c0,0.2-0.1,0.4-0.1,0.5
			c-0.1,0.5,0.1,0.8,0.7,0.9C173.8,58.1,174.1,58,174.5,57.9 M155.6,47.8h0.1c0-0.1,0-0.3,0.1-0.4h-0.2v0.2V47.8z M166.2,45.6
			c-0.5,0.9-0.7,1.2-0.7,1.1c-0.1,0.2-0.2,0.3-0.2,0.4c0,0-0.1,0.1-0.2,0.1v0.2c-0.2,0-0.4,0-0.6,0c0,0.1,0,0.2-0.1,0.3
			c0,0.1-0.1,0.2-0.1,0.2c-0.4,0.6-1,1.4-1.7,2.2c-0.8,0.9-1.6,1.7-2.6,2.6c-0.9,0.9-1.8,1.6-2.7,2.3c-0.9,0.7-1.7,1.1-2.3,1.2
			c-0.3,0.1-0.6,0.1-0.9,0.1c-0.3,0-0.5-0.1-0.6-0.3c0-0.9,0.4-2.2,1.2-3.8c0.7-1.6,1.6-3.3,2.7-5c1.4-2.3,2.9-4.3,4.7-6.1
			c1.7-1.8,3.2-2.7,4.5-2.5c0.5,0,1,0.3,1.5,0.9c0,0.1,0,0.2,0.1,0.2l0.1,0.1c0,0.4-0.3,0.8-0.8,1.1c-0.5,0.4-0.8,0.9-0.8,1.4
			c0,0.3,0.3,0.5,0.8,0.6C167.1,43.8,166.6,44.7,166.2,45.6 M155.9,57.6c0.9-0.4,1.8-1,2.7-1.8c0.9-0.8,1.8-1.6,2.7-2.6
			c0.9-0.9,1.6-1.8,2.3-2.6c0.3-0.4,0.6-0.8,0.9-1.3c0.3-0.5,0.6-1,0.7-1.6c0,0.2-0.1,0.4-0.2,0.6c-0.1,0.2-0.1,0.4-0.1,0.5l-0.4,1
			c-0.1,0.4-0.3,1-0.5,1.6c-0.3,0.7-0.5,1.3-0.6,1.9h-0.1c0,0.1,0,0.4-0.1,0.6v0.1v0.1v0.2c-0.1,0-0.2,0.1-0.2,0.1l0.1,0.2v0.4v0.4
			c0,0.3,0.1,0.6,0.2,0.9c0.1,0.3,0.3,0.5,0.5,0.6c0.6,0.1,1.1,0.1,1.5,0c0.1,0,0.5-0.1,0.9-0.3c0.5-0.2,0.9-0.4,1.4-0.6
			c0.1,0,0.3-0.1,0.6-0.3c0.3-0.2,0.4-0.4,0.5-0.5c0.3-0.1,0.5-0.3,0.6-0.4c0,0,0.1-0.1,0.3-0.2c0.1-0.1,0.3-0.2,0.5-0.3
			c-0.1,0-0.3,0-0.4,0.1c-0.1,0.1-0.2,0.1-0.2,0.1c-0.1-0.1-0.1-0.1,0-0.1c0.4-0.2,0.7-0.3,0.9-0.1c0-0.3,0.2-0.6,0.5-0.7
			c-0.1,0-0.4,0.2-0.6,0.5c0-0.1-0.1-0.2-0.1-0.3c0.1,0,0.3-0.1,0.4-0.1c0.1,0,0.2-0.1,0.4-0.2c0-0.1,0-0.2,0-0.3h0.2h0.2
			c0-0.1,0.1-0.2,0.2-0.3c0-0.1,0.1-0.2,0.1-0.2v-0.1v-0.1h0.2h0.2c-0.2-0.1-0.5-0.1-0.7,0c-0.2,0.1-0.4,0.3-0.6,0.4
			c-0.7,0.6-1.6,1.1-2.5,1.6c-1,0.5-1.6,0.8-2,0.9c-0.6,0.1-0.9,0.1-1,0c-0.1-0.1-0.2-0.2-0.2-0.2v-0.1l0.1-0.1
			c-0.1-0.3-0.2-0.7,0-1.2c0.1-0.5,0.3-1.2,0.5-1.9c0.3-1.2,0.7-2.4,1.2-3.6c0.5-1.2,0.8-1.8,1-1.8c0-0.3,0.1-0.6,0.2-1
			c0.2-0.4,0.2-0.7,0.2-1.2c0.1,0,0.2,0,0.2,0c0,0,0.1,0,0.2,0v-0.2v-0.2h0.1h0.1c0-0.1,0.1-0.4,0.2-0.7c0.1-0.3,0.2-0.7,0.4-1.1
			c0.3-0.6,0.5-1.3,0.7-2c0.2-0.7,0-1.1-0.4-1.1c-0.4,0-0.7,0-0.9-0.1c-0.1,0-0.1-0.1-0.1-0.3c0-0.4-0.3-0.6-0.8-0.7
			c-0.6,0-1.2,0-2,0.2c-0.8,0.2-1.2,0.4-1.2,0.5c-0.7-0.2-2,0.6-4,2.5c-1.9,1.8-3.5,3.8-4.7,5.9h-0.2c-0.2,0.2-0.3,0.3-0.2,0.3
			c0.3,0.2,0.5,0.3,0.5,0.4c-0.2,0.1-0.4,0.2-0.5,0.3c-0.1,0.1-0.3,0.1-0.4,0.1c0,0,0,0.1,0.1,0.1l-0.1,0.4h0.1
			c0,0.2-0.1,0.3-0.4,0.3c-0.8,1-1.4,2.5-2,4.5c-0.6,2-0.8,3.1-0.6,3.1c0,0.3,0.1,0.6,0.4,0.7c0.3,0.1,0.4,0.3,0.4,0.4
			c0.1,0,0.2,0,0.2-0.1c0-0.1,0.1-0.1,0.2-0.1v0.3v0.2C154.2,58.1,155,58,155.9,57.6 M151.7,37.8c0.9,0,1.3-0.4,1.3-1.1
			c0.1-0.5,0-0.8-0.4-1c-0.3-0.1-0.4-0.3-0.4-0.4c-0.8-0.1-1.4,0-1.7,0.2c-0.6,0.2-0.8,0.7-0.4,1.6
			C150.3,37.6,150.8,37.9,151.7,37.8 M143.1,57.6c0.1,0.1,0.2,0.2,0.3,0.3c0.5,0,1,0,1.6,0c0.1,0,0.4-0.1,0.9-0.3
			c0.5-0.2,0.9-0.4,1.3-0.6c0.1,0,0.3-0.2,0.6-0.3c0.3-0.2,0.4-0.3,0.5-0.5c0.1,0,0.3,0,0.4-0.1c0.1-0.1,0.2-0.2,0.4-0.2
			c0,0,0.2-0.1,0.3-0.2c0.2-0.1,0.3-0.3,0.5-0.4c-0.1,0-0.3,0-0.4,0.1c-0.1,0.1-0.2,0.1-0.2,0.1c-0.2,0-0.2,0,0-0.1
			c0.1,0,0.2,0,0.4-0.1c0.2-0.1,0.3-0.1,0.4-0.1c0.1-0.3,0.3-0.5,0.5-0.6c-0.4,0.1-0.6,0.3-0.6,0.6c0-0.1-0.1-0.2-0.1-0.3
			c0.4-0.2,0.7-0.3,0.8-0.4c0-0.1,0-0.2,0-0.2c0.1,0,0.2-0.1,0.2,0c0,0,0.1,0,0.2,0c0,0,0-0.1,0.1-0.2c0.1-0.1,0.1-0.1,0.1-0.2
			c0-0.1,0.1-0.2,0.1-0.2v-0.1c0.2,0,0.3,0,0.4-0.1c-0.2-0.1-0.4-0.1-0.6,0c-0.2,0.2-0.4,0.3-0.6,0.5c-0.8,0.5-1.6,1-2.6,1.6
			c-1,0.6-1.6,0.9-2,1c-0.3,0-0.6,0.1-1,0.1c-0.4,0-0.6,0-0.8-0.1c-0.1-0.1-0.1-0.3-0.1-0.5c0-0.2,0-0.4,0-0.5
			c0.1-0.8,0.5-1.7,1-2.8c0.5-1.1,1.1-2.5,1.8-4.1c0.7-1.5,1.4-2.9,2.1-4.2c0.7-1.3,1.2-2,1.6-2.2v-0.1c0.2-0.1,0.4-0.5,0.6-0.9
			c0.2-0.5,0.3-0.9,0.3-1.2c-0.1-0.5-0.6-0.8-1.4-0.8c-0.6,0-0.9,0.2-1.1,0.6c-0.2,0.4-0.2,0.7-0.2,0.8c0,0.1-0.3,1-1,2.7
			c-0.7,1.6-1.4,3.4-2.2,5.3c-0.9,1.9-1.8,4-2.9,6.3c-0.3,0.7-0.4,1.3-0.2,1.8c0,0-0.1,0.2-0.1,0.4c0.2,0,0.3,0,0.4,0.1v0.1
			c0,0.1,0.1,0.2,0.3,0.3C143,57.4,143,57.5,143.1,57.6 M141.4,36.4c0.1-0.2,0.2-0.4,0.2-0.5c-0.1,0.2-0.3,0.3-0.4,0.4
			c-0.1,0.1-0.1,0.2-0.1,0.4C141.2,36.7,141.3,36.6,141.4,36.4 M135,50L135,50L135,50z M141.2,36.8c-0.1,0-0.2,0.1-0.3,0.2
			L141.2,36.8z M140.1,39l-0.1,0.1C140.1,39.1,140.1,39,140.1,39 M139.8,39.7c-0.2,0-0.4,0.2-0.4,0.6
			C139.7,40,139.8,39.8,139.8,39.7 M139.4,40.7c0-0.1,0-0.2,0-0.3c0,0-0.1,0-0.1-0.1c0,0.1-0.1,0.3-0.1,0.4l0.1,0.1L139.4,40.7z
			 M139,41.4c-0.1,0.1-0.1,0.2-0.1,0.2L139,41.4z M137.7,44.4h0.1c0.2-0.3,0.3-0.7,0.2-1.1c0,0.2-0.1,0.4-0.2,0.5
			C137.8,44,137.7,44.2,137.7,44.4 M136.7,46.4h0.2v-0.2h-0.2V46.4z M136.4,47.7c0-0.1,0-0.2,0.1-0.2c0,0,0.1-0.1,0.1-0.2h-0.3
			c0,0.2,0,0.4-0.1,0.5H136.4z M135.1,50.6h0.1c0-0.2,0.1-0.4,0.2-0.6c0.1-0.2,0.1-0.3,0.2-0.5C135.4,49.7,135.2,50.1,135.1,50.6
			 M123.4,47.6h0.2v-0.1v-0.1c-0.1,0-0.2,0-0.3-0.1C123.4,47.3,123.4,47.4,123.4,47.6 M139.6,35.5l-0.1-0.1c0.1-0.1,0.2-0.1,0.3-0.1
			c0,0,0,0.1,0.1,0.1L139.6,35.5z M134.2,48.1c-0.2,0.6-0.4,1.1-0.5,1.5c-0.5,0.9-1.3,2-2.4,3.4c-1.1,1.4-2.2,2.4-3.4,2.9
			c-1,0.5-1.9,0.7-2.8,0.7c-0.9,0-1.6-0.5-2.1-1.5c-0.4-0.9-0.5-2.1-0.1-3.6c0.4-1.5,0.9-2.9,1.6-4.2c1.3-2.3,2.9-4.4,4.9-6.4
			c2-1.9,3.7-2.8,5.1-2.7c0.6,0.2,1.1,0.5,1.4,1c0,0,0.1,0,0.1,0c0,0,0.1,0,0.1,0c0,0,0,0.1,0.1,0.2c0.1,0.3-0.1,0.6-0.7,1
			c-0.5,0.4-0.8,0.9-0.8,1.4c0,0.4,0.3,0.7,0.8,0.7h0.1h0.2c-0.1,0.2-0.2,0.4-0.2,0.6c0,0.2-0.1,0.4-0.1,0.5
			c-0.1,0.2-0.2,0.5-0.3,0.9c-0.1,0.3-0.2,0.7-0.4,1.1c0,0-0.1,0.1-0.1,0.1c0,0.1,0,0.3,0.1,0.4c0,0-0.1,0.1,0,0.1h-0.2
			c0,0.1-0.1,0.2-0.1,0.3h0.1c0,0.2-0.1,0.3-0.3,0.4l-0.1,0.4v0.1h-0.1l-0.1,0.4v0.1l-0.4,1.1C133.9,48.7,134,48.5,134.2,48.1
			L134.2,48.1z M139.5,39.2c0.1-0.2,0.2-0.4,0.3-0.6c0.4-0.6,0.7-1.2,1-1.8c0.2-0.4,0.4-0.8,0.6-1.1c0.2-0.4,0.4-0.8,0.6-1.1
			c0.6-1.2,1.4-2.3,2.2-3.2c0.4-0.5,0.6-0.9,0.6-1.2v-0.9c0.1-0.3-0.1-0.5-0.8-0.5c-0.7-0.1-1.2,0.2-1.5,0.7
			c-0.2,0.3-0.4,0.6-0.7,0.9c-0.3,0.3-0.4,0.7-0.4,1.1l-0.4,0.4c-0.1,0.6-0.4,1.1-0.7,1.7c-0.4,0.6-0.7,1.1-0.9,1.6
			c0,0.1-0.1,0.2-0.1,0.3c0,0.1-0.1,0.2-0.1,0.2c-0.2,0.5-0.5,1-0.7,1.6c-0.3,0.5-0.5,1-0.7,1.5c-0.2,0-0.6-0.1-1.1-0.1
			c0-0.1-0.1-0.2-0.1-0.4c0-0.3-0.3-0.5-0.8-0.6c-0.6-0.1-1.3-0.1-2.1,0.1c-0.8,0.2-1.2,0.4-1.2,0.5c-0.7-0.1-2.1,0.7-4.1,2.5
			c-2,1.8-3.6,3.8-4.7,5.9h-0.1c0,0.1-0.1,0.2-0.3,0.3c0.4,0.1,0.6,0.3,0.6,0.4c-0.4,0.2-0.7,0.4-1,0.4c0,0.1,0.1,0.1,0.2,0.1
			c0,0,0,0.1-0.1,0.2c0,0.1-0.1,0.2-0.1,0.2h0.1c0,0.2,0,0.3-0.1,0.2c-0.1,0-0.2-0.1-0.2-0.1c-0.7,1-1.2,2.1-1.4,3.1
			c-0.2,1-0.3,2-0.3,2.8c0.2,1.4,0.8,2.3,1.7,2.8c0.1,0,0.2,0,0.2-0.1c0,0,0.1-0.1,0.2-0.1c0,0,0.1,0.2,0.1,0.4
			c0.6,0.3,1.3,0.4,2.3,0.4c1.4,0,2.8-0.8,4.2-2.2c1.4-1.4,2.5-2.9,3.4-4.4c-0.1,0.2-0.2,0.5-0.3,0.6c0,0.2-0.1,0.4-0.1,0.6
			l-0.3,0.5l-0.4,1.4c0,0.2,0,0.6,0.1,1.2c0,0.6,0.3,1,0.8,1.2c0.5,0.1,1.1,0.1,1.6,0c0.1,0,0.4-0.1,0.8-0.3
			c0.4-0.2,0.9-0.4,1.3-0.6c0.1,0,0.3-0.1,0.6-0.3c0.3-0.1,0.4-0.3,0.5-0.5c0.2-0.2,0.4-0.3,0.6-0.4c0,0,0.1-0.2,0.3-0.3
			c0.1-0.2,0.3-0.3,0.5-0.3c-0.1,0-0.3,0-0.4,0.1c-0.1,0.1-0.2,0.1-0.2,0.1c-0.1-0.1-0.1-0.2,0-0.2c0.1,0,0.2,0,0.4-0.1
			c0.2,0,0.3-0.1,0.4-0.1c0.2-0.4,0.4-0.6,0.6-0.7c-0.4,0.1-0.6,0.4-0.6,0.6c0-0.1-0.1-0.3-0.1-0.4c0.4-0.2,0.7-0.3,0.8-0.4
			c0-0.1,0-0.3,0-0.4h0.4c0-0.1,0.1-0.2,0.1-0.3c0,0,0.1,0,0.1-0.1c0,0,0.1-0.1,0.1-0.1v-0.1v-0.1c0,0,0.1,0,0.2,0
			c0.1,0,0.2,0,0.2,0c-0.2-0.1-0.5-0.1-0.7,0.1c-0.2,0.2-0.4,0.3-0.5,0.4c-0.8,0.5-1.6,1.1-2.6,1.6c-1,0.6-1.6,0.9-2,0.9
			c-0.1,0-0.3,0.1-0.4,0.1c-0.3,0-0.6-0.2-0.7-0.5c-0.1-0.6,0-1.6,0.3-3c0,0,0-0.1,0.1-0.2v-0.1c0.2-1.2,0.5-2.4,0.9-3.4
			c0.4-1.1,0.6-1.7,0.7-1.8c0-0.2,0.1-0.5,0.4-0.9c0.3-0.4,0.4-0.7,0.4-1.2c0.2,0,0.3,0,0.4-0.1v-0.4h0.1h0.1c0-0.1,0.2-0.7,0.6-1.8
			c0.1-0.3,0.2-0.7,0.4-1c0.2-0.3,0.3-0.7,0.4-1C139.3,39.6,139.4,39.4,139.5,39.2 M120.5,37.8c0.9,0,1.3-0.4,1.3-1.1
			c0.1-0.5,0-0.8-0.4-1c-0.3-0.1-0.4-0.3-0.4-0.4c-0.8-0.1-1.4,0-1.7,0.2c-0.6,0.2-0.8,0.7-0.4,1.6
			C119.1,37.6,119.6,37.9,120.5,37.8 M111.9,57.6c0.1,0.1,0.2,0.2,0.3,0.3c0.5,0,1,0,1.6,0c0.1,0,0.5-0.1,0.9-0.3
			c0.5-0.2,0.9-0.4,1.3-0.6c0.1,0,0.3-0.2,0.6-0.3c0.3-0.2,0.4-0.3,0.5-0.5c0.1,0,0.3,0,0.4-0.1c0.1-0.1,0.2-0.2,0.4-0.2
			c0,0,0.2-0.1,0.3-0.2c0.2-0.1,0.3-0.3,0.5-0.4c-0.1,0-0.3,0-0.4,0.1c-0.1,0.1-0.2,0.1-0.2,0.1c-0.2,0-0.2,0,0-0.1
			c0.1,0,0.2,0,0.4-0.1c0.2-0.1,0.3-0.1,0.4-0.1c0.1-0.3,0.3-0.5,0.5-0.6c-0.4,0.1-0.6,0.3-0.6,0.6c0-0.1-0.1-0.2-0.1-0.3
			c0.4-0.2,0.7-0.3,0.8-0.4c0-0.1,0-0.2,0-0.2c0.1,0,0.2-0.1,0.2,0c0,0,0.1,0,0.2,0c0,0,0-0.1,0.1-0.2c0.1-0.1,0.1-0.1,0.1-0.2
			c0-0.1,0.1-0.2,0.1-0.2v-0.1c0.2,0,0.3,0,0.4-0.1c-0.2-0.1-0.4-0.1-0.6,0c-0.2,0.2-0.4,0.3-0.6,0.5c-0.8,0.5-1.6,1-2.6,1.6
			c-1,0.6-1.6,0.9-2,1c-0.3,0-0.6,0.1-1,0.1c-0.4,0-0.6,0-0.8-0.1c-0.1-0.1-0.1-0.3-0.1-0.5c0-0.2,0-0.4,0-0.5
			c0.1-0.8,0.5-1.7,1-2.8c0.5-1.1,1.1-2.5,1.8-4.1c0.7-1.5,1.4-2.9,2.1-4.2c0.7-1.3,1.2-2,1.6-2.2v-0.1c0.2-0.1,0.4-0.5,0.6-0.9
			c0.2-0.5,0.3-0.9,0.3-1.2c-0.1-0.5-0.6-0.8-1.4-0.8c-0.6,0-0.9,0.2-1.1,0.6c-0.2,0.4-0.2,0.7-0.2,0.8c0,0.1-0.3,1-1,2.7
			c-0.7,1.6-1.4,3.4-2.2,5.3c-0.9,1.9-1.8,4-2.9,6.3c-0.3,0.7-0.4,1.3-0.2,1.8c0,0-0.1,0.2-0.1,0.4c0.2,0,0.3,0,0.4,0.1v0.1
			c0,0.1,0.1,0.2,0.3,0.3C111.8,57.4,111.8,57.5,111.9,57.6 M100.2,45c-0.2,0-0.4-0.1-0.4-0.3h0.2C100.1,44.9,100.1,44.9,100.2,45
			 M104.2,44.2h0.4v0.1h-0.2C104.2,44.3,104.1,44.2,104.2,44.2 M98.4,51.2h0.1v0.2h-0.2C98.4,51.3,98.4,51.2,98.4,51.2 M99.2,46.8
			c-0.1,0-0.2,0-0.3,0.1c0-0.1,0.1-0.3,0.2-0.4c0,0,0.1-0.1,0.2-0.1C99.3,46.6,99.3,46.7,99.2,46.8 M95.3,57.9
			c0.2-0.4,0.5-0.9,0.8-1.5c0.4-0.6,0.7-1.2,1.2-1.8c0.3-0.5,0.7-1,1.1-1.5c0.4-0.5,0.8-1,1.1-1.6c0.9-1.1,1.7-2.3,2.5-3.4
			c0.8-1.1,1.6-2,2.2-2.7c0.3-0.3,0.8-0.9,1.6-1.7c0.8-0.8,1.5-1.4,2.1-1.6c0,0,0.2-0.1,0.4-0.1c0,0.1-0.2,0.6-0.4,1.4
			c-0.6,0.7-0.5,1.2,0.1,1.5c0.2,0.2,0.5,0.1,0.9-0.4c0.4-0.5,0.5-0.8,0.2-1.1c0.1-0.1,0.2-0.5,0.4-0.9c0.1-0.4,0.3-0.8,0.5-1.1
			c0.2-0.4,0.4-0.8,0.6-1.1v-0.4c0-0.2-0.1-0.4-0.4-0.6c-0.4-0.4-0.7-0.6-1-0.6c-0.1,0.1-0.3,0.2-0.5,0.2c-0.2,0-0.3,0.1-0.4,0.3
			c-0.8,0.9-1.4,1.5-1.8,2.1c-0.5,0.5-0.9,1-1.3,1.5c-0.4,0.5-0.7,0.7-0.7,0.8v0.3h0.1c0,0-0.1,0-0.1,0.1c-0.1,0-0.3-0.1-0.4-0.1
			l-2.2,2.6c-0.5,0.6-1.5,2-2.9,4.3V51c0,0,0,0.1-0.1,0.1h-0.1c0.5-2.4,1.3-4.5,2.3-6.4c1-1.8,1.7-3.5,2.1-5.1
			c0-0.3-0.2-0.5-0.7-0.6c-0.5-0.1-0.8,0-1,0.4c-0.1,0.8-0.5,1.5-1.1,2.2c-0.8,0.7-1.8,1.1-3,1.1c-1-0.3-1.6,0.1-1.6,1.3
			c0,0.2,0.2,0.4,0.7,0.5c1.2,0,2.3-0.3,3.1-0.9l0.5-0.4c-0.2,1.3-0.7,2.8-1.6,4.5l0.2-0.1c0,0.1,0,0.3-0.1,0.4h-0.1V48
			c0,0.2-0.1,0.4-0.3,0.4c-0.1,0.2-0.2,0.5-0.4,0.7c0.1,0,0.3-0.1,0.4-0.3c0,0.3-0.2,0.5-0.3,0.6c-0.2,0.1-0.3,0.3-0.5,0.5h-0.1
			c-0.3,0.7-0.6,1.2-0.9,1.5c0,0.2,0,0.3-0.1,0.4h-0.2l-0.4,0.9l0.1-0.1c0,0.1-0.1,0.3-0.1,0.4h-0.1l-0.1,0.1c0,0.1,0,0.3-0.1,0.4
			h-0.1l-0.4,0.7c0,0,0.2-0.1,0.5-0.3c-0.1,0.3-0.2,0.5-0.4,0.6c-0.2,0.1-0.3,0.3-0.4,0.5h-0.3l-0.5,0.9c-0.1,0.1-0.3,0.5-0.4,1
			c0,0.5,0.2,0.8,0.6,0.9C94.5,58.1,94.9,58,95.3,57.9 M80.4,47.6h0.1v-0.2v-0.2h-0.2c0,0,0,0.1,0,0.1
			C80.4,47.4,80.4,47.5,80.4,47.6 M92.2,40.3c-0.2,1.6-1,3-2.3,4.2c-0.8,0.8-1.7,1.4-2.7,1.9c-1,0.5-1.6,0.7-1.9,0.8
			c-1,0.3-1.8,0.4-2.1,0.2c-0.4-0.1-0.4-0.8-0.1-1.9h0.2l-0.1-0.1c0,0,0.1,0,0.1-0.1c0,0,0.1-0.2,0.1-0.4c0,0,0.1,0,0.1-0.1
			c0,0,0-0.1,0.1-0.2c0-0.1,0.1-0.1,0.1-0.2c0-0.1,0-0.1,0.1-0.1v-0.3h0.3C84,44,84,43.9,83.9,43.9c0.1-0.1,0.3-0.3,0.4-0.5
			c0.1-0.2,0.3-0.4,0.5-0.5l-0.1-0.1h0.1h0.1c0-0.3,0.2-0.7,0.7-1.2c0.5-0.5,0.9-0.8,1.2-1c-0.1,0-0.1,0-0.1-0.1
			c0.1,0,0.2,0,0.2-0.1c0.1-0.1,0.2-0.1,0.3-0.2v-0.3l-0.1-0.1c0.1,0,0.2-0.1,0.3-0.2c0.1-0.1,0.2-0.2,0.4-0.3
			c0.6-0.4,1-0.6,1.4-0.8h0.1c0.4-0.2,0.9-0.3,1.4-0.2C91.9,38.1,92.5,38.7,92.2,40.3 M85.7,55.9c-1,0.4-1.9,0.6-2.8,0.6
			c-0.9,0-1.6-0.5-2.2-1.5c-0.6-0.9-0.7-2-0.4-3.5c0.3-1.5,0.7-2.8,1.3-4.1c0.1-0.2,0.2-0.4,0.3-0.6c0.1-0.2,0.2-0.4,0.4-0.7
			c-0.5,1.4-0.2,2.2,1,2.3c1.2,0.1,2.7-0.3,4.5-1.1c1.3-0.6,2.4-1.4,3.4-2.4c1-1,1.5-2.2,1.7-3.6c0-0.6,0-1.3,0.1-2.1
			s-0.3-1.4-1.1-1.6c-0.6,0-1.3,0-2.1,0.2c-0.8,0.2-1.1,0.4-1.1,0.5c-0.8-0.2-2,0.6-3.9,2.5c-1.8,1.8-3.2,3.8-4.2,5.9h-0.2
			c-0.2,0.2-0.2,0.3-0.1,0.3c0.3,0,0.5,0.1,0.5,0.4c-0.4,0.3-0.7,0.4-0.9,0.4c0,0,0.1,0.1,0.1,0.1c0,0.2,0,0.4-0.1,0.5h0.1
			c0,0.1-0.1,0.2-0.4,0.2c-0.6,1-1,2.1-1.1,3.1c-0.1,1-0.1,2,0,2.8c0.3,1.4,1,2.3,2.1,2.8c0.1,0,0.2,0,0.2-0.1c0,0,0-0.1,0.2-0.1
			c0,0.1,0.1,0.2,0.1,0.4c0.7,0.3,1.4,0.4,2,0.4c0.4,0,0.7,0,1-0.1c0.6-0.1,1.3-0.3,2-0.7c0.3-0.2,0.5-0.3,0.6-0.4
			c0,0,0.3-0.2,0.7-0.5c0.1-0.1,0.2-0.3,0.3-0.4h0.1l0.4-0.4c0.1-0.1,0.4-0.3,0.7-0.5c0.4-0.3,0.5-0.5,0.5-0.7
			c0.1,0,0.2-0.1,0.3-0.2c0.1-0.1,0.2-0.2,0.3-0.3c0,0,0.1-0.2,0.2-0.3c0.1-0.2,0.2-0.3,0.4-0.4c-0.1,0-0.2,0.1-0.3,0.2
			c-0.1,0.1-0.1,0.2-0.2,0.2c-0.1,0-0.1-0.1-0.1-0.2c0.1,0,0.3-0.1,0.5-0.2c0.2-0.1,0.3-0.1,0.3-0.1c0-0.3,0.1-0.6,0.4-0.8
			c-0.3,0.2-0.5,0.4-0.5,0.7c0-0.1-0.1-0.2-0.1-0.3c0-0.1,0.1-0.2,0.2-0.3c0.1-0.1,0.2-0.2,0.3-0.3c0-0.1,0-0.2-0.1-0.3h0.1
			c0,0,0.1,0,0.2-0.1c0-0.2,0.1-0.3,0.1-0.4c0-0.1,0.1-0.1,0.2-0.1v-0.1v-0.1c0.1,0,0.2-0.1,0.3-0.1c-0.2-0.1-0.5-0.1-0.6,0.1
			c-0.2,0.2-0.4,0.4-0.5,0.5c-0.4,0.6-0.9,1.1-1.5,1.7c-0.6,0.6-1.1,1.1-1.6,1.5c-0.2,0.1-0.4,0.2-0.6,0.4h-0.1
			C86.8,55.3,86.2,55.7,85.7,55.9 M68.7,56.7h0.1h0.3v0.2h-0.4C68.7,56.8,68.7,56.7,68.7,56.7 M47.9,59.7c-0.1-0.6,0-1.4,0.3-2.3
			c0.3-0.9,0.6-1.7,0.7-2.3H49h0.1c0-0.1,0-0.2,0-0.2c0,0,0-0.1,0-0.1c0,0,0.1-0.1,0.3-0.2c-0.1-0.1-0.1-0.4,0.1-0.9
			c0.1-0.5,0.3-0.8,0.4-0.9c0-0.8,0.1-1.5,0.4-2.2c0.3-0.7,0.6-1.6,1.1-2.9c0-0.1,0-0.1,0.1-0.1c0-0.1,0.2-0.1,0.4-0.1
			c0.2-1.1,0.6-2.3,1-3.6c0.4-1.2,0.9-2.3,1.4-3.3c0,0-0.1,0-0.2-0.1v-0.4c0.5,0,0.6-0.1,0.5-0.3c-0.2-0.2-0.1-0.4,0.2-0.5
			c0-0.8,0.2-1.5,0.7-2.3c0.1,0,0.2,0,0.3,0.1v0.2v0.2c0.3,0.5,0.5,0.8,0.6,0.8c-0.3,1.3-0.2,2.9,0.3,4.7c0.5,1.9,0.8,3.5,0.9,4.9
			h0.2c-0.1,0.2-0.2,0.4-0.2,0.6c0,0.2-0.1,0.3-0.1,0.5c0,0-0.1,0-0.1,0.1V50c-0.2,0-0.3,0-0.4,0.1c0,0.6,0,0.9,0.1,1.1
			c0.1,0.2,0.5,0.2,1.2,0.2c1,0,1.9-0.6,2.5-1.7c0.6-1.1,1-1.7,1.2-1.7c0.1-0.4,0.3-0.7,0.4-0.9c0.1-0.2,0.3-0.4,0.6-0.7
			c0,0,0.2,0.1,0.4,0.1c0-0.2,0.1-0.4,0.1-0.6c0.1-0.1,0.2-0.2,0.3-0.3c0-0.1,0.2-0.1,0.4-0.1c0-0.2,0-0.4,0.1-0.5
			c0.1,0,0.2-0.1,0.3-0.1c0-0.2,0.6-1,1.8-2.3c1.2-1.3,2-2.1,2.2-2.4c0.1,0,0.2-0.1,0.3-0.3l0.2-0.2c0.1,0,0.2,0,0.2-0.1
			c0-0.1,0.4-0.7,1.1-1.5c0.7-0.9,1.1-1.3,1.4-1.4c0-0.2,0.1-0.5,0.2-0.6c0.1,0,0.2-0.1,0.3-0.1c0-0.1,0.1-0.4,0.4-0.8
			c0.2,0,0.4-0.2,0.5-0.5c0.3,0,0.5-0.3,0.7-0.7c0.2-0.4,0.4-0.7,0.7-0.9c0,0,0-0.1,0-0.1c0,0,0-0.1,0-0.3c0.1,0,0.2,0,0.2-0.1
			c0-0.1,0.1-0.2,0.2-0.3c0.1,0.2,0.1,0.4,0,0.7c-0.1,0.3-0.2,0.5-0.3,0.6c0,0,0.1,0.1,0.1,0.1c-0.1,0.1-0.1,0.3-0.1,0.4
			c0.1,0,0.2,0,0.2,0.1c-0.3,0.1-0.5,0.3-0.5,0.5c0,0.2-0.1,0.3-0.3,0.5c0.1,0.1,0.1,0.3-0.1,0.7c-0.1,0.4-0.3,0.6-0.4,0.6v0.2
			c-0.1,0-0.2,0-0.3,0.1c0,0.2,0,0.4-0.1,0.7c0,0.1,0,0.2,0.1,0.2c-0.1,0.1-0.2,0.2-0.3,0.5c-0.1,0.2-0.2,0.4-0.2,0.5l0.1,0.1
			c-0.1,0.5-0.3,0.8-0.4,0.8c0,0.3-0.3,1.3-0.8,2.8c-0.5,1.5-1,3.1-1.6,4.8c-0.6,1.8-1.1,3.5-1.7,5.2c-0.1,0.3-0.3,0.7-0.5,1.2
			c-0.2,0.5-0.2,0.9,0,1.2c-0.3,0.6-0.4,1.1-0.4,1.5c0,0.5,0.1,1,0.2,1.5c0.6,0,1,0,1.2,0.1c0-0.3,0.2-0.5,0.5-0.5v-0.2
			c0.5-0.1,0.8-0.4,0.9-0.7c0.1-0.3,0.3-0.7,0.5-1.1c0,0,0-0.1-0.1-0.2c0.2-0.2,0.4-0.3,0.5-0.4c-0.1-0.2-0.2-0.5-0.1-0.7
			c0.1-0.2,0-0.5-0.1-0.8c-0.1,0-0.2,0-0.3,0c-0.1,0-0.1-0.1-0.1-0.1c0-0.3,0-0.7,0.1-1.2c0.1-0.5,0.3-1.6,0.7-3
			c0.6-2.4,1.3-4.7,2-7c0.7-2.3,1.3-3.6,1.7-3.8c0-0.1,0.1-0.2,0.1-0.4c0,0,0.1-0.1,0.3-0.1c0-0.3,0.1-0.6,0.2-0.8
			c0.1-0.3,0.2-0.6,0.2-0.9c0.1,0,0.3-0.5,0.5-1.6c0.2-1.1,0.7-2.3,1.6-3.8c0.1,0,0.2-0.1,0.2-0.1l-0.1-0.4H78
			c0-0.4,0.1-0.7,0.4-0.8c0-0.3,0.1-0.7,0.2-1c0.1-0.3,0.2-0.6,0.2-1c0.1-0.2-0.1-0.4-0.5-0.6c-0.4-0.2-0.9,0-1.5,0.6
			c-0.3,0.4-0.8,0.9-1.5,1.4c-0.7,0.5-1.2,0.9-1.6,1.4c0,0.3-0.1,0.5-0.3,0.6c0,0.4-0.1,0.7-0.3,0.7c-0.2,0.1-0.3,0.3-0.3,0.7
			c-0.1,0.1-0.2,0.2-0.3,0.4c-0.1,0.1-0.2,0.3-0.3,0.4c0,0.2-0.5,0.9-1.5,2.2c-1,1.3-1.6,1.9-1.7,1.9c-1.4,1.5-2.7,3.1-4.1,4.6
			c-1.3,1.6-2.5,2.9-3.6,4.1c0-0.1-0.1-0.2-0.2-0.3c-0.1,0.1-0.3,0.2-0.4,0.3c0,0.2,0,0.3,0.1,0.4c-0.2,0-0.3,0-0.4,0.1v0.2
			c-0.1,0-0.3,0.2-0.5,0.5c-0.2,0.4-0.3,0.5-0.3,0.5c-0.4,0-0.8-0.4-1.1-1.2c-0.3-0.7-0.5-1.6-0.7-2.6c-0.2-1-0.3-1.9-0.4-2.9
			c-0.1-0.9-0.1-1.7-0.1-2.3c0-1,0.1-2.4,0.2-4.2c0.1-1.8,0.2-3.5,0.3-5c0-0.8,0-1.3-0.1-1.6c-0.1-0.2-0.3-0.3-0.6-0.2h-0.6h-0.6
			c-0.1,0.1-0.2,0.2-0.1,0.3c0,0.1,0,0.1-0.1,0.1c0,0.5-0.3,1.1-0.7,1.8c-0.4,0.7-0.6,1.1-0.6,1.4h-0.1h-0.1c0,0,0,0.1-0.1,0.1
			c0,0-0.1,0-0.1,0c0,0-0.1,0-0.1,0c-0.1,0.4-0.3,1-0.6,1.6c-0.2,0.6,0,1,0.8,1c0,0.1,0,0.2,0.1,0.3h0.4c0,0.1,0,0.2-0.1,0.3
			c0,0.1-0.1,0.1-0.1,0.2c0.1,0.2,0.2,0.4,0.2,0.5c-0.1-0.1-0.2-0.1-0.4-0.1L54,35.2v0.1c0,0.2-0.1,0.5-0.2,0.8s-0.1,0.6-0.1,0.7
			c-0.1,0-0.2,0-0.3,0.1c-0.2,0.6-0.4,1-0.5,1.4c0.1,0,0.2,0,0.2,0.1c0.1,0.5,0,0.8-0.6,0.9c0.1,0.4,0,0.9-0.3,1.5
			c-0.4,0.6-0.4,1-0.2,1.2c0,0-0.3,0.5-0.8,1.4c-0.5,0.9-0.7,1.4-0.7,1.6c0.2,0,0.4,0.1,0.5,0.3c0,0-0.1,0.1-0.2,0.1v0.4
			c-0.1,0-0.2,0.1-0.3,0.1c-0.1,0.4-0.3,1-0.6,1.7c-0.2,0.7-0.4,1-0.6,1c0.1,0.6,0,1.1-0.3,1.4H49c0-0.1,0.1-0.3,0.1-0.6H49
			c-0.3,1.1-0.7,2-1.2,2.6c-0.5,0.6-0.7,1.5-0.7,2.6c-0.3,0.1-0.5,0.2-0.5,0.2v0.1v0.2h-0.2h-0.2c0,0.3,0,0.7-0.1,1c0,0.3,0,0.6,0,1
			h-0.2c0,0.2-0.1,0.4-0.1,0.6c0,0.2,0,0.3-0.1,0.4c-0.2,0.2-0.3,0.5-0.3,0.9c0.1,0,0.2,0.3,0.2,0.7c0,0.4,0.2,0.7,0.6,0.9
			C46.5,60.7,47.1,60.5,47.9,59.7"/>
	</g>
	<polyline class="st1" points="49.5,17.9 49.5,2.9 210.5,2.9 210.5,17.9 	"/>
	<polyline class="st1" points="49.4,80.2 49.4,95.9 210.6,95.9 210.6,79.7 	"/>
</g>
</svg>
