<?xml version="1.0" encoding="utf-8"?>
<!-- Generator: Adobe Illustrator 22.0.1, SVG Export Plug-In . SVG Version: 6.00 Build 0)  -->
<svg version="1.1" id="Capa_1" xmlns="http://www.w3.org/2000/svg" xmlns:xlink="http://www.w3.org/1999/xlink" x="0px" y="0px"
	 viewBox="0 0 260 98.9" style="enable-background:new 0 0 260 98.9;" xml:space="preserve">
<style type="text/css">
	.st0{fill:#FFFFFF;}
	.st1{fill:none;stroke:#E66728;stroke-width:2;stroke-linecap:round;stroke-linejoin:round;}
	.st2{fill:#E66728;}
	.st3{fill:none;stroke:#E66728;stroke-width:1.5;stroke-linecap:round;stroke-linejoin:round;}
	.st4{clip-path:url(#SVGID_2_);fill:#E66728;}
	.st5{clip-path:url(#SVGID_2_);fill:#FFFFFF;}
	.st6{fill:none;stroke:#D25A2B;stroke-width:2.082;stroke-linecap:round;stroke-linejoin:round;}
	.st7{fill:none;stroke:#D25A2B;stroke-width:1.948;stroke-linecap:round;stroke-linejoin:round;}
	.st8{clip-path:url(#SVGID_4_);fill:#E66728;}
	.st9{clip-path:url(#SVGID_4_);fill:#FFFFFF;}
	.st10{clip-path:url(#SVGID_6_);fill:#E66728;}
	.st11{clip-path:url(#SVGID_6_);fill:#FFFFFF;}
	.st12{clip-path:url(#SVGID_8_);fill:#E66728;}
	.st13{clip-path:url(#SVGID_8_);fill:#FFFFFF;}
	.st14{fill:none;stroke:#D66F2C;stroke-width:1.594;stroke-linecap:round;stroke-linejoin:round;}
	.st15{clip-path:url(#SVGID_10_);fill:#FFFFFF;}
	.st16{clip-path:url(#SVGID_12_);fill:#FFFFFF;}
	.st17{clip-path:url(#SVGID_14_);fill:#FFFFFF;}
	.st18{fill:none;stroke:#D25A2B;stroke-width:1.906;stroke-linecap:round;stroke-linejoin:round;}
	.st19{fill:none;stroke:#DF6829;stroke-width:1.763;stroke-linecap:round;stroke-linejoin:round;}
	.st20{fill:none;stroke:#D25A2B;stroke-width:1.763;stroke-linecap:round;stroke-linejoin:round;}
</style>
<g>
	<g>
		<path class="st0" d="M150.3,74.8c0-2.6,1-3.6,2.1-3.6c1.4,0,2,1.7,2,3.4c0,2.6-1,3.6-2.1,3.6C150.9,78.2,150.3,76.5,150.3,74.8
			 M149.2,74.8c0,2.7,1.2,4.3,3.1,4.3c2,0,3.2-1.5,3.2-4.5c0-2.7-1.2-4.3-3.1-4.3C150.4,70.3,149.2,71.8,149.2,74.8 M147.4,74.3H145
			v0.9h1.4v2.7c-0.3,0.1-0.7,0.2-1.1,0.2c-1.9,0-2.8-1.5-2.8-3.7c0-2.1,1.3-3.2,2.7-3.2c0.6,0,1.4,0.2,2,0.5v-1.1
			c-0.6-0.3-1.3-0.4-2-0.4c-2.2,0-3.8,1.7-3.8,4.4c0,2.3,1.1,4.4,3.9,4.4c0.8,0,1.6-0.3,2.1-0.4V74.3z M135.9,75.8l1.4-4.3h0
			l1.3,4.3H135.9z M136.8,70.4l-2.9,8.6h1.1l0.7-2.2h3.3l0.7,2.2h1.1l-2.8-8.6H136.8z M131.5,79h1.1v-8.6h-1.1V79z M127.1,79h1.1
			v-7.6h2v-0.9h-5v0.9h2V79z M118,79h1v-7h0l3.2,7h1.3v-8.6h-1v7.1h0l-3.2-7.1H118V79z M112,75.8l1.4-4.3h0l1.3,4.3H112z
			 M112.8,70.4l-2.9,8.6h1.1l0.7-2.2h3.3l0.7,2.2h1.1l-2.8-8.6H112.8z M108.6,70.6c-0.4-0.2-1-0.3-1.5-0.3c-1.3,0-2.4,0.7-2.4,2.1
			c0,1.1,0.3,1.6,1.9,2.6c1.2,0.7,1.3,1.1,1.3,1.7c0,0.7-0.6,1.4-1.5,1.4c-0.5,0-1.1-0.3-1.6-0.6v1.1c0.5,0.2,1.1,0.4,1.8,0.4
			c1.6,0,2.5-1.1,2.5-2.4c0-1-0.4-1.7-1.8-2.5c-1.2-0.7-1.4-1.1-1.4-1.6c0-0.7,0.5-1.3,1.3-1.3c0.5,0,1.1,0.1,1.5,0.4V70.6z"/>
		<path class="st0" d="M207.6,46.1c0-0.1,0-0.2,0.1-0.3c0-0.1-0.1-0.2-0.1-0.3h0.2h0.2c0,0.6-0.2,1-0.7,1.1
			C207.5,46.4,207.6,46.2,207.6,46.1 M197.3,59.6c0.3-0.1,0.5-0.2,0.8-0.2c0,0,0.1-0.1,0.1-0.3c0.1,0,0.2-0.1,0.3-0.1
			c0.1,0,0.4,0,0.8,0c0-0.2,0.1-0.3,0.3-0.3c0.1,0,0.2-0.1,0.2-0.2h0.2c0-0.2,0-0.3,0.2-0.5c0-0.1-0.1-0.1-0.1-0.2
			c0.2-0.2,0.4-0.3,0.7-0.3c0-0.2,0-0.3,0.1-0.3c0.1,0,0.2-0.1,0.3-0.4c0.2,0,0.4-0.1,0.6-0.1c0.2,0,0.4-0.1,0.6-0.1
			c0,0.1,0,0.1,0.1,0.2c0.2,0.1,0.4,0.2,0.7,0.2c0,0,0.1,0.2,0.1,0.4c0,0,0.1,0.1,0.3,0.1c0.1,0,0.2-0.1,0.4-0.1
			c0-0.2,0-0.3-0.1-0.3c0.2-0.1,0.3-0.2,0.4-0.3c0.1-0.1,0.3-0.2,0.5-0.2v-0.1c-0.1,0-0.1-0.1-0.2-0.1v-0.1c0.1-0.1,0.2-0.3,0.3-0.4
			c0.1-0.1,0.3-0.3,0.5-0.4c-0.1-0.1-0.1-0.2,0-0.3c0.2,0,0.4-0.1,0.6-0.2c0.3,0.2,0.7,0.3,1,0.5c0.3,0.1,0.7,0,1.2-0.3v-0.3v-0.5
			c0-0.1,0.1-0.1,0.1-0.1c-0.1-0.1-0.2-0.1-0.3-0.1c0-0.2,0-0.3,0.1-0.3c-0.1,0-0.2-0.1-0.3-0.1c0-0.3-0.1-0.4-0.3-0.6v-0.3
			c-0.3,0-0.7-0.1-1.4-0.4c-0.7-0.3-0.7-0.4,0-0.4c0-0.1,0-0.2,0-0.3c0-0.1,0.1-0.2,0.1-0.3l1.6-3.9c0-0.1,0.1-0.3,0.2-0.5
			c0.1-0.2,0.2-0.4,0.3-0.5c0.1-0.2,0.1-0.4,0.2-0.6c0-0.2,0.1-0.4,0.2-0.7c0.1,0,0.2-0.1,0.3-0.1l3.4-8l-0.1-0.1H212
			c-0.1,0.1-0.3,0.3-0.4,0.6c-0.2,0.3-0.3,0.5-0.4,0.4c0-0.1,0-0.2,0-0.4c0.1,0,0.2,0,0.3-0.1c0.1-0.5,0.3-0.9,0.7-1.1l0.4,0.2
			c-0.1-0.3-0.2-0.4-0.3-0.4c0.3-0.3,0.4-0.5,0.6-0.6h0.1c-0.1-0.3,0-0.5,0.3-0.8l2.6-5.1c0.1,0,0.3-0.3,0.4-0.8c0,0-0.1,0-0.3,0.1
			c0,0-0.1-0.1-0.2-0.1c-0.1,0-0.1-0.1-0.1-0.1c0.2-0.1,0.3-0.1,0.5-0.1c-0.3-0.5-0.7-0.8-1.3-0.8c0,0.2-0.1,0.3-0.2,0.3
			c-0.1,0.1-0.2,0.2-0.2,0.3c-1,1-1.7,2.4-2.4,4.2c-0.6,1.8-2.3,3.6-5.1,5.4v0.3c-0.4,0.1-0.7,0.2-1,0.3c-0.3,0.1-0.6,0.2-0.9,0.2
			v0.3h-0.1h-0.1c0.1,0.3,0.2,0.5,0.3,0.8c0.1,0.3,0.2,0.6,0.3,0.8c0.5,0,0.9-0.1,1.3-0.2c0.4-0.1,0.7-0.4,1-0.8
			c0.4,0,0.6-0.2,0.8-0.5c0.1-0.4,0.4-0.5,0.7-0.5c0-0.1,0-0.2,0.1-0.3h0.2l-2.7,6.3c0,0.3,0,0.4-0.1,0.6c0,0,0,0.1,0.1,0.1
			l-3.2,7.1c0,0.2,0,0.3,0,0.4c0,0.1-0.1,0.2-0.1,0.3c-0.1,0-0.1,0.1,0.2,0.2c-0.2,0-0.3,0-0.3,0.1c0,0-0.1,0.1-0.1,0.2
			c0,0.1-0.1,0.1-0.1,0.1c-0.3,0-0.4,0.1-0.4,0.3l-6.2,3.3c-0.5,0.3-0.7,0.6-0.7,0.9c0,0.3,0.1,0.7,0.3,1.1c0.3,0.1,0.4,0.2,0.4,0.3
			C196.7,59.9,197,59.8,197.3,59.6 M185.8,57.1c1.3,0,2,0.1,2.1,0.1c0-0.1,0-0.1,0.1-0.1c1-0.2,1.9-0.5,2.9-0.8
			c2.3-0.7,4.4-1.9,6.3-3.5c2-1.6,3.1-3.7,3.4-6.2c0.2-2.4-0.6-4.3-2.4-5.8c-1.8-1.5-4.2-1.9-7-1.2c-0.4,0.1-0.9,0.2-1.5,0.4
			c-0.6,0.2-1,0.2-1.3,0.1c0,0,0-0.1,0-0.2c-0.1-0.1-0.1-0.2,0-0.2c-0.1-0.5,0.1-1.1,0.8-2c0.6-0.9,1-2.1,1.2-3.6l4.7-1.3l4.9-0.9
			c0,0,0,0.1,0.1,0.1c0,0,0.1,0.1,0.2,0.1c0.3-0.2,0.6-0.4,1-0.7c0.4-0.3,0.6-0.6,0.6-1.1l-0.6-0.2c0-0.5-0.3-0.6-0.9-0.3
			c-0.6,0.3-1,0.4-1.1,0.3c-0.3,0.1-0.6,0.3-1.1,0.5c-0.5,0.2-0.9,0.4-1.2,0.5c0,0,0,0.1-0.1,0.2c-0.2-0.1-0.5-0.2-0.9-0.2
			c0,0-0.1,0.1-0.1,0.1c-0.4,0.1-0.8,0.2-1.1,0.3c-0.4,0.1-0.8,0.1-1.1,0.2c-0.4,0.1-0.9,0.3-1.5,0.4c-0.6,0.2-1.1,0.3-1.3,0.4
			c0-0.3,0.1-0.6,0.2-1c0.1-0.4,0.2-0.7,0.2-1c-0.3-0.2-0.6-0.3-0.7-0.4c-0.1-0.1-0.3,0-0.6,0.2v0.1c0,0-0.1,0.1-0.3,0.1
			c0,0.3-0.1,0.7-0.3,1.3c-0.1,0.5-0.2,0.9-0.2,1.1c-0.5,0.2-1.1,0.4-1.6,0.6c-0.5,0.3-0.8,0.6-0.8,1.1l0.1,0.7
			c0.3,0,0.5-0.2,0.9-0.4c0.3-0.2,0.6-0.3,0.9-0.3c-0.1,0.6-0.3,1.2-0.7,1.9c-0.3,0.7-0.5,1.3-0.7,1.8c0,0-0.1,0.1-0.2,0.1
			c-0.1,0.3-0.2,0.5-0.3,0.6v0.3v0.3c-0.5,0.4-1,1.1-1.4,2.1c-0.5,1-0.9,1.7-1.4,1.9c0,0.4-0.1,0.6-0.4,0.7c0,0.5,0.1,0.8,0.3,1
			c0.2,0.2,0.5,0.3,1,0.3c0.1-0.1,0.2-0.2,0.3-0.3c0,0,0,0.1,0.1,0.1c0,0,0.1,0,0.1,0v-0.2c0.1,0,0.4-0.2,0.8-0.6
			c0.4-0.4,0.7-0.6,0.7-0.8c0.1-0.1,0.2-0.1,0.3-0.1c0-0.5,0.4-0.8,1-1c0.6-0.2,1-0.4,1.1-0.7c1.5-0.7,2.9-1,4.2-0.9
			c1.3,0,2.4,0.3,3.3,0.9c1.1,0.8,1.8,1.9,2,3.4c0.2,1.5-0.3,3.1-1.3,4.8c-0.5,0.8-1.1,1.4-1.9,2.1c-0.7,0.6-1.6,1.1-2.5,1.5
			c-0.8,0.3-1.6,0.6-2.4,0.9c-0.9,0.3-1.8,0.4-2.9,0.5c-0.8,0-1.3-0.1-1.6-0.4c-0.3-0.3-0.6-0.6-0.8-0.8c-0.2-0.2-0.3-0.3-0.4-0.4
			c-0.1-0.1-0.3-0.1-0.6-0.1c-0.1,0.2-0.1,0.5-0.1,1c-0.1,0-0.2,0-0.3,0.1c0,0.2,0,0.4,0.1,0.8c0,0.4,0.1,0.6,0.3,0.6
			C184.1,56.6,184.6,57,185.8,57.1 M167.9,37.1c0.1-0.2,0.2-0.3,0.2-0.4c-0.1,0.2-0.2,0.3-0.3,0.3c-0.1,0.1-0.1,0.2-0.1,0.3
			C167.7,37.4,167.8,37.3,167.9,37.1 M162.3,49.2L162.3,49.2L162.3,49.2z M167.7,37.6c-0.1,0-0.2,0.1-0.3,0.2L167.7,37.6z
			 M166.8,39.4l-0.1,0.1C166.8,39.6,166.8,39.5,166.8,39.4 M166.5,40.1c-0.2,0-0.3,0.2-0.3,0.5C166.4,40.4,166.5,40.2,166.5,40.1
			 M166.2,41c0-0.1,0-0.2,0-0.3c0,0-0.1,0-0.1-0.1c0,0.1-0.1,0.2-0.1,0.3l0.1,0.1L166.2,41z M165.8,41.6c-0.1,0.1-0.1,0.1-0.1,0.2
			L165.8,41.6z M164.7,44.2h0.1c0.2-0.3,0.2-0.6,0.2-0.9c0,0.2-0.1,0.3-0.2,0.5C164.7,43.9,164.7,44,164.7,44.2 M163.7,46h0.2v-0.2
			h-0.2V46z M163.5,47.2c0-0.1,0-0.2,0.1-0.2c0,0,0.1-0.1,0.1-0.2h-0.3c0,0.2,0,0.4-0.1,0.4H163.5z M162.3,49.7h0.1
			c0-0.2,0.1-0.4,0.2-0.5c0.1-0.1,0.1-0.3,0.2-0.5C162.6,48.9,162.4,49.3,162.3,49.7 M152.1,47h0.2v-0.1v-0.1c-0.1,0-0.2,0-0.3-0.1
			C152,46.8,152.1,46.9,152.1,47 M166.3,36.4l-0.1-0.1c0.1-0.1,0.2-0.1,0.3-0.1c0,0,0,0.1,0.1,0.1L166.3,36.4z M161.6,47.5
			c-0.2,0.5-0.4,0.9-0.4,1.3c-0.4,0.8-1.1,1.8-2.1,3c-1,1.2-2,2.1-3,2.5c-0.9,0.4-1.7,0.6-2.5,0.6c-0.8,0-1.4-0.4-1.9-1.3
			c-0.4-0.8-0.4-1.8-0.1-3.1c0.3-1.3,0.8-2.5,1.4-3.7c1.1-2,2.6-3.9,4.3-5.6c1.7-1.7,3.2-2.5,4.5-2.4c0.5,0.2,1,0.5,1.3,0.9
			c0,0,0.1,0,0.1,0c0,0,0.1,0,0.1,0c0,0,0,0.1,0.1,0.2c0.1,0.3-0.1,0.6-0.6,0.9c-0.5,0.4-0.7,0.8-0.7,1.2c0,0.4,0.2,0.6,0.7,0.6h0.1
			h0.2c-0.1,0.2-0.1,0.3-0.2,0.5c0,0.2-0.1,0.3-0.1,0.4c-0.1,0.2-0.2,0.5-0.3,0.8c-0.1,0.3-0.2,0.6-0.3,1c0,0-0.1,0.1-0.1,0.1
			c0,0.1,0,0.2,0.1,0.3c0,0-0.1,0.1,0,0.1H162c0,0.1-0.1,0.2-0.1,0.3h0.1c0,0.2-0.1,0.3-0.3,0.3l-0.1,0.3v0.1h-0.1l-0.1,0.3v0.1
			l-0.3,0.9C161.3,48.1,161.4,47.8,161.6,47.5L161.6,47.5z M166.2,39.7c0.1-0.2,0.2-0.3,0.3-0.5c0.3-0.5,0.6-1.1,0.9-1.6
			c0.2-0.3,0.3-0.7,0.5-1c0.2-0.3,0.4-0.7,0.5-1c0.5-1,1.2-2,1.9-2.8c0.4-0.5,0.6-0.8,0.6-1.1v-0.8c0.1-0.3-0.1-0.4-0.7-0.5
			c-0.6-0.1-1,0.1-1.3,0.6c-0.2,0.3-0.4,0.5-0.6,0.8c-0.2,0.3-0.3,0.6-0.3,1l-0.4,0.4c-0.1,0.5-0.3,1-0.7,1.5
			c-0.3,0.5-0.6,1-0.8,1.4c0,0.1-0.1,0.2-0.1,0.3c0,0.1-0.1,0.2-0.1,0.2c-0.2,0.5-0.4,0.9-0.7,1.4c-0.2,0.5-0.4,0.9-0.6,1.3
			c-0.2,0-0.5-0.1-0.9-0.1c0-0.1-0.1-0.2-0.1-0.3c0-0.3-0.2-0.4-0.7-0.5c-0.5-0.1-1.2-0.1-1.9,0.1c-0.7,0.2-1,0.3-1,0.4
			c-0.6-0.1-1.8,0.6-3.6,2.2c-1.8,1.6-3.2,3.3-4.2,5.2h-0.1c0,0.1-0.1,0.2-0.3,0.3c0.4,0.1,0.6,0.3,0.6,0.4
			c-0.3,0.2-0.6,0.3-0.9,0.4c0,0.1,0.1,0.1,0.2,0.1c0,0,0,0.1-0.1,0.2c0,0.1-0.1,0.1-0.1,0.2h0.1c0,0.2,0,0.2-0.1,0.2
			c-0.1,0-0.1-0.1-0.2-0.1c-0.6,0.9-1,1.8-1.3,2.8c-0.2,0.9-0.3,1.8-0.3,2.5c0.2,1.3,0.7,2.1,1.5,2.4c0.1,0,0.2,0,0.2-0.1
			c0,0,0.1-0.1,0.2-0.1c0,0,0.1,0.1,0.1,0.3c0.5,0.3,1.2,0.4,2,0.4c1.3,0,2.5-0.7,3.7-1.9c1.2-1.2,2.2-2.5,3-3.9
			c-0.1,0.2-0.2,0.4-0.3,0.6c0,0.2-0.1,0.3-0.1,0.5l-0.3,0.4l-0.3,1.2c0,0.2,0,0.6,0.1,1.1c0,0.5,0.3,0.9,0.7,1.1
			c0.5,0.1,0.9,0.1,1.4,0c0.1,0,0.3-0.1,0.7-0.3c0.4-0.2,0.8-0.4,1.2-0.5c0.1,0,0.3-0.1,0.5-0.3c0.2-0.1,0.4-0.3,0.4-0.4
			c0.2-0.2,0.4-0.3,0.6-0.3c0,0,0.1-0.1,0.3-0.3c0.1-0.1,0.3-0.2,0.4-0.3c-0.1,0-0.2,0-0.3,0.1c-0.1,0.1-0.1,0.1-0.2,0.1
			c-0.1-0.1-0.1-0.2,0-0.2c0.1,0,0.2,0,0.4-0.1c0.2,0,0.3-0.1,0.3-0.1c0.2-0.3,0.3-0.5,0.5-0.6c-0.4,0.1-0.6,0.3-0.6,0.6
			c0-0.1-0.1-0.2-0.1-0.3c0.4-0.2,0.6-0.3,0.7-0.3c0-0.1,0-0.2,0-0.3h0.3c0-0.1,0.1-0.2,0.1-0.3c0,0,0.1,0,0.1-0.1
			c0,0,0.1-0.1,0.1-0.1v-0.1v-0.1c0,0,0.1,0,0.2,0c0.1,0,0.1,0,0.2,0c-0.2-0.1-0.4-0.1-0.6,0.1c-0.2,0.2-0.3,0.3-0.5,0.4
			c-0.7,0.5-1.4,0.9-2.3,1.4c-0.9,0.5-1.4,0.8-1.7,0.8c-0.1,0-0.2,0.1-0.3,0.1c-0.3,0-0.5-0.1-0.6-0.4c-0.1-0.5,0-1.4,0.3-2.6
			c0,0,0-0.1,0.1-0.2v-0.1c0.2-1.1,0.5-2.1,0.8-3c0.3-0.9,0.5-1.5,0.7-1.6c0-0.2,0.1-0.5,0.3-0.8c0.2-0.3,0.3-0.7,0.3-1
			c0.2,0,0.3,0,0.3-0.1v-0.4h0.1h0.1c0-0.1,0.2-0.6,0.6-1.6c0.1-0.3,0.2-0.6,0.4-0.9c0.2-0.3,0.3-0.6,0.4-0.9
			C166.1,40,166.2,39.9,166.2,39.7 M136.1,47.2h0.1c0-0.1,0-0.2,0.1-0.3h-0.2v0.2V47.2z M145.4,45.3c-0.4,0.8-0.6,1.1-0.6,1
			c-0.1,0.2-0.2,0.3-0.2,0.3c0,0-0.1,0.1-0.2,0.1v0.2c-0.2,0-0.4,0-0.5,0c0,0.1,0,0.2-0.1,0.3c0,0.1-0.1,0.1-0.1,0.2
			c-0.3,0.5-0.8,1.2-1.5,2c-0.7,0.8-1.4,1.5-2.3,2.3c-0.8,0.8-1.6,1.4-2.4,2c-0.8,0.6-1.5,0.9-2,1.1c-0.3,0.1-0.5,0.1-0.8,0.1
			c-0.3,0-0.5-0.1-0.5-0.3c0-0.8,0.4-1.9,1-3.4c0.6-1.4,1.5-2.9,2.4-4.4c1.2-2,2.6-3.8,4.1-5.4c1.5-1.6,2.9-2.4,4-2.2
			c0.4,0,0.9,0.3,1.3,0.8c0,0.1,0,0.1,0.1,0.2l0.1,0.1c0,0.3-0.2,0.7-0.7,1c-0.5,0.3-0.7,0.8-0.7,1.3c0,0.3,0.2,0.5,0.7,0.5
			C146.2,43.7,145.8,44.5,145.4,45.3 M136.3,55.9c0.8-0.4,1.6-0.9,2.4-1.6c0.8-0.7,1.6-1.5,2.4-2.3c0.8-0.8,1.5-1.6,2-2.3
			c0.3-0.3,0.5-0.7,0.8-1.2c0.3-0.4,0.5-0.9,0.7-1.4c0,0.2-0.1,0.3-0.2,0.5c-0.1,0.2-0.1,0.3-0.1,0.5L144,49
			c-0.1,0.4-0.2,0.9-0.5,1.4c-0.2,0.6-0.4,1.2-0.5,1.7h-0.1c0,0.1,0,0.3-0.1,0.6v0.1v0.1v0.2c-0.1,0-0.1,0.1-0.2,0.1l0.1,0.2v0.3
			v0.3c0,0.3,0.1,0.5,0.2,0.8c0.1,0.3,0.3,0.4,0.5,0.6c0.5,0.1,0.9,0.1,1.3,0c0.1,0,0.4-0.1,0.8-0.3c0.4-0.2,0.8-0.4,1.2-0.5
			c0.1,0,0.3-0.1,0.5-0.3c0.2-0.2,0.4-0.3,0.4-0.4c0.3-0.1,0.4-0.3,0.6-0.4c0,0,0.1-0.1,0.3-0.2c0.1-0.1,0.3-0.2,0.4-0.3
			c-0.1,0-0.2,0-0.3,0.1c-0.1,0.1-0.1,0.1-0.2,0.1c-0.1-0.1-0.1-0.1,0-0.1c0.3-0.2,0.6-0.3,0.8-0.1c0-0.3,0.2-0.5,0.4-0.6
			c-0.1,0-0.3,0.1-0.6,0.4c0-0.1-0.1-0.2-0.1-0.3c0.1,0,0.2-0.1,0.3-0.1c0.1,0,0.2-0.1,0.3-0.2c0-0.1,0-0.2,0-0.3h0.2h0.2
			c0-0.1,0.1-0.2,0.2-0.3c0-0.1,0.1-0.2,0.1-0.2v-0.1v-0.1h0.2h0.2c-0.2-0.1-0.4-0.1-0.6,0s-0.4,0.3-0.5,0.4c-0.6,0.5-1.4,1-2.2,1.4
			c-0.9,0.5-1.4,0.7-1.7,0.8c-0.5,0.1-0.8,0.1-0.9,0c-0.1-0.1-0.1-0.2-0.2-0.2v-0.1l0.1-0.1c-0.1-0.3-0.1-0.6,0-1.1
			c0.1-0.5,0.2-1,0.4-1.7c0.3-1,0.7-2.1,1.1-3.1c0.4-1,0.7-1.6,0.8-1.6c0-0.3,0.1-0.5,0.2-0.8c0.1-0.3,0.2-0.7,0.2-1
			c0.1,0,0.1,0,0.2,0c0,0,0.1,0,0.2,0V44v-0.2h0.1h0.1c0-0.1,0.1-0.3,0.2-0.6c0.1-0.3,0.2-0.6,0.3-1c0.3-0.5,0.5-1.1,0.6-1.7
			c0.2-0.6,0-0.9-0.4-1c-0.3,0-0.6,0-0.8-0.1c-0.1,0-0.1-0.1-0.1-0.3c0-0.3-0.2-0.5-0.7-0.6c-0.5,0-1.1,0-1.8,0.2
			c-0.7,0.2-1,0.3-1,0.4c-0.6-0.2-1.8,0.6-3.5,2.2c-1.7,1.6-3.1,3.4-4.1,5.2h-0.2c-0.2,0.2-0.2,0.3-0.2,0.3c0.3,0.2,0.4,0.3,0.4,0.3
			c-0.2,0.1-0.3,0.2-0.4,0.3c-0.1,0.1-0.3,0.1-0.4,0.1c0,0,0,0.1,0.1,0.1l-0.1,0.4h0.1c0,0.2-0.1,0.3-0.4,0.3
			c-0.7,0.9-1.3,2.2-1.8,4c-0.5,1.8-0.7,2.7-0.5,2.7c0,0.3,0.1,0.5,0.3,0.6c0.2,0.1,0.3,0.2,0.3,0.3c0.1,0,0.2,0,0.2-0.1
			c0-0.1,0.1-0.1,0.2-0.1v0.3v0.2C134.8,56.3,135.5,56.3,136.3,55.9 M123,51.1c-0.1,0.2-0.1,0.4-0.1,0.5c0,0,0.1-0.1,0.1-0.1
			c0.1-0.2,0.2-0.5,0.3-0.9C123.2,50.7,123.1,50.9,123,51.1 M123.9,49h0.1c0-0.1,0.1-0.3,0.2-0.5h-0.3c0,0.1,0,0.2,0,0.3
			C123.9,48.9,123.9,49,123.9,49 M124.2,47.9v-0.2h0.1v0.1L124.2,47.9z M125.1,46.2h0.1c0-0.1,0-0.3,0.1-0.5
			c0.1-0.2,0.1-0.4,0.1-0.5c-0.1,0.2-0.2,0.3-0.3,0.5C125.2,45.8,125.1,46,125.1,46.2 M126,43.7l0.2-0.1v-0.1
			C126.1,43.5,126.1,43.6,126,43.7 M126.6,42.8c-0.1,0-0.1-0.1,0-0.3h-0.2c0,0.2,0,0.3-0.1,0.3c0,0,0,0.1,0.1,0.1
			C126.4,42.8,126.5,42.8,126.6,42.8 M126.7,42.2c0.1-0.1,0.2-0.2,0.2-0.3c-0.3,0.1-0.4,0.2-0.3,0.3c0,0.1,0,0.2,0,0.3
			C126.6,42.3,126.6,42.2,126.7,42.2 M127.1,41.3l-0.1,0.2C127.1,41.4,127.1,41.3,127.1,41.3 M126.2,40.1c-0.6,1.3-1,2.5-1.1,3.5
			h-0.2v0.3c-0.1,0-0.2,0-0.3,0.1c0,0,0-0.2,0.1-0.4c-0.3,0.2-0.4,0.5-0.3,0.9h-0.1c0,0.2,0,0.4-0.1,0.6c-0.1,0.3-0.3,0.4-0.4,0.4
			c-0.2,0.4-0.7,1.5-1.3,3.4c-0.7,1.9-1.2,3.5-1.7,4.9c-0.3,0.7-0.4,1.3-0.4,1.7c0,0,0,0.1,0,0.2c0,0.1,0,0.1,0,0.2
			c0,0,0.1,0.1,0.2,0.1c0,0.3,0.3,0.7,0.6,1.1c0.4,0.1,0.9,0.1,1.4,0c0.1,0,0.3-0.1,0.8-0.3c0.4-0.2,0.8-0.4,1.1-0.5
			c0.5,0,0.8-0.2,0.9-0.6c0.3-0.2,0.5-0.3,0.6-0.4c0.1,0,0.2-0.1,0.3-0.2c0.1-0.1,0.3-0.2,0.4-0.3c-0.1,0-0.2,0.1-0.4,0.2
			c-0.1-0.1-0.1-0.1,0-0.1c0.3-0.3,0.5-0.3,0.8-0.2c0-0.2,0.1-0.4,0.4-0.6c-0.1,0-0.3,0.1-0.5,0.4c-0.1-0.1-0.1-0.2-0.1-0.3
			c0,0,0.3-0.1,0.8-0.3c0-0.1,0-0.2-0.1-0.3h0.2h0.2c0.1-0.1,0.2-0.1,0.2-0.2l0.1-0.2c0,0,0-0.1,0.1-0.1c0,0,0.1-0.1,0.3-0.1
			c-0.1-0.1-0.3-0.1-0.5,0c-0.2,0.1-0.4,0.3-0.5,0.4c-0.6,0.5-1.4,0.9-2.3,1.4c-0.9,0.5-1.5,0.7-1.8,0.8c-0.5,0.1-0.8,0.1-1-0.1
			c0-0.1,0-0.3-0.1-0.4c0-0.1,0.1-0.3,0.1-0.6c0-0.3,0.1-0.5,0.1-0.8c0.1-0.3,0.2-0.5,0.3-0.7c0.1-0.2,0.1-0.4,0-0.6v-0.1
			c0.2,0,0.3-0.1,0.3-0.3l-0.2,0.1h-0.1c0-0.1,0-0.2-0.1-0.3c0.1,0,0.2-0.2,0.2-0.3c0-0.2,0-0.3,0.1-0.5c0,0,0.1,0,0.1-0.1
			c0-0.1,0-0.3,0.1-0.4c0.1-0.1,0.1-0.3,0.1-0.4c0.3,0,0.4-0.1,0.3-0.4c0-0.3,0.1-0.5,0.3-0.6h-0.3c0,0.3-0.1,0.5-0.3,0.4
			c0-0.1,0-0.2,0.1-0.3c0.1-0.1,0.1-0.2,0.1-0.3c0,0,0.1-0.1,0.2-0.1c0-0.4,0.1-0.7,0.3-0.9c0.2-0.2,0.4-0.5,0.6-0.7h-0.3
			c0-0.1,0.1-0.1,0.2-0.2c0.1,0,0.2-0.1,0.3-0.2v-0.2c0,0-0.1,0-0.2,0.1c0,0,0-0.1-0.1-0.1c0,0-0.1-0.1-0.1-0.1
			c0.1,0,0.3-0.1,0.4-0.1c-0.3-0.3-0.3-0.5,0.1-0.7c-0.2-0.3-0.1-0.5,0.1-0.6c0,0-0.1,0-0.1,0c0,0,0-0.1,0-0.1
			c0.1-0.1,0.2-0.2,0.2-0.3c0-0.1,0.1-0.2,0.2-0.3l0.1,0.1h0.2v-0.1c-0.2,0-0.3-0.1-0.3-0.2c0.1,0,0.2-0.1,0.3-0.1
			c0,0-0.1-0.1-0.1-0.3c0.1-0.1,0.1-0.2,0.1-0.4c0.1,0,0.2,0,0.2,0c0.1,0,0.1,0,0.2,0v-0.1h-0.2h-0.2c0,0,0-0.1-0.1-0.2
			c0.1-0.1,0.2-0.1,0.3-0.2c0.1,0,0.2-0.1,0.3-0.2v-0.1h-0.1h-0.1c0-0.1-0.1-0.2-0.1-0.3c0,0,0-0.1,0.1-0.1c0,0.1,0.1,0.2,0.1,0.2
			c-0.1-0.1,0-0.4,0.2-1c0.2-0.5,0.4-0.8,0.6-0.8c0,0-0.1-0.1-0.1-0.1h0.2V41v-0.2h0.1h0.1c-0.2-0.2-0.1-0.3,0.1-0.3
			c0,0.1,0,0.2,0,0.3l0.1,0.1c0.3-0.5,0.4-0.9,0.4-1c-0.1,0.2-0.2,0.3-0.3,0.4c-0.1,0.1-0.1,0.1-0.1,0.2h-0.1c0,0,0-0.1-0.1-0.2
			c0.1-0.2,0.2-0.3,0.4-0.3c-0.1,0-0.1,0-0.1-0.1h0.1v-0.2l0.2-0.1v0.2c0-0.1,0.1-0.1,0.3-0.1c0,0-0.1,0-0.1-0.1
			c0.7-0.2,1.4-0.3,2.1-0.4c0.7-0.1,1.4-0.1,2,0l0.2-0.2c0.3,0.2,0.6,0.2,0.9,0.1c0.4-0.1,0.7-0.1,0.9,0.1c0.2-0.2,0.4-0.3,0.6-0.3
			c0-0.2-0.1-0.3-0.1-0.3c0.1-0.1,0.2-0.2,0.3-0.3c0.1,0,0.2,0.1,0.3,0.2c-0.1,0-0.1,0.1-0.2,0.3h-0.1c0,0.2,0.2,0.3,0.5,0.3v-0.1
			v-0.1c0.1,0,0.2,0,0.3-0.1c0.1-0.1,0.2-0.2,0.3-0.3c0,0-0.1-0.1-0.1-0.3c-0.4,0.1-0.7,0.1-0.7-0.1c-0.1-0.1-0.3-0.2-0.6-0.3
			c0,0,0,0.1-0.1,0.1c-0.2,0-0.3,0-0.3-0.1c-0.6,0-1,0.1-1.1,0.1h-0.3v-0.3c-0.1,0-0.1,0-0.2,0.1c0,0-0.1,0.1-0.2,0.1
			c0,0,0,0.1-0.1,0.2h-0.1h-0.1v-0.2c0,0-0.1,0.1-0.1,0.1c-0.4,0-0.9,0-1.5,0.1c-0.6,0.1-1.4,0.2-2.2,0.3c0.1-0.2,0.1-0.3,0.1-0.5
			h0.1h0.1c0,0.1,0,0.3-0.1,0.4c0.1,0,0.1-0.1,0.1-0.2c0-0.1,0.1-0.2,0.2-0.3v-0.1c-0.1,0-0.2,0-0.3-0.1v-0.1l1.3-2.6
			c0.3-0.1,0.4-0.3,0.4-0.6c0-0.3,0.1-0.4,0.1-0.6c0-0.3-0.2-0.4-0.7-0.3c-0.5,0-0.7,0.2-0.8,0.4c-0.2,0.3-0.4,0.5-0.6,0.8
			c-0.2,0.3-0.3,0.6-0.3,1c-0.1,0.1-0.2,0.2-0.2,0.3c-0.1,0.1-0.1,0.1-0.2,0.2l-0.2,0.8c-0.1,0.2-0.1,0.3-0.1,0.4l-0.3,0.6
			c0,0,0,0.1-0.1,0.1h0.1l-0.3,0.6c-1.3,0.3-2.4,0.5-3.5,0.9c-1.1,0.3-1.8,0.7-2.2,1.1c0,0.1,0,0.2,0,0.3c-0.1,0-0.1,0.1-0.1,0.2
			v0.3c0,0.1,0,0.2,0.1,0.3h0.1h0.1c0,0.3,0.1,0.5,0.3,0.3c0.2-0.1,0.4-0.2,0.7-0.2c0-0.1,0-0.1,0-0.2c0,0,0-0.1,0-0.1
			c0.4-0.1,1-0.4,1.7-0.8c0.7-0.4,1.2-0.5,1.4-0.1C125.6,40.3,125.9,40.2,126.2,40.1 M110.8,44.8c-0.2,0-0.3-0.1-0.3-0.3h0.2
			C110.6,44.6,110.7,44.7,110.8,44.8 M114.3,44.1h0.4v0.1h-0.2C114.3,44.1,114.2,44.1,114.3,44.1 M109.2,50.3h0.1v0.2h-0.2
			C109.1,50.4,109.2,50.3,109.2,50.3 M109.9,46.4c-0.1,0-0.2,0-0.3,0.1c0-0.1,0.1-0.3,0.2-0.4c0,0,0.1-0.1,0.2-0.1
			C110,46.2,110,46.3,109.9,46.4 M106.4,56.1c0.2-0.4,0.4-0.8,0.7-1.3c0.3-0.5,0.7-1.1,1-1.6c0.3-0.4,0.6-0.8,0.9-1.3
			c0.3-0.4,0.7-0.9,1-1.4c0.8-1,1.5-2,2.2-3c0.7-1,1.4-1.8,1.9-2.4c0.3-0.3,0.7-0.8,1.4-1.5c0.7-0.7,1.3-1.2,1.8-1.4
			c0,0,0.1-0.1,0.3-0.1c0,0.1-0.2,0.5-0.4,1.3c-0.5,0.6-0.5,1,0.1,1.3c0.2,0.2,0.5,0.1,0.8-0.3c0.3-0.4,0.4-0.7,0.2-1
			c0.1-0.1,0.2-0.4,0.3-0.8c0.1-0.3,0.3-0.7,0.4-1c0.2-0.3,0.3-0.7,0.5-1v-0.3c0-0.2-0.1-0.4-0.3-0.5c-0.3-0.3-0.6-0.5-0.9-0.5
			c-0.1,0.1-0.3,0.1-0.4,0.2c-0.2,0-0.3,0.1-0.4,0.3c-0.7,0.8-1.2,1.4-1.6,1.8c-0.4,0.5-0.8,0.9-1.2,1.3c-0.4,0.4-0.6,0.6-0.6,0.7
			v0.3h0.1c0,0-0.1,0-0.1,0.1c-0.1,0-0.3-0.1-0.4-0.1c-0.9,1-1.5,1.8-2,2.3c-0.4,0.5-1.3,1.8-2.6,3.8v0.2c0,0,0,0.1-0.1,0.1h-0.1
			c0.5-2.1,1.1-4,2-5.6c0.9-1.6,1.5-3.1,1.9-4.5c0-0.3-0.2-0.5-0.6-0.6c-0.4-0.1-0.7,0-0.8,0.3c-0.1,0.7-0.4,1.4-0.9,1.9
			c-0.7,0.6-1.6,0.9-2.6,0.9c-0.9-0.3-1.4,0.1-1.4,1.1c0,0.2,0.2,0.3,0.6,0.4c1.1,0,2-0.3,2.8-0.8l0.4-0.3c-0.2,1.2-0.6,2.5-1.4,4
			l0.2-0.1c0,0.1,0,0.2-0.1,0.3h-0.1v0.1c0,0.2-0.1,0.3-0.3,0.4c-0.1,0.2-0.2,0.4-0.3,0.6c0.1,0,0.3-0.1,0.4-0.3
			c0,0.3-0.1,0.4-0.3,0.6c-0.1,0.1-0.3,0.3-0.4,0.4h-0.1c-0.3,0.6-0.5,1-0.8,1.3c0,0.2,0,0.3-0.1,0.4h-0.2l-0.4,0.8l0.1-0.1
			c0,0.1-0.1,0.2-0.1,0.3h-0.1l-0.1,0.1c0,0.1,0,0.3-0.1,0.4h-0.1l-0.3,0.6c0,0,0.2-0.1,0.4-0.3c-0.1,0.3-0.2,0.4-0.4,0.6
			c-0.2,0.1-0.3,0.3-0.3,0.4h-0.3l-0.4,0.8c-0.1,0.1-0.2,0.4-0.3,0.9c0,0.4,0.2,0.7,0.6,0.8C105.7,56.3,106.1,56.3,106.4,56.1
			 M93.3,47h0.1v-0.2v-0.2h-0.2c0,0,0,0.1,0,0.1C93.3,46.9,93.3,46.9,93.3,47 M103.7,40.7c-0.2,1.4-0.9,2.6-2,3.7
			c-0.7,0.7-1.5,1.3-2.4,1.7c-0.9,0.4-1.4,0.6-1.7,0.7c-0.9,0.3-1.5,0.3-1.9,0.2c-0.3-0.1-0.4-0.7-0.1-1.7h0.2l-0.1-0.1
			c0,0,0.1,0,0.1-0.1c0,0,0.1-0.1,0.1-0.3c0,0,0.1,0,0.1-0.1c0,0,0-0.1,0.1-0.2c0-0.1,0.1-0.1,0.1-0.2c0-0.1,0-0.1,0.1-0.1V44h0.3
			c-0.1-0.1-0.1-0.2-0.2-0.3c0.1-0.1,0.3-0.3,0.4-0.5c0.1-0.2,0.3-0.3,0.4-0.5l-0.1-0.1h0.1h0.1c0-0.3,0.2-0.6,0.6-1
			c0.4-0.4,0.8-0.7,1-0.9c-0.1,0-0.1,0-0.1-0.1c0.1,0,0.2,0,0.2-0.1c0.1-0.1,0.2-0.1,0.3-0.2v-0.3l-0.1-0.1c0.1,0,0.2-0.1,0.3-0.2
			c0.1-0.1,0.2-0.2,0.3-0.3c0.5-0.3,0.9-0.6,1.2-0.7h0.1c0.4-0.2,0.8-0.2,1.3-0.2C103.5,38.7,103.9,39.3,103.7,40.7 M98,54.4
			c-0.9,0.4-1.7,0.6-2.5,0.5c-0.8,0-1.4-0.5-1.9-1.3c-0.5-0.8-0.6-1.8-0.4-3.1c0.3-1.3,0.6-2.5,1.1-3.6c0.1-0.2,0.2-0.3,0.3-0.5
			c0.1-0.2,0.2-0.4,0.3-0.6c-0.5,1.3-0.2,1.9,0.9,2c1,0.1,2.4-0.3,4-1c1.1-0.5,2.1-1.2,3-2.1c0.9-0.9,1.3-2,1.5-3.2
			c0-0.5,0-1.1,0.1-1.9c0.1-0.8-0.3-1.2-1-1.4c-0.5,0-1.2,0-1.8,0.2c-0.7,0.2-1,0.3-0.9,0.4c-0.7-0.2-1.8,0.6-3.4,2.2
			c-1.6,1.6-2.8,3.4-3.7,5.2h-0.2c-0.2,0.2-0.2,0.3-0.1,0.3c0.3,0,0.4,0.1,0.4,0.3c-0.3,0.3-0.6,0.4-0.8,0.4c0,0,0.1,0.1,0.1,0.1
			c0,0.2,0,0.3-0.1,0.4h0.1c0,0.1-0.1,0.2-0.3,0.2c-0.5,0.9-0.9,1.8-1,2.7c-0.1,0.9-0.1,1.7,0,2.5c0.3,1.2,0.9,2,1.8,2.4
			c0.1,0,0.2,0,0.2-0.1c0,0,0-0.1,0.2-0.1c0,0.1,0.1,0.2,0.1,0.4c0.6,0.3,1.2,0.4,1.8,0.4c0.3,0,0.6,0,0.9-0.1
			c0.5-0.1,1.1-0.3,1.8-0.6c0.3-0.2,0.4-0.3,0.6-0.4c0,0,0.3-0.1,0.6-0.4c0.1-0.1,0.2-0.2,0.3-0.3h0.1l0.4-0.4
			c0.1-0.1,0.3-0.2,0.7-0.5c0.3-0.2,0.5-0.4,0.5-0.6c0.1,0,0.2-0.1,0.3-0.2c0.1-0.1,0.2-0.2,0.3-0.3c0,0,0.1-0.1,0.2-0.3
			c0.1-0.1,0.2-0.3,0.3-0.3c-0.1,0-0.2,0.1-0.3,0.2c-0.1,0.1-0.1,0.2-0.2,0.2c-0.1,0-0.1-0.1-0.1-0.2c0.1,0,0.3-0.1,0.4-0.2
			c0.1-0.1,0.2-0.1,0.3-0.1c0-0.3,0.1-0.5,0.3-0.7c-0.3,0.2-0.4,0.4-0.4,0.6c0-0.1-0.1-0.2-0.1-0.3c0-0.1,0.1-0.2,0.2-0.3
			c0.1-0.1,0.2-0.2,0.3-0.3c0-0.1,0-0.2-0.1-0.3h0.1c0,0,0.1,0,0.2-0.1c0-0.2,0.1-0.3,0.1-0.3c0-0.1,0.1-0.1,0.2-0.1v-0.1v-0.1
			c0.1,0,0.2-0.1,0.3-0.1c-0.2-0.1-0.4-0.1-0.6,0.1c-0.2,0.2-0.3,0.4-0.4,0.4c-0.4,0.5-0.8,1-1.3,1.5c-0.5,0.5-1,1-1.4,1.3
			c-0.2,0.1-0.3,0.2-0.5,0.4h-0.1C98.9,53.9,98.4,54.2,98,54.4 M82.8,47.3h0.1v-0.2h-0.2C82.7,47.2,82.7,47.2,82.8,47.3 M82.1,47.8
			c0.1,0,0.2-0.1,0.3-0.1c-0.1,0-0.1,0-0.1-0.1c-0.1,0-0.2,0-0.3,0c-0.1,0-0.1-0.1-0.2-0.1v0.1C81.9,47.7,82,47.7,82.1,47.8
			 M81.6,48h-0.2c-0.1,0.1-0.2,0.3-0.3,0.4C81.4,48.3,81.5,48.2,81.6,48 M74.7,56.2c0.1-0.4,0.5-1.1,1.2-2.1
			c0.4-0.5,1.2-1.4,2.3-2.9c1.2-1.4,2-2.4,2.5-2.7c0.1-0.3,0.3-0.5,0.6-0.6c0.1,0,0.3-0.1,0.4-0.1v-0.2v-0.3c0,0,0.2,0,0.5-0.1
			c0.3-0.1,0.4-0.2,0.3-0.4c0.3,0,0.4,0,0.5,0.1c0.5-0.4,1.3-0.9,2.4-1.5c1.1-0.6,2-1,2.7-1.1c-0.7,1-1.2,1.8-1.7,2.4
			c-0.5,0.6-0.9,1.1-1.2,1.5c-1.3,1.8-2.7,3.4-4.3,5.1c-1.6,1.6-3.5,2.6-5.8,3.1C74.8,56.7,74.7,56.6,74.7,56.2 M75.1,58.3
			c3.5-1.5,6.2-3.6,8.2-6.2c2-2.6,4.1-5.3,6.4-8c0,0,0.4,0,1.2-0.1c0.7-0.1,1.5,0,2.4,0.2c-0.2-0.1-0.7-0.2-1.3-0.3
			c-0.7,0-1.4-0.1-2.2-0.1c0.7-0.8,1.1-2,1.3-3.5c0.1-1.5-0.4-2.3-1.6-2.3c0,0-0.1-0.1-0.1-0.1c-0.9-0.1-1.9,0-3,0.3
			c-1.1,0.3-2,0.7-2.8,1.1v0.1h-0.1v0.2v0c-0.1,0-0.1,0.1-0.2,0.2c0,0.1,0,0,0-0.2h-0.1c-0.2,0.1-0.6,0.3-1,0.5
			c-0.5,0.3-0.9,0.5-1.2,0.8c0-0.4,0.3-1.3,1-2.6c0.7-1.4,1.4-2.8,2.3-4.3c0.8-1.5,1.9-3.5,3.4-5.9c0.6-0.6,0.8-1.2,0.5-1.6
			c-0.3-0.5-0.6-0.7-0.8-0.7c-0.5,0.1-0.8,0.3-0.9,0.6c-0.1,0.3-0.1,0.6-0.2,0.9c-0.3,0.3-0.3,0.6-0.2,0.8c-0.4,0.2-1.1,1.7-2.3,4.3
			c-1.1,2.7-2.4,5.3-4,7.8c-0.2,0.3-0.3,0.6-0.5,0.8c-0.3,0-0.5,0.2-0.8,0.7c-0.2,0.4-0.5,0.8-0.9,1.2c-0.5,0.4-0.7,0.7-0.7,1.1
			c0,0-0.1,0.1-0.3,0.1c-0.1,0.4-0.2,0.8-0.3,1.2c-0.1,0.4,0.1,0.7,0.5,0.8c0.4,0,0.7,0,0.9-0.1c0.3-0.1,0.5-0.3,0.8-0.5v-0.1v-0.1
			c0.3,0,0.7-0.3,1.1-0.9c0.4-0.6,0.8-1,1.2-1.2V43c0.5-0.5,1.4-1.3,2.9-2.4c1.4-1.2,2.8-1.7,4-1.8c-0.1-0.2,0-0.3,0.1-0.3v0.3
			c0.1,0,0.3,0,0.7-0.1c0.4,0,0.7,0,0.9,0.3c0.4,0.3,0.5,0.8,0.3,1.4c-0.1,0.7-0.3,1.2-0.4,1.6c-0.1,0.4-0.3,0.7-0.4,1
			c-0.1,0.3-0.3,0.6-0.6,0.9c-0.5,0.1-1.2,0.3-2,0.6c-0.8,0.3-1.5,0.6-2,0.8v0.1v0.1c-0.6,0.1-0.9,0.3-1,0.4c-0.1,0-0.2,0-0.3,0.1
			c0,0.1,0,0.1,0.1,0.2c-0.1,0-0.2,0-0.3,0.1v0.1c-0.4,0.1-0.8,0.3-1.1,0.6c-0.3,0.3-0.6,0.4-0.8,0.6v0.2c-0.1,0-0.1,0-0.1,0.1
			c-0.1,0-0.1,0.1-0.1,0.2c-0.9,0.4-1.9,1.3-3,2.7c-1.2,1.4-2.1,2.7-2.9,3.9c-0.5,0.6-0.8,1.1-0.9,1.5c-0.2,0.4-0.3,0.8-0.4,1.2
			c-0.1,0.7,0,1,0.5,1C74.4,58.5,74.8,58.4,75.1,58.3 M73.2,38.4c0.8,0,1.1-0.4,1.1-1c0.1-0.4,0-0.7-0.3-0.9
			c-0.3-0.1-0.4-0.3-0.4-0.4c-0.7-0.1-1.2,0-1.5,0.2c-0.5,0.2-0.7,0.6-0.4,1.4C72,38.3,72.5,38.5,73.2,38.4 M65.7,55.9
			c0.1,0.1,0.2,0.2,0.3,0.3c0.5,0,0.9,0,1.4,0c0.1,0,0.4-0.1,0.8-0.3c0.4-0.2,0.8-0.4,1.1-0.5c0.1,0,0.3-0.1,0.5-0.3
			c0.2-0.1,0.4-0.3,0.4-0.5c0.1,0,0.2,0,0.3-0.1c0.1-0.1,0.2-0.1,0.3-0.2c0,0,0.1-0.1,0.3-0.2c0.1-0.1,0.3-0.2,0.4-0.3
			c-0.1,0-0.2,0-0.3,0.1c-0.1,0.1-0.1,0.1-0.2,0.1c-0.2,0-0.2,0,0-0.1c0.1,0,0.2,0,0.4-0.1c0.2-0.1,0.3-0.1,0.4-0.1
			c0.1-0.3,0.2-0.4,0.4-0.6c-0.4,0.1-0.6,0.3-0.6,0.5c0-0.1-0.1-0.2-0.1-0.3c0.4-0.2,0.6-0.3,0.7-0.4c0-0.1,0-0.1,0-0.2
			c0.1,0,0.1-0.1,0.2,0c0,0,0.1,0,0.2,0c0,0,0-0.1,0.1-0.2c0.1-0.1,0.1-0.1,0.1-0.2c0-0.1,0.1-0.2,0.1-0.2v-0.1c0.2,0,0.3,0,0.4-0.1
			c-0.2-0.1-0.4-0.1-0.6,0c-0.2,0.1-0.4,0.3-0.5,0.4c-0.7,0.4-1.4,0.9-2.3,1.4c-0.9,0.5-1.5,0.8-1.8,0.9c-0.3,0-0.5,0.1-0.8,0.1
			c-0.3,0-0.6,0-0.7-0.1c-0.1-0.1-0.1-0.3-0.1-0.4c0-0.2,0-0.3,0-0.4c0.1-0.7,0.4-1.5,0.9-2.5c0.5-1,1-2.2,1.6-3.6
			c0.6-1.3,1.2-2.6,1.8-3.7c0.6-1.1,1-1.7,1.4-1.9v-0.1c0.2-0.1,0.4-0.4,0.6-0.8c0.2-0.4,0.3-0.8,0.3-1.1c-0.1-0.5-0.5-0.7-1.3-0.7
			c-0.5,0-0.8,0.2-1,0.5c-0.1,0.4-0.2,0.6-0.2,0.7c0,0.1-0.3,0.9-0.9,2.4c-0.6,1.4-1.2,3-1.9,4.7c-0.8,1.7-1.6,3.6-2.6,5.5
			c-0.3,0.6-0.4,1.1-0.2,1.6c0,0-0.1,0.1-0.1,0.3c0.2,0,0.3,0,0.3,0.1v0.1c0,0.1,0.1,0.2,0.3,0.3C65.6,55.7,65.6,55.8,65.7,55.9
			 M52.3,44.9c0,0,0.1-0.1,0.2-0.2c-0.2,0-0.3,0-0.3,0.1L52.3,44.9C52.3,45,52.3,45,52.3,44.9 M44.9,57c0.1,0,0.1,0,0.2,0
			c0-0.1,0-0.1-0.1-0.2c0,0,0-0.1,0.1-0.1l0.1,0.1c0,0.1-0.1,0.1-0.1,0.2c0.2,0,0.4-0.1,0.5-0.2c0.1-0.1,0.3-0.2,0.5-0.3
			c0-0.1-0.1-0.1-0.1-0.2c0,0,0.1,0,0.2-0.1c0.1,0,0.1-0.1,0.2-0.1c0.1-0.3,0.6-0.7,1.7-1.2c1-0.5,1.7-0.8,1.9-0.8v-0.2
			c0.2-0.1,0.4-0.2,0.7-0.3c0.2-0.1,0.5-0.2,0.7-0.3v-0.1c0.3,0,0.5-0.1,0.6-0.3c0.9-0.3,1.8-0.6,2.7-1.1c0.9-0.5,1.8-0.7,2.8-0.7
			v-0.1c0.8,0,1.5-0.1,2.1-0.2c0.7-0.1,1.4-0.1,2.3-0.1v0.4c0.1,0.1,0.2,0.1,0.3,0.2c0,0,0.1,0.1,0.3,0.1v0.3c0.2,0,0.3,0,0.5,0.1
			c0.1,0,0.3,0.1,0.5,0.1c0-0.1,0-0.1,0.1-0.1c0.3,0,0.5-0.3,0.7-0.9c0-0.5-0.1-0.8-0.3-0.9c0-0.5-0.8-0.8-2.3-0.8
			c-1.5,0-2.5,0-2.9,0v0.2c-0.1,0-0.3,0-0.6,0c-0.3,0-0.4,0.1-0.4,0.2c-1.3,0-2.8,0.4-4.6,1.2c-1.8,0.8-2.9,1.2-3.1,1.3v0.1v0.1
			c-0.2,0-0.4,0.1-0.7,0.1c0,0-0.1,0.1-0.2,0.3c-0.2,0-0.4,0.1-0.7,0.2c-0.3,0.1-0.5,0.2-0.7,0.3c0,0.1-0.1,0.1-0.1,0.2
			c-0.2,0-0.3,0-0.3-0.1c0.2-0.3,0.3-0.6,0.4-0.9c0,0,0-0.1-0.1-0.1c0.2,0,0.3-0.1,0.4-0.1c0.1-0.3,0.2-0.5,0.3-0.7
			c0.1-0.2,0.3-0.5,0.4-0.8h0.2c-0.1-0.1-0.1-0.3,0.1-0.5c0.1-0.3,0.3-0.4,0.4-0.6c0.2-0.3,0.2-0.5,0.2-0.6
			c-0.3,0.3-0.5,0.6-0.6,0.9h-0.1H49V50c0.1-0.1,0.3-0.3,0.4-0.5c0.1-0.3,0.3-0.5,0.3-0.6c0.3-0.1,0.6-0.4,0.8-0.8h0.2
			c0.1-0.5,0.3-0.9,0.5-1.3c-0.2,0.1-0.3,0.3-0.4,0.4c0,0.2-0.1,0.3-0.3,0.4h-0.2c0-0.1,0.1-0.4,0.4-0.9c0.3-0.5,0.5-0.7,0.7-0.7
			c-0.2,0.2-0.3,0.4-0.3,0.6h0.3c0-0.1,0-0.2,0-0.3c0-0.1,0-0.2,0-0.3h0.2c0-0.1,0-0.2,0.1-0.3c0.1-0.1,0.1-0.2,0.1-0.3
			c0,0-0.1,0.1-0.2,0.3c-0.1,0.1-0.2,0.2-0.2,0.2v-0.1c0.1-0.1,0.4-0.6,0.9-1.5c0.5-0.9,0.8-1.4,0.8-1.5c0,0-0.1-0.1-0.3-0.1
			c0.1-0.1,0.2-0.2,0.3-0.3c0-0.1,0.1-0.3,0.3-0.4h0.2c0-0.1,0.2-0.6,0.5-1.3c0.4-0.7,0.7-1.6,1.2-2.5c0.3-0.6,0.5-1.1,0.7-1.4
			c0.2-0.3,0.3-0.6,0.4-1c-0.1,0-0.1-0.1-0.2-0.1c0.1-0.1,0.2-0.2,0.3-0.4c0.1,0,0.2,0,0.3-0.1c-0.1-0.2,0-0.6,0.2-1.3
			c0.2-0.6,0.4-1.1,0.5-1.5h0.3c0-0.2,0-0.5,0.1-0.9c0.1-0.4,0.2-0.7,0.4-0.8c0-0.8,0-1.3,0-1.7c0-0.4-0.3-0.5-1.1-0.5
			c0,0.3-0.1,0.5-0.2,0.6c-0.1,0.1-0.2,0.2-0.1,0.4c0,0.1-0.7,1.3-1.9,3.6c-0.1,0-0.1,0.1,0,0.2c0.1,0.1,0.2,0.2,0.2,0.2L55,34
			c0,0.1,0,0.2,0.1,0.4c0.3,0.2,0.1,0.9-0.3,2c-0.5,1.1-0.8,1.7-0.9,1.7c0,0.2-0.1,0.4-0.3,0.7c0,0.1,0.1,0.2,0.3,0.2
			c-0.1,0.1-0.3,0.4-0.5,0.9c-0.3,0.5-0.5,1-0.8,1.6c-0.3,0.6-0.6,1.3-1.1,2.2c-0.2,0.5-0.4,0.9-0.7,1.3c0,0,0,0.1,0.1,0.2
			c-0.2,0-0.3,0-0.3,0.1c0,0.4-0.1,0.7-0.3,0.8c-0.2,0.1-0.3,0.4-0.3,1l-1.7,2.6c0,0-0.1,0.1-0.3,0.2v0.1c-0.3,0.1-0.6,0.6-1.1,1.5
			c-0.5,0.9-0.8,1.5-0.8,1.8c-0.4,0.5-0.8,0.8-1.2,1c-0.4,0.1-0.7,0.4-0.8,0.7c-0.1,0.3-0.2,0.7-0.2,1.1c0,0.4,0.3,0.7,0.9,0.8
			c0,0.1-0.1,0.2-0.1,0.3C44.8,57.1,44.9,57.1,44.9,57"/>
	</g>
	<polyline class="st19" points="48.6,20.9 48.6,7.6 211.7,7.6 211.7,20.9 	"/>
	<polyline class="st19" points="48.6,75.8 48.6,89.7 211.7,89.7 211.7,75.4 	"/>
</g>
</svg>
