<?xml version="1.0" encoding="utf-8"?>
<!-- Generator: Adobe Illustrator 22.0.1, SVG Export Plug-In . SVG Version: 6.00 Build 0)  -->
<svg version="1.1" id="Capa_1" xmlns="http://www.w3.org/2000/svg" xmlns:xlink="http://www.w3.org/1999/xlink" x="0px" y="0px"
	 viewBox="0 0 260 98.9" style="enable-background:new 0 0 260 98.9;" xml:space="preserve">
<style type="text/css">
	.st0{fill:#FFFFFF;}
	.st1{fill:none;stroke:#E66728;stroke-width:2;stroke-linecap:round;stroke-linejoin:round;}
	.st2{fill:#E66728;}
	.st3{fill:none;stroke:#E66728;stroke-width:1.5;stroke-linecap:round;stroke-linejoin:round;}
	.st4{clip-path:url(#SVGID_2_);fill:#E66728;}
	.st5{clip-path:url(#SVGID_2_);fill:#FFFFFF;}
	.st6{fill:none;stroke:#D25A2B;stroke-width:2.082;stroke-linecap:round;stroke-linejoin:round;}
	.st7{fill:none;stroke:#D25A2B;stroke-width:1.948;stroke-linecap:round;stroke-linejoin:round;}
	.st8{clip-path:url(#SVGID_4_);fill:#E66728;}
	.st9{clip-path:url(#SVGID_4_);fill:#FFFFFF;}
	.st10{clip-path:url(#SVGID_6_);fill:#E66728;}
	.st11{clip-path:url(#SVGID_6_);fill:#FFFFFF;}
	.st12{clip-path:url(#SVGID_8_);fill:#E66728;}
	.st13{clip-path:url(#SVGID_8_);fill:#FFFFFF;}
	.st14{fill:none;stroke:#D66F2C;stroke-width:1.594;stroke-linecap:round;stroke-linejoin:round;}
	.st15{clip-path:url(#SVGID_10_);fill:#FFFFFF;}
	.st16{clip-path:url(#SVGID_12_);fill:#FFFFFF;}
	.st17{clip-path:url(#SVGID_14_);fill:#FFFFFF;}
	.st18{fill:none;stroke:#D25A2B;stroke-width:1.906;stroke-linecap:round;stroke-linejoin:round;}
	.st19{fill:none;stroke:#DF6829;stroke-width:1.763;stroke-linecap:round;stroke-linejoin:round;}
	.st20{fill:none;stroke:#D25A2B;stroke-width:1.763;stroke-linecap:round;stroke-linejoin:round;}
</style>
<g>
	<g>
		<path class="st0" d="M163.4,41.3l-0.1-0.1c-0.1,0-0.1-0.1,0.1-0.3c0.1-0.1,0.3-0.2,0.5-0.3c0.2,0,0.4-0.1,0.7-0.1
			c0-0.1,0.1-0.2,0.4-0.3c0.2,0,0.4,0,0.4,0c0.3,0.4,0.4,0.7,0.4,0.9c-0.2,0.3-0.5,0.5-0.8,0.5c-0.3,0.1-0.6,0.1-0.8,0
			C163.6,41.8,163.4,41.6,163.4,41.3 M155.2,53.7c0.5-1.3,1.1-2.6,1.7-3.8c0.7-1.2,1.3-2.4,2-3.4c0.6-1,1.1-1.7,1.5-2.2
			c0.1-0.1,0.3-0.2,0.5-0.3c0.2-0.1,0.4-0.2,0.6-0.3c0.7,0.1,1.5,0.1,2.4,0c0.9-0.1,1.4-0.2,1.7-0.4c-0.4,2.2-1.1,4.1-2.1,5.8
			c-1,1.7-2,3.2-3.1,4.4c-1.1,1.2-2,2-2.9,2.6c-0.9,0.6-1.4,0.8-1.5,0.6h-0.3h-0.2v0.1c-0.3,0-0.6,0.1-0.8,0.3
			C154.6,56.1,154.8,55,155.2,53.7 M155,58.3h0.6c0.2,0,0.4,0,0.4-0.1c0.9-0.3,2.2-1.1,3.7-2.5c1.6-1.4,2.4-2.3,2.4-2.8
			c0.1-0.1,0.3-0.2,0.4-0.2v-0.1c0.1-0.1,0.3-0.2,0.5-0.3V52c0,0-0.1,0-0.1-0.1c0,0-0.1-0.1-0.1-0.1c0,0,0.1,0,0.1,0
			c0,0,0.1,0,0.1,0v-0.1c0,0,0.1-0.1,0.4-0.2c0.7-1,1.3-2.2,1.8-3.5c0.5-1.3,0.9-2.4,1.3-3.5l-0.1-0.1c0.1-0.3,0.3-0.6,0.4-1
			c0.1-0.4,0.2-0.7,0.4-1c1.4-0.2,2.6-0.9,3.6-1.8c0.9-1,2.6-1.5,5.1-1.5c0.1,0.5,0.4,0.6,0.9,0.3c0.4-0.1,0.6-0.3,0.7-0.4
			c0.1-0.1,0-0.3-0.3-0.6c-0.4-0.3-0.8-0.4-1.2-0.4s-0.8,0-1.1,0.1l-0.2,0.2c-0.7,0.1-1.5,0.3-2.3,0.6c-0.8,0.3-1.5,0.6-2.3,0.8
			c-0.6,0.2-1.1,0.4-1.6,0.6c-0.5,0.1-1,0.2-1.4,0.2c0-0.4-0.1-0.8-0.4-1.2c-0.2-0.4-0.5-0.7-0.8-0.7c-1,0-2,0.1-3.1,0.4
			c-1.1,0.3-1.9,0.9-2.3,1.8c-0.3,0.6-0.5,0.9-0.6,0.9c-0.1,0-0.1,0.4,0,1.2c-0.2,0.2-0.4,0.5-0.6,0.9c-0.2,0.4-0.4,0.7-0.6,0.7
			c0,0.1,0.1,0.3,0.1,0.5h-0.1h-0.1c-0.2,0.8-0.8,1.9-1.8,3.3c-1,1.4-1.8,2.7-2.2,3.8c-0.4,0.9-0.7,1.6-0.8,2.2
			c-0.2,0.6-0.3,1.2-0.5,2c-0.1,1.2,0,2.1,0.6,2.4C154.4,58.9,154.8,58.7,155,58.3 M166.5,37.1c0.2,0,0.4,0,0.4-0.1l0.1-0.1
			c0.4,0,1-0.2,1.8-0.8c0.8-0.6,1.4-1,2-1.3c0.2-0.1,0.4-0.2,0.6-0.3v-0.3c0.3,0,0.5,0,0.5-0.1c0.2,0,0.3-0.2,0.3-0.4
			c0,0,0.2,0,0.4-0.1c0.2-0.1,0.4-0.1,0.5-0.2c0.1,0,0.1-0.1,0.1-0.1c0-0.1,0.2-0.2,0.4-0.2c-0.2-0.1-0.6-0.1-1-0.1h-0.1h-0.2
			c0,0,0,0-0.1,0c-0.6,0.2-1.2,0.4-1.7,0.8c-0.6,0.3-1.2,0.6-1.7,0.9c-0.5,0.3-1,0.5-1.4,0.6c-0.4,0.1-0.7,0.3-0.9,0.4
			c-0.2,0.1-0.3,0.3-0.4,0.4c0,0.1,0,0.4,0.1,0.8h0.2C166.3,37,166.4,37.1,166.5,37.1 M142.1,45.2c-0.2,0-0.4-0.1-0.4-0.3h0.2
			C141.9,45.1,142,45.2,142.1,45.2 M146.1,44.4h0.4v0.1h-0.2C146.1,44.5,146.1,44.4,146.1,44.4 M140.3,51.5h0.1v0.2h-0.2
			C140.2,51.6,140.2,51.5,140.3,51.5 M141.1,47.1c-0.1,0-0.2,0-0.3,0.1c0-0.1,0.1-0.3,0.2-0.4c0,0,0.1-0.1,0.2-0.1
			C141.2,46.8,141.2,46.9,141.1,47.1 M137.1,58.2c0.2-0.4,0.5-0.9,0.8-1.5c0.4-0.6,0.8-1.2,1.2-1.8c0.3-0.5,0.7-1,1.1-1.5
			c0.4-0.5,0.8-1,1.2-1.6c0.9-1.2,1.7-2.3,2.6-3.4c0.8-1.1,1.6-2,2.2-2.7c0.3-0.3,0.8-0.9,1.7-1.8c0.8-0.8,1.5-1.4,2.1-1.6
			c0,0,0.2-0.1,0.4-0.1c0,0.1-0.2,0.6-0.4,1.4c-0.6,0.7-0.5,1.2,0.1,1.5c0.2,0.2,0.6,0.1,0.9-0.4c0.4-0.5,0.5-0.8,0.2-1.1
			c0.1-0.1,0.2-0.5,0.4-0.9c0.1-0.4,0.3-0.8,0.5-1.2c0.2-0.4,0.4-0.8,0.6-1.2V40c0-0.2-0.1-0.4-0.4-0.6c-0.4-0.4-0.7-0.6-1-0.6
			c-0.1,0.1-0.3,0.2-0.5,0.2c-0.2,0-0.3,0.1-0.4,0.3c-0.8,0.9-1.4,1.6-1.8,2.1c-0.5,0.5-0.9,1-1.3,1.5c-0.4,0.5-0.7,0.7-0.7,0.8v0.3
			h0.1c0,0-0.1,0-0.1,0.1c-0.1,0-0.3-0.1-0.4-0.1c-1,1.2-1.8,2-2.3,2.6c-0.5,0.6-1.5,2-3,4.4v0.2c0,0,0,0.1-0.1,0.1h-0.1
			c0.5-2.4,1.3-4.6,2.3-6.4c1-1.8,1.7-3.6,2.2-5.1c0-0.3-0.2-0.6-0.7-0.6c-0.5-0.1-0.8,0-1,0.4c-0.1,0.8-0.5,1.6-1.1,2.2
			c-0.8,0.7-1.8,1.1-3,1.1c-1.1-0.3-1.6,0.1-1.6,1.3c0,0.2,0.2,0.4,0.7,0.5c1.2,0,2.3-0.3,3.2-0.9l0.5-0.4c-0.2,1.3-0.7,2.9-1.6,4.6
			l0.2-0.1c0,0.1,0,0.3-0.1,0.4h-0.1v0.1c0,0.2-0.1,0.4-0.3,0.4c-0.1,0.2-0.2,0.5-0.4,0.7c0.1,0,0.3-0.1,0.4-0.3
			c0,0.3-0.2,0.5-0.3,0.6c-0.2,0.1-0.3,0.3-0.5,0.5h-0.1c-0.3,0.7-0.6,1.2-0.9,1.5c0,0.2,0,0.3-0.1,0.4h-0.2l-0.4,0.9l0.1-0.1
			c0,0.1-0.1,0.3-0.1,0.4h-0.1l-0.1,0.1c0,0.1,0,0.3-0.1,0.4h-0.1l-0.4,0.7c0,0,0.2-0.1,0.5-0.3c-0.1,0.3-0.2,0.5-0.4,0.6
			c-0.2,0.1-0.3,0.3-0.4,0.5h-0.3l-0.5,0.9c-0.1,0.1-0.3,0.5-0.4,1c0,0.5,0.2,0.8,0.6,0.9C136.3,58.5,136.7,58.4,137.1,58.2
			 M123.7,52.5c-0.1,0.2-0.1,0.4-0.1,0.6c0,0,0.1-0.1,0.1-0.1c0.1-0.2,0.2-0.6,0.3-1.1C123.9,52,123.8,52.2,123.7,52.5 M124.7,50.1
			h0.1c0-0.1,0.1-0.3,0.2-0.6h-0.3c0,0.1,0,0.3,0,0.3C124.7,49.9,124.7,50,124.7,50.1 M125,48.8v-0.2h0.1v0.1L125,48.8z M126.1,46.8
			h0.1c0-0.1,0-0.3,0.1-0.6c0.1-0.2,0.1-0.4,0.1-0.6c-0.1,0.2-0.2,0.4-0.3,0.6C126.1,46.4,126.1,46.6,126.1,46.8 M127.1,44l0.2-0.1
			v-0.1C127.2,43.8,127.2,43.8,127.1,44 M127.8,43c-0.1,0-0.1-0.2,0-0.4h-0.2c0,0.2,0,0.3-0.1,0.3c0,0,0,0.1,0.1,0.1
			C127.6,43,127.6,43,127.8,43 M128,42.2c0.1-0.1,0.2-0.2,0.2-0.3c-0.3,0.1-0.4,0.2-0.4,0.3c0,0.1,0,0.2,0,0.4
			C127.8,42.4,127.8,42.3,128,42.2 M128.4,41.2l-0.1,0.2C128.3,41.3,128.4,41.3,128.4,41.2 M127.3,39.9c-0.7,1.5-1.2,2.9-1.3,4h-0.2
			v0.4c-0.1,0-0.2,0-0.4,0.1c0,0,0-0.2,0.1-0.5c-0.3,0.2-0.5,0.5-0.4,1h-0.1c0,0.2,0,0.4-0.1,0.7c-0.1,0.3-0.3,0.5-0.4,0.5
			c-0.2,0.4-0.8,1.7-1.5,3.9c-0.8,2.2-1.4,4-1.9,5.6c-0.3,0.8-0.5,1.5-0.5,1.9c0,0,0,0.1,0,0.2c0,0.1,0,0.2,0,0.2
			c0,0,0.1,0.1,0.2,0.1c0,0.4,0.3,0.8,0.7,1.2c0.5,0.1,1,0.1,1.6,0c0.1,0,0.4-0.1,0.9-0.4c0.5-0.2,0.9-0.4,1.3-0.6
			c0.6,0,0.9-0.2,1.1-0.7c0.4-0.2,0.6-0.3,0.7-0.4c0.1,0,0.2-0.1,0.4-0.2c0.1-0.1,0.3-0.2,0.4-0.3c-0.1,0-0.3,0.1-0.5,0.2
			c-0.1-0.1-0.1-0.1,0-0.1c0.3-0.3,0.6-0.4,0.9-0.2c0-0.2,0.1-0.5,0.4-0.6c-0.1,0-0.3,0.2-0.6,0.5c-0.1-0.1-0.1-0.2-0.1-0.3
			c0,0,0.4-0.1,0.9-0.4c0-0.1,0-0.2-0.1-0.4h0.2h0.2c0.1-0.1,0.2-0.2,0.2-0.2l0.1-0.2c0,0,0-0.1,0.1-0.1c0,0,0.1-0.1,0.3-0.1
			c-0.1-0.1-0.3-0.1-0.6,0c-0.3,0.1-0.5,0.3-0.6,0.4c-0.7,0.5-1.6,1.1-2.6,1.6c-1,0.6-1.7,0.9-2.1,0.9c-0.6,0.1-1,0.1-1.2-0.1
			c0-0.1,0-0.3-0.1-0.5c0-0.1,0.1-0.4,0.1-0.6c0-0.3,0.1-0.6,0.1-0.9c0.1-0.3,0.2-0.6,0.3-0.8c0.1-0.3,0.1-0.5,0-0.7v-0.1
			c0.2,0,0.3-0.1,0.3-0.3l-0.2,0.1h-0.1c0-0.1,0-0.2-0.1-0.3c0.1,0,0.2-0.2,0.2-0.4c0-0.2,0-0.4,0.1-0.5c0,0,0.1,0,0.1-0.1
			c0-0.1,0-0.3,0.1-0.4c0.1-0.1,0.1-0.3,0.1-0.4c0.3,0,0.4-0.2,0.4-0.5c0-0.3,0.1-0.5,0.4-0.7h-0.3c0,0.4-0.1,0.6-0.3,0.5
			c0-0.1,0-0.3,0.1-0.4c0.1-0.1,0.1-0.2,0.1-0.3c0,0,0.1-0.1,0.2-0.1c0-0.4,0.1-0.8,0.4-1c0.2-0.3,0.5-0.5,0.6-0.8h-0.4
			c0-0.1,0.1-0.2,0.2-0.2c0.1,0,0.2-0.1,0.3-0.2v-0.2c0,0-0.1,0-0.2,0.1c0,0,0-0.1-0.1-0.1c0,0-0.1-0.1-0.1-0.1
			c0.1,0,0.3-0.1,0.5-0.1c-0.3-0.3-0.3-0.6,0.1-0.8c-0.2-0.3-0.2-0.6,0.1-0.6c0,0-0.1,0-0.1,0c0,0,0-0.1,0-0.1
			c0.1-0.1,0.2-0.2,0.3-0.4c0-0.1,0.1-0.3,0.3-0.4l0.1,0.1h0.2v-0.1c-0.2,0-0.3-0.1-0.3-0.2c0.1,0,0.2-0.1,0.3-0.1
			c0,0-0.1-0.1-0.1-0.3c0.1-0.1,0.1-0.2,0.1-0.4c0.1,0,0.2,0,0.3,0c0.1,0,0.1,0,0.2,0v-0.1H127h-0.2c0,0,0-0.1-0.1-0.2
			c0.1-0.1,0.2-0.2,0.3-0.2c0.1,0,0.3-0.1,0.4-0.3v-0.1h-0.1h-0.1c0-0.1-0.1-0.2-0.1-0.3c0,0,0-0.1,0.1-0.1c0,0.1,0.1,0.2,0.1,0.2
			c-0.1-0.1,0-0.5,0.2-1.1c0.2-0.6,0.5-0.9,0.6-0.9c0,0-0.1-0.1-0.1-0.1h0.2v-0.2v-0.2h0.1h0.1c-0.2-0.2-0.2-0.4,0.1-0.4
			c0,0.1,0,0.2,0,0.3l0.1,0.1c0.3-0.6,0.4-1,0.4-1.2c-0.1,0.2-0.3,0.4-0.3,0.5c-0.1,0.1-0.1,0.1-0.1,0.2h-0.1c0,0,0-0.1-0.1-0.2
			c0.1-0.2,0.2-0.4,0.4-0.4c-0.1,0-0.1,0-0.1-0.1h0.1v-0.2l0.2-0.1v0.2c0-0.1,0.1-0.1,0.3-0.1c0,0-0.1,0-0.1-0.1
			c0.8-0.2,1.6-0.3,2.4-0.5c0.8-0.1,1.6-0.1,2.3,0l0.2-0.2c0.3,0.2,0.6,0.2,1.1,0.1c0.4-0.1,0.8-0.1,1.1,0.1
			c0.2-0.2,0.5-0.4,0.7-0.4c0-0.2-0.1-0.3-0.1-0.4c0.1-0.1,0.3-0.2,0.4-0.3c0.1,0,0.2,0.1,0.3,0.2c-0.1,0-0.2,0.2-0.2,0.4h-0.1
			c0,0.2,0.2,0.4,0.6,0.4v-0.1v-0.1c0.1,0,0.3,0,0.4-0.1c0.1-0.1,0.2-0.2,0.4-0.3c0,0-0.1-0.2-0.1-0.4c-0.5,0.1-0.8,0.1-0.8-0.1
			c-0.1-0.1-0.3-0.3-0.7-0.4c0,0,0,0.1-0.1,0.1c-0.2,0-0.3,0-0.3-0.1c-0.7,0-1.2,0.1-1.3,0.1h-0.4v-0.3c-0.1,0-0.2,0-0.2,0.1
			c0,0-0.1,0.1-0.2,0.1c0,0,0,0.1-0.1,0.2h-0.1h-0.1v-0.2c0,0-0.1,0.1-0.1,0.1c-0.4,0-1,0-1.8,0.1c-0.7,0.1-1.6,0.2-2.5,0.3
			c0.1-0.2,0.1-0.4,0.1-0.6h0.1h0.1c0,0.1,0,0.3-0.1,0.4c0.1,0,0.1-0.1,0.1-0.2c0-0.1,0.1-0.3,0.2-0.4v-0.1c-0.1,0-0.2,0-0.3-0.1
			v-0.1l1.4-2.9c0.3-0.1,0.5-0.4,0.5-0.6c0-0.3,0.1-0.5,0.1-0.6c0-0.3-0.3-0.4-0.8-0.4c-0.5,0-0.8,0.2-0.9,0.5
			c-0.2,0.3-0.4,0.6-0.6,0.9c-0.2,0.3-0.4,0.7-0.4,1.2c-0.1,0.1-0.2,0.2-0.3,0.3c-0.1,0.1-0.1,0.2-0.2,0.2l-0.2,0.9
			c-0.1,0.2-0.1,0.4-0.1,0.5l-0.4,0.7c0,0,0,0.1-0.1,0.1h0.1L128,38c-1.4,0.3-2.8,0.6-4,1c-1.2,0.4-2.1,0.8-2.5,1.2
			c0,0.1,0,0.2,0,0.3c-0.1,0-0.1,0.1-0.1,0.2v0.3c0,0.1,0,0.3,0.1,0.4h0.1h0.1c0,0.4,0.1,0.5,0.4,0.4c0.2-0.1,0.5-0.2,0.8-0.2
			c0-0.1,0-0.2,0-0.2c0,0,0-0.1,0-0.1c0.5-0.1,1.1-0.5,1.9-1c0.8-0.5,1.3-0.5,1.6-0.1C126.7,40.1,127,40,127.3,39.9 M119.9,37.9
			c0.9,0,1.3-0.4,1.3-1.2c0.1-0.5,0-0.8-0.4-1c-0.3-0.1-0.4-0.3-0.4-0.4c-0.8-0.1-1.4,0-1.7,0.2c-0.6,0.2-0.8,0.7-0.4,1.6
			C118.5,37.8,119.1,38,119.9,37.9 M111.3,57.9c0.1,0.1,0.2,0.2,0.3,0.3c0.5,0,1.1,0,1.6,0c0.1,0,0.5-0.1,0.9-0.3
			c0.5-0.2,0.9-0.4,1.3-0.6c0.1,0,0.3-0.2,0.6-0.3c0.3-0.2,0.4-0.3,0.5-0.5c0.1,0,0.3,0,0.4-0.1c0.1-0.1,0.2-0.2,0.4-0.2
			c0,0,0.2-0.1,0.3-0.2c0.2-0.1,0.3-0.3,0.5-0.4c-0.1,0-0.3,0-0.4,0.1c-0.1,0.1-0.2,0.1-0.2,0.1c-0.2,0-0.2,0,0-0.1
			c0.1,0,0.2,0,0.4-0.1c0.2-0.1,0.3-0.1,0.4-0.1c0.1-0.3,0.3-0.5,0.5-0.6c-0.4,0.1-0.6,0.3-0.6,0.6c0-0.1-0.1-0.2-0.1-0.3
			c0.4-0.2,0.7-0.3,0.8-0.4c0-0.1,0-0.2,0-0.2c0.1,0,0.2-0.1,0.2,0c0,0,0.1,0,0.2,0c0,0,0-0.1,0.1-0.2c0.1-0.1,0.1-0.1,0.1-0.2
			c0-0.1,0.1-0.2,0.1-0.2v-0.1c0.2,0,0.3,0,0.4-0.1c-0.2-0.1-0.4-0.1-0.6,0c-0.2,0.2-0.4,0.3-0.6,0.5c-0.8,0.5-1.6,1-2.6,1.6
			c-1,0.6-1.7,0.9-2,1c-0.3,0-0.6,0.1-1,0.1c-0.4,0-0.6,0-0.8-0.1c-0.1-0.1-0.1-0.3-0.1-0.5c0-0.2,0-0.4,0-0.5
			c0.1-0.8,0.5-1.7,1-2.9c0.5-1.2,1.2-2.5,1.9-4.1c0.7-1.5,1.4-2.9,2.1-4.2c0.7-1.3,1.2-2,1.6-2.2v-0.1c0.2-0.1,0.4-0.5,0.6-0.9
			c0.2-0.5,0.3-0.9,0.3-1.2c-0.1-0.5-0.6-0.8-1.4-0.8c-0.6,0-0.9,0.2-1.1,0.6c-0.2,0.4-0.3,0.7-0.3,0.8c0,0.1-0.3,1-1,2.7
			c-0.7,1.7-1.4,3.4-2.2,5.4c-0.9,2-1.8,4.1-2.9,6.3c-0.3,0.7-0.4,1.3-0.2,1.8c0,0-0.1,0.2-0.1,0.4c0.2,0,0.3,0,0.4,0.1v0.1
			c0,0.1,0.1,0.2,0.3,0.3C111.1,57.7,111.2,57.8,111.3,57.9 M90,55.3V55h0.2v0.2C90.1,55.2,90.1,55.2,90,55.3 M88.4,62.2
			c0.1-0.2,0.3-0.4,0.6-0.5c0-0.6,0.2-1.1,0.7-1.7c0.5-0.5,0.7-1.1,0.6-1.7c0.1,0,0.3-0.3,0.4-0.7c0.1,0,0.2,0,0.2-0.1
			c0-0.3,0.2-0.7,0.5-1.1c0.3-0.4,0.5-0.8,0.5-1.2c0.1,0,0.2-0.1,0.2-0.1c0-0.4,0.4-1,0.9-1.8c0.6-0.8,0.8-1.3,0.8-1.4
			c1.1-2.6,2.9-5.6,5.6-9c2.7-3.4,5.5-8.3,8.4-14.5h0.4c0-0.1,0-0.3,0-0.5c0.1,0,0.2-0.1,0.3-0.1v-0.2c0.2,0,0.5-0.4,0.8-1
			c0.3-0.6,0.4-1,0.5-1.3c0.2,0,0.3-0.1,0.4-0.1c0-0.1,0-0.2-0.1-0.3l0.2-0.8c-0.1-0.1-0.3-0.2-0.5-0.3c-0.2-0.1-0.4-0.2-0.4-0.3
			c-0.4,0-0.7,0.1-0.8,0.4c-0.1,0.3-0.3,0.5-0.5,0.6c-0.1,0.4-0.5,0.8-0.9,1c0,0.1,0.1,0.2,0.1,0.3c0,0.1,0.1,0.1,0.1,0.1
			c-0.1,0.2-0.3,0.3-0.4,0.4c-0.1,0.1-0.1,0.3-0.1,0.5c-0.1,0-0.2,0.1-0.2,0.1c0,0.1-0.1,0.3-0.1,0.5c-0.1,0-0.2,0-0.3,0.1
			c0,0.1,0,0.2-0.1,0.3c0,0,0,0.1,0.1,0.1c0,0.1-0.1,0.2-0.3,0.2c0.5,0.4,0.5,0.7-0.2,0.9c0,0.3,0,0.5,0.1,0.7
			c-0.6,0.9-1.4,2.2-2.6,4c-1.1,1.8-2.4,3.7-3.7,5.9c-1.4,2.2-2.8,4.4-4.3,6.7c-1.5,2.3-2.9,4.4-4.1,6.3c-0.1,0.3-0.3,0.7-0.5,1.2
			c-0.2,0.5-0.5,0.7-0.8,0.7v-0.2c-0.1,0-0.2,0.1-0.4,0.2c-0.1-0.1-0.3-0.2-0.4-0.2c-0.1,0-0.2-0.1-0.2-0.1c0-0.1,0.1-0.2,0.3-0.3
			c0,0-0.1,0-0.2-0.1c-0.1-0.6-0.2-1.1-0.1-1.5C89,52,89,51.5,89,51c0.2-3,0.5-5.5,0.6-7.4c0.2-2,0.4-4,0.6-6c0.2-2,0.4-3.5,0.7-4.4
			c0,0-0.1-0.1-0.3-0.1c0.1-0.1,0.3-0.3,0.4-0.5c0.1-0.3,0.1-0.5-0.1-0.7c0-0.1,0.1-0.3,0.1-0.6c0-0.2,0.1-0.5,0.3-0.7
			c-0.1-0.3-0.2-0.4-0.2-0.3c0-1.6,0-2.4-0.2-2.6l0.1-0.1c-0.1,0-0.3-0.1-0.4-0.1v-0.1v-0.1c-0.2,0-0.6-0.1-1-0.1v0.1
			c-0.4,0.3-0.6,0.6-0.6,1c0,0,0.1,0.1,0.1,0.1v0.2v0.2h0.1C89.1,29,89,29.2,89,29.7c0,0.4,0,0.7,0,0.9c-0.1,0-0.2,0-0.3,0.1
			c0,0.3,0,0.6,0.1,0.8c-0.1,0-0.1,0-0.1,0.1c0,0.6,0.2,1.1,0.6,1.3c0,0.6-0.1,2-0.3,4.2c-0.1,2.2-0.3,4.6-0.5,7
			c-0.2,2.5-0.5,4.8-0.7,6.9c-0.3,2.1-0.5,3.3-0.8,3.6c0,0,0.1,0.1,0.1,0.3l-0.1,0.1c0,0,0.1,0.1,0.2,0.1c-0.2,0.1-0.3,0.2-0.3,0.4
			h0.1c0,0.1,0,0.3-0.1,0.6h0.2c0,0.6,0.1,1.1,0.1,1.4c0,0.4,0.4,0.6,1.2,0.6c0,0.2-0.2,0.6-0.5,1.2c-0.3,0.6-0.5,1-0.7,1
			c0,0.2,0,0.3,0.1,0.4c-0.1,0-0.2,0-0.3,0.1c-0.1,0-0.2,0.1-0.2,0.1c0,0.2,0,0.4,0,0.4c0,0,0.1,0.1,0.3,0.3c0,0.1,0,0.3-0.1,0.3
			c0,0.1,0,0.2,0.1,0.4h0.1h0.3v0.3v0.2c0.3,0,0.5,0.1,0.6,0.2C88.2,62.6,88.3,62.4,88.4,62.2"/>
		<path class="st0" d="M146,80.8l1.5-4.9h0l1.5,4.9H146z M146.9,74.6l-3.3,9.8h1.2l0.8-2.6h3.7l0.8,2.6h1.3l-3.2-9.8H146.9z
			 M136.8,79.6c0-3,1.1-4.1,2.4-4.1c1.7,0,2.3,1.9,2.3,3.9c0,3-1.1,4.1-2.4,4.1C137.4,83.5,136.8,81.6,136.8,79.6 M135.5,79.6
			c0,3,1.4,4.9,3.6,4.9c2.3,0,3.7-1.7,3.7-5.1c0-3-1.4-4.9-3.6-4.9C136.9,74.5,135.5,76.2,135.5,79.6 M131.6,72.3
			c-0.1,0.4-0.2,0.6-0.5,0.6c-0.1,0-0.2,0-0.5-0.2c-0.6-0.3-0.8-0.4-1.1-0.4c-0.8,0-1.2,0.5-1.3,1.5h0.7c0-0.5,0.3-0.6,0.5-0.6
			c0.1,0,0.2,0,0.7,0.2c0.5,0.3,0.7,0.3,1,0.3c0.7,0,1-0.6,1.2-1.5H131.6z M127,84.4h1.2v-8.1h0l3.7,8.1h1.5v-9.8h-1.2v8.1h0
			l-3.7-8.1H127V84.4z M124.6,74.6h-1.2V81c0,1.5-0.7,2.5-1.8,2.5s-1.8-1-1.8-2.5v-6.4h-1.2v6.2c0,1,0.1,1.5,0.4,2.2
			c0.4,0.8,1.3,1.5,2.7,1.5c1.4,0,2.3-0.7,2.7-1.5c0.3-0.7,0.4-1.2,0.4-2.2V74.6z M114.1,72.3c-0.1,0.4-0.2,0.6-0.5,0.6
			c-0.1,0-0.2,0-0.5-0.2c-0.6-0.3-0.8-0.4-1.1-0.4c-0.8,0-1.2,0.5-1.3,1.5h0.7c0-0.5,0.3-0.6,0.5-0.6c0.1,0,0.2,0,0.7,0.2
			c0.5,0.3,0.7,0.3,1,0.3c0.7,0,1-0.6,1.2-1.5H114.1z M109.5,84.4h1.2v-8.1h0l3.7,8.1h1.5v-9.8h-1.2v8.1h0l-3.7-8.1h-1.5V84.4z"/>
	</g>
	<polyline class="st14" points="69.5,17.8 69.5,2.7 190.5,2.7 190.5,17.8 	"/>
	<polyline class="st14" points="69.4,80.8 69.4,96.7 190.6,96.7 190.6,80.3 	"/>
</g>
</svg>
