<?xml version="1.0" encoding="utf-8"?>
<!-- Generator: Adobe Illustrator 22.0.1, SVG Export Plug-In . SVG Version: 6.00 Build 0)  -->
<svg version="1.1" id="Capa_1" xmlns="http://www.w3.org/2000/svg" xmlns:xlink="http://www.w3.org/1999/xlink" x="0px" y="0px"
	 viewBox="0 0 260 98.9" style="enable-background:new 0 0 260 98.9;" xml:space="preserve">
<style type="text/css">
	.st0{fill:#FFFFFF;}
	.st1{fill:none;stroke:#E66728;stroke-width:2;stroke-linecap:round;stroke-linejoin:round;}
	.st2{fill:#E66728;}
	.st3{fill:none;stroke:#E66728;stroke-width:1.5;stroke-linecap:round;stroke-linejoin:round;}
	.st4{clip-path:url(#SVGID_2_);fill:#E66728;}
	.st5{clip-path:url(#SVGID_2_);fill:#FFFFFF;}
	.st6{fill:none;stroke:#D25A2B;stroke-width:2.082;stroke-linecap:round;stroke-linejoin:round;}
	.st7{fill:none;stroke:#D25A2B;stroke-width:1.948;stroke-linecap:round;stroke-linejoin:round;}
	.st8{clip-path:url(#SVGID_4_);fill:#E66728;}
	.st9{clip-path:url(#SVGID_4_);fill:#FFFFFF;}
	.st10{clip-path:url(#SVGID_6_);fill:#E66728;}
	.st11{clip-path:url(#SVGID_6_);fill:#FFFFFF;}
	.st12{clip-path:url(#SVGID_8_);fill:#E66728;}
	.st13{clip-path:url(#SVGID_8_);fill:#FFFFFF;}
	.st14{fill:none;stroke:#D66F2C;stroke-width:1.594;stroke-linecap:round;stroke-linejoin:round;}
	.st15{clip-path:url(#SVGID_10_);fill:#FFFFFF;}
	.st16{clip-path:url(#SVGID_12_);fill:#FFFFFF;}
	.st17{clip-path:url(#SVGID_14_);fill:#FFFFFF;}
	.st18{fill:none;stroke:#D25A2B;stroke-width:1.906;stroke-linecap:round;stroke-linejoin:round;}
	.st19{fill:none;stroke:#DF6829;stroke-width:1.763;stroke-linecap:round;stroke-linejoin:round;}
	.st20{fill:none;stroke:#D25A2B;stroke-width:1.763;stroke-linecap:round;stroke-linejoin:round;}
</style>
<g>
	<g>
		<defs>
			<rect id="SVGID_1_" x="8.3" y="7.2" width="243" height="82.4"/>
		</defs>
		<clipPath id="SVGID_2_">
			<use xlink:href="#SVGID_1_"  style="overflow:visible;"/>
		</clipPath>
		<path class="st4" d="M219.6,35.2L219.6,35.2l3.1,9.8h-6.2L219.6,35.2z M212.9,51.3h1.6l1.6-4.9h7.1l1.6,4.9h1.7l-5.9-17.8h-1.7
			L212.9,51.3z M197.5,51.3h1.5V35.6h0.1l7.5,15.8h2V33.5h-1.5v15.9h-0.1l-7.5-15.9h-2V51.3z M184.2,51.3h7.9v-1.5h-6.3v-7.1h5.7
			v-1.5h-5.7V35h6v-1.5h-7.6V51.3z M171.1,35h2.1c1.1,0,3.5,0.2,3.5,3.1c0,0.5-0.2,3.4-3.4,3.4h-2.2V35z M169.5,51.3h1.6V43h2
			c1.3,0,1.8,0.6,2.4,2.2l2.2,6.1h1.7l-2.7-7.4c-0.4-1.2-1.3-1.4-1.8-1.5v-0.1c1.5-0.3,3.5-1.3,3.5-4.3c0-2.6-1.6-4.6-4.7-4.6h-4.1
			V51.3z M156.3,51.3h7.9v-1.5h-6.3v-7.1h5.7v-1.5h-5.7V35h6v-1.5h-7.6V51.3z M142.8,50.7c0.9,0.6,2.3,0.8,3.4,0.8
			c2.7,0,4.8-1.9,4.8-4.9c0-2.5-1-3.3-4.1-5.6c-1.5-1.1-2.5-1.8-2.5-3.6c0-2.1,1.8-2.6,2.9-2.6c1.3,0,2.1,0.5,2.8,0.9l0.1-1.8
			c-0.4-0.2-1.4-0.6-2.8-0.6c-1,0-4.7,0.4-4.7,4.3c0,2,0.7,3.1,3.2,4.8c2.1,1.4,3.4,2.3,3.4,4.3c0,0.7-0.4,3.2-3.2,3.2
			c-0.5,0-1.9-0.1-3.1-1.2L142.8,50.7z M124.4,35.2L124.4,35.2l3.1,9.8h-6.2L124.4,35.2z M117.6,51.3h1.6l1.6-4.9h7.1l1.6,4.9h1.7
			l-5.9-17.8h-1.7L117.6,51.3z M107.5,51.3h7.4v-1.5h-5.8V33.5h-1.6V51.3z M88.4,35.2L88.4,35.2l3.1,9.8h-6.2L88.4,35.2z M81.7,51.3
			h1.6l1.6-4.9H92l1.6,4.9h1.7l-5.9-17.8h-1.7L81.7,51.3z M67.7,44.8c0,3.8,1.2,6.8,5.3,6.8s5.3-3.2,5.3-6.8V33.5h-1.6v11.3
			c0,2.4-0.4,5.3-3.7,5.3c-3.2,0-3.7-2.6-3.7-5.3V33.5h-1.6V44.8z M51.6,42.4c0-1.4,0-7.6,4.6-7.6s4.6,6.2,4.6,7.6s0,7.6-4.6,7.6
			S51.6,43.8,51.6,42.4 M62,54.6L58.7,51c3.8-1.7,3.8-7.3,3.8-8.6c0-1.6,0-9.1-6.3-9.1s-6.3,7.5-6.3,9.1c0,1.6,0,9.1,6.3,9.1
			c0.5,0,0.8-0.1,0.9-0.1l2.9,3.2H62z M40,35.2L40,35.2L43,45h-6.2L40,35.2z M33.2,51.3h1.6l1.6-4.9h7.1l1.6,4.9h1.7l-5.9-17.8h-1.7
			L33.2,51.3z"/>
		<path class="st5" d="M153.6,63.5c0,0.3,0.2,0.5,0.5,0.5c0.3,0,0.5-0.2,0.5-0.5c0-0.3-0.2-0.5-0.5-0.5
			C153.8,63,153.6,63.2,153.6,63.5 M146.7,63.7l0.9-2.7h0l0.8,2.7H146.7z M147.2,60.3l-1.8,5.5h0.7l0.4-1.4h2.1l0.4,1.4h0.7
			l-1.8-5.5H147.2z M140.3,65.7h0.7v-4.5h0l2.1,4.5h0.9v-5.5h-0.7v4.5h0l-2.1-4.5h-0.9V65.7z M135.9,65.7h2.7v-0.6h-2v-1.9h1.8v-0.6
			h-1.8v-1.7h1.9v-0.6h-2.5V65.7z M131.7,60.8h0.5c0.6,0,1,0.3,1,0.9c0,0.5-0.3,1-1,1h-0.5V60.8z M131,65.7h0.7v-2.5h0.3
			c0.5,0,0.7,0.2,0.9,0.6l0.6,1.9h0.7l-0.8-2.2c-0.1-0.3-0.3-0.5-0.6-0.5v0c0.8-0.2,1.1-0.7,1.1-1.3c0-0.4-0.1-0.8-0.4-1
			c-0.3-0.2-0.6-0.4-1.2-0.4H131V65.7z M126.6,65.7h2.7v-0.6h-2v-1.9h1.8v-0.6h-1.8v-1.7h1.9v-0.6h-2.5V65.7z M124.6,60.4
			c-0.2-0.1-0.6-0.2-1-0.2c-0.8,0-1.5,0.5-1.5,1.4c0,0.7,0.2,1,1.2,1.6c0.7,0.4,0.8,0.7,0.8,1.1c0,0.4-0.4,0.9-1,0.9
			c-0.3,0-0.7-0.2-1-0.4v0.7c0.3,0.1,0.7,0.2,1.1,0.2c1.1,0,1.6-0.7,1.6-1.6c0-0.6-0.3-1.1-1.1-1.6c-0.8-0.5-0.9-0.7-0.9-1
			c0-0.5,0.3-0.8,0.9-0.8c0.3,0,0.7,0.1,0.9,0.3V60.4z M115.2,63.7L116,61h0l0.8,2.7H115.2z M115.7,60.3l-1.8,5.5h0.7l0.4-1.4h2.1
			l0.4,1.4h0.7l-1.8-5.5H115.7z M110.4,65.7h2.5v-0.6h-1.8v-4.9h-0.7V65.7z M105.1,63.5c0,0.3,0.2,0.5,0.5,0.5
			c0.3,0,0.5-0.2,0.5-0.5c0-0.3-0.2-0.5-0.5-0.5C105.3,63,105.1,63.2,105.1,63.5"/>
	</g>
	<line class="st3" x1="101.2" y1="63.5" x2="33.3" y2="63.5"/>
	<line class="st3" x1="226.6" y1="63.5" x2="158.4" y2="63.5"/>
</g>
</svg>
