<?xml version="1.0" encoding="utf-8"?>
<!-- Generator: Adobe Illustrator 22.0.1, SVG Export Plug-In . SVG Version: 6.00 Build 0)  -->
<svg version="1.1" id="Capa_1" xmlns="http://www.w3.org/2000/svg" xmlns:xlink="http://www.w3.org/1999/xlink" x="0px" y="0px"
	 viewBox="0 0 260 98" style="enable-background:new 0 0 260 98;" xml:space="preserve">
<style type="text/css">
	.st0{fill:#191E25;}
	.st1{display:none;fill:#191E25;}
	.st2{fill:#FFFFFF;}
	.st3{fill:none;stroke:#E66728;stroke-width:2;stroke-linecap:round;stroke-linejoin:round;}
	.st4{fill:#E66728;}
	.st5{fill:none;stroke:#E66728;stroke-width:1.5;stroke-linecap:round;stroke-linejoin:round;}
	.st6{clip-path:url(#SVGID_2_);fill:#E66728;}
	.st7{clip-path:url(#SVGID_2_);fill:#FFFFFF;}
	.st8{fill:none;stroke:#D25A2B;stroke-width:2.082;stroke-linecap:round;stroke-linejoin:round;}
	.st9{fill:none;stroke:#D25A2B;stroke-width:1.948;stroke-linecap:round;stroke-linejoin:round;}
	.st10{clip-path:url(#SVGID_4_);fill:#E66728;}
	.st11{clip-path:url(#SVGID_4_);fill:#FFFFFF;}
	.st12{clip-path:url(#SVGID_6_);fill:#E66728;}
	.st13{clip-path:url(#SVGID_6_);fill:#FFFFFF;}
	.st14{clip-path:url(#SVGID_8_);fill:#E66728;}
	.st15{clip-path:url(#SVGID_8_);fill:#FFFFFF;}
	.st16{fill:none;stroke:#D66F2C;stroke-width:1.594;stroke-linecap:round;stroke-linejoin:round;}
	.st17{clip-path:url(#SVGID_10_);fill:#FFFFFF;}
	.st18{clip-path:url(#SVGID_12_);fill:#FFFFFF;}
	.st19{fill:none;stroke:#D25A2B;stroke-width:1.906;stroke-linecap:round;stroke-linejoin:round;}
	.st20{fill:none;stroke:#DF6829;stroke-width:1.763;stroke-linecap:round;stroke-linejoin:round;}
	.st21{fill:none;stroke:#D25A2B;stroke-width:1.763;stroke-linecap:round;stroke-linejoin:round;}
	.st22{clip-path:url(#SVGID_14_);fill:#E66728;}
	.st23{clip-path:url(#SVGID_14_);fill:#FFFFFF;}
	.st24{clip-path:url(#SVGID_16_);fill:#E66728;}
	.st25{clip-path:url(#SVGID_16_);fill:#FFFFFF;}
	.st26{clip-path:url(#SVGID_18_);fill:#E66728;}
	.st27{clip-path:url(#SVGID_18_);fill:#FFFFFF;}
	.st28{clip-path:url(#SVGID_20_);fill:#E66728;}
	.st29{clip-path:url(#SVGID_20_);fill:#FFFFFF;}
	.st30{clip-path:url(#SVGID_22_);fill:#FFFFFF;}
	.st31{clip-path:url(#SVGID_24_);fill:#FFFFFF;}
	.st32{clip-path:url(#SVGID_26_);fill:#FFFFFF;}
	.st33{clip-path:url(#SVGID_28_);fill:#FFFFFF;}
	.st34{clip-path:url(#SVGID_28_);fill:none;stroke:#E66728;stroke-width:2;stroke-linecap:round;stroke-linejoin:round;}
	.st35{clip-path:url(#SVGID_30_);fill:#FFFFFF;}
	.st36{clip-path:url(#SVGID_30_);fill:none;stroke:#E66728;stroke-width:2;stroke-linecap:round;stroke-linejoin:round;}
</style>
<g>
	<defs>
		<rect id="SVGID_29_" x="87.4" y="3" width="85.3" height="91.4"/>
	</defs>
	<clipPath id="SVGID_2_">
		<use xlink:href="#SVGID_29_"  style="overflow:visible;"/>
	</clipPath>
	<path class="st7" d="M145.2,78.6l1.5-4.7h0l1.4,4.7H145.2z M146.1,72.6l-3.2,9.4h1.2l0.8-2.5h3.6l0.8,2.5h1.2l-3.1-9.4H146.1z
		 M136.4,77.4c0-2.9,1.1-3.9,2.3-3.9c1.6,0,2.2,1.8,2.2,3.7c0,2.9-1.1,3.9-2.3,3.9C137,81.2,136.4,79.3,136.4,77.4 M135.2,77.4
		c0,2.9,1.3,4.7,3.4,4.7c2.2,0,3.5-1.7,3.5-4.9c0-2.9-1.3-4.7-3.4-4.7C136.5,72.5,135.2,74.2,135.2,77.4 M131.4,70.4
		c-0.1,0.4-0.2,0.6-0.5,0.6c-0.1,0-0.2,0-0.5-0.2c-0.5-0.3-0.8-0.3-1-0.3c-0.8,0-1.2,0.5-1.3,1.4h0.7c0-0.4,0.3-0.6,0.5-0.6
		c0.1,0,0.2,0,0.6,0.2c0.5,0.2,0.7,0.3,0.9,0.3c0.6,0,1-0.6,1.1-1.4H131.4z M127,82.1h1.1v-7.7h0l3.6,7.7h1.5v-9.4h-1.1v7.8h0
		l-3.6-7.8H127V82.1z M124.7,72.6h-1.2v6.1c0,1.5-0.6,2.4-1.8,2.4c-1.1,0-1.8-0.9-1.8-2.4v-6.1h-1.2v6c0,0.9,0.1,1.4,0.4,2.1
		c0.4,0.8,1.2,1.5,2.6,1.5c1.4,0,2.2-0.7,2.6-1.5c0.3-0.7,0.4-1.2,0.4-2.1V72.6z M114.6,70.4c-0.1,0.4-0.2,0.6-0.5,0.6
		c-0.1,0-0.2,0-0.5-0.2c-0.5-0.3-0.8-0.3-1-0.3c-0.8,0-1.2,0.5-1.3,1.4h0.7c0-0.4,0.3-0.6,0.5-0.6c0.1,0,0.2,0,0.6,0.2
		c0.5,0.2,0.7,0.3,0.9,0.3c0.6,0,1-0.6,1.1-1.4H114.6z M110.2,82.1h1.1v-7.7h0l3.6,7.7h1.5v-9.4h-1.1v7.8h0l-3.6-7.8h-1.5V82.1z"/>
	<path class="st7" d="M157.2,45h0.1v-0.2v-0.2h-0.2c0,0,0,0.1,0,0.1C157.2,44.9,157.2,45,157.2,45 M168.7,38c-0.2,1.5-1,2.9-2.2,4.1
		c-0.8,0.8-1.6,1.4-2.6,1.8c-0.9,0.4-1.6,0.7-1.8,0.8c-1,0.3-1.7,0.3-2.1,0.2c-0.4-0.1-0.4-0.8-0.1-1.9h0.2L160,43
		c0,0,0.1,0,0.1-0.1c0,0,0.1-0.2,0.1-0.3c0,0,0.1,0,0.1-0.1c0,0,0-0.1,0.1-0.2c0-0.1,0.1-0.1,0.1-0.2c0-0.1,0-0.1,0.1-0.1v-0.3h0.3
		c-0.1-0.1-0.2-0.2-0.2-0.3c0.1-0.1,0.3-0.3,0.4-0.5c0.1-0.2,0.3-0.4,0.5-0.5l-0.1-0.1h0.1h0.1c0-0.3,0.2-0.7,0.7-1.1
		c0.5-0.5,0.9-0.8,1.1-1c-0.1,0-0.1,0-0.1-0.1c0.1,0,0.2,0,0.2-0.1c0.1-0.1,0.2-0.1,0.3-0.2v-0.3l-0.1-0.1c0.1,0,0.2-0.1,0.3-0.2
		c0.1-0.1,0.2-0.2,0.3-0.3c0.6-0.4,1-0.6,1.3-0.8h0.1c0.4-0.2,0.9-0.3,1.4-0.2C168.4,35.8,169,36.5,168.7,38 M162.4,53.2
		c-1,0.4-1.9,0.6-2.7,0.6c-0.9,0-1.6-0.5-2.1-1.5c-0.6-0.8-0.7-2-0.4-3.4c0.3-1.4,0.7-2.8,1.2-4c0.1-0.2,0.2-0.4,0.3-0.6
		c0.1-0.2,0.2-0.4,0.3-0.7c-0.5,1.4-0.2,2.1,1,2.2c1.2,0.1,2.6-0.3,4.4-1.1c1.2-0.6,2.3-1.3,3.3-2.3c0.9-1,1.5-2.2,1.6-3.5
		c0-0.6,0-1.2,0.1-2.1c0.1-0.8-0.3-1.3-1.1-1.5c-0.6,0-1.3,0-2,0.2c-0.7,0.2-1.1,0.3-1,0.5c-0.7-0.2-2,0.6-3.8,2.4
		c-1.8,1.8-3.1,3.7-4,5.8h-0.2c-0.2,0.2-0.2,0.3-0.1,0.3c0.3,0,0.5,0.1,0.5,0.3c-0.4,0.3-0.6,0.4-0.8,0.4c0,0,0.1,0.1,0.1,0.1
		c0,0.2,0,0.3-0.1,0.5h0.1c0,0.1-0.1,0.2-0.3,0.2c-0.6,1-1,2-1.1,3c-0.1,1-0.1,1.9,0,2.7c0.3,1.3,0.9,2.2,2,2.7c0.1,0,0.2,0,0.2-0.1
		c0,0,0-0.1,0.2-0.1c0,0.1,0.1,0.2,0.1,0.4c0.7,0.3,1.3,0.4,1.9,0.4c0.4,0,0.7,0,1-0.1c0.6-0.1,1.2-0.3,1.9-0.7
		c0.3-0.2,0.5-0.3,0.6-0.4c0,0,0.3-0.2,0.7-0.5c0.1-0.1,0.2-0.3,0.3-0.3h0.1l0.4-0.4c0.1-0.1,0.4-0.3,0.7-0.5
		c0.3-0.3,0.5-0.5,0.5-0.7c0.1,0,0.2-0.1,0.3-0.2c0.1-0.1,0.2-0.2,0.3-0.3c0,0,0.1-0.1,0.2-0.3c0.1-0.2,0.2-0.3,0.4-0.4
		c-0.1,0-0.2,0.1-0.3,0.2c-0.1,0.1-0.1,0.2-0.2,0.2c-0.1,0-0.1-0.1-0.1-0.2c0.1,0,0.3-0.1,0.4-0.2c0.2-0.1,0.3-0.1,0.3-0.1
		c0-0.3,0.1-0.6,0.3-0.8c-0.3,0.2-0.5,0.4-0.5,0.7c0-0.1-0.1-0.2-0.1-0.3c0-0.1,0.1-0.2,0.2-0.3c0.1-0.1,0.2-0.2,0.3-0.3
		c0-0.1,0-0.2-0.1-0.3h0.1c0,0,0.1,0,0.2-0.1c0-0.2,0.1-0.3,0.1-0.3c0-0.1,0.1-0.1,0.2-0.1v-0.1v-0.1c0.1,0,0.2-0.1,0.3-0.1
		c-0.2-0.1-0.4-0.1-0.6,0.1c-0.2,0.2-0.3,0.4-0.5,0.5c-0.4,0.6-0.9,1.1-1.5,1.7c-0.6,0.6-1.1,1-1.6,1.4c-0.2,0.1-0.4,0.2-0.6,0.4
		H164C163.4,52.6,162.9,53,162.4,53.2 M142.5,49.5c-0.1,0.2-0.1,0.4-0.1,0.6c0,0,0.1-0.1,0.1-0.1c0.1-0.2,0.2-0.6,0.3-1
		C142.6,49.1,142.5,49.3,142.5,49.5 M143.4,47.3h0.1c0-0.1,0.1-0.3,0.2-0.6h-0.3c0,0.1,0,0.2,0,0.3
		C143.4,47.1,143.4,47.2,143.4,47.3 M143.7,46v-0.2h0.1v0.1L143.7,46z M144.7,44.1h0.1c0-0.1,0-0.3,0.1-0.6c0.1-0.2,0.1-0.4,0.1-0.6
		c-0.1,0.2-0.2,0.4-0.3,0.6C144.8,43.7,144.8,43.9,144.7,44.1 M145.8,41.4l0.2-0.1v-0.1C145.9,41.2,145.8,41.2,145.8,41.4
		 M146.4,40.4c-0.1,0-0.1-0.2,0-0.3h-0.2c0,0.2,0,0.3-0.1,0.3c0,0,0,0.1,0.1,0.1C146.2,40.4,146.2,40.4,146.4,40.4 M146.5,39.7
		c0.1-0.1,0.2-0.2,0.2-0.3c-0.3,0.1-0.4,0.2-0.4,0.3c0,0.1,0,0.2,0,0.3C146.4,39.9,146.4,39.8,146.5,39.7 M146.9,38.7l-0.1,0.2
		C146.9,38.9,146.9,38.8,146.9,38.7 M146,37.4c-0.7,1.5-1.1,2.7-1.2,3.8h-0.2v0.3c-0.1,0-0.2,0-0.3,0.1c0,0,0-0.2,0.1-0.5
		c-0.3,0.2-0.4,0.5-0.3,1h-0.1c0,0.2,0,0.4-0.1,0.7c-0.1,0.3-0.3,0.4-0.4,0.5c-0.2,0.4-0.7,1.7-1.5,3.7c-0.8,2.1-1.4,3.9-1.8,5.4
		c-0.3,0.8-0.5,1.4-0.5,1.9c0,0,0,0.1,0,0.2c0,0.1,0,0.2,0,0.2c0,0,0.1,0.1,0.2,0.1c0,0.4,0.3,0.8,0.7,1.2c0.5,0.1,1,0.1,1.5,0
		c0.1,0,0.4-0.1,0.9-0.3c0.5-0.2,0.9-0.4,1.2-0.6c0.6,0,0.9-0.2,1-0.7c0.4-0.2,0.6-0.3,0.7-0.4c0.1,0,0.2-0.1,0.3-0.2
		c0.1-0.1,0.3-0.2,0.4-0.3c-0.1,0-0.3,0.1-0.5,0.2c-0.1-0.1-0.1-0.1,0-0.1c0.3-0.3,0.6-0.3,0.8-0.2c0-0.2,0.1-0.4,0.4-0.6
		c-0.1,0-0.3,0.2-0.6,0.5c-0.1-0.1-0.1-0.2-0.1-0.3c0,0,0.3-0.1,0.9-0.3c0-0.1,0-0.2-0.1-0.3h0.2h0.2c0.1-0.1,0.2-0.2,0.2-0.2
		l0.1-0.2c0,0,0-0.1,0.1-0.1c0,0,0.1-0.1,0.3-0.1c-0.1-0.1-0.3-0.1-0.6,0c-0.3,0.1-0.4,0.3-0.6,0.4c-0.7,0.5-1.5,1-2.5,1.6
		c-1,0.5-1.6,0.8-2,0.9c-0.6,0.1-0.9,0.1-1.1-0.1c0-0.1,0-0.3-0.1-0.5c0-0.1,0.1-0.3,0.1-0.6c0-0.3,0.1-0.6,0.1-0.8
		c0.1-0.3,0.2-0.5,0.3-0.8c0.1-0.3,0.1-0.5,0-0.7v-0.1c0.2,0,0.3-0.1,0.3-0.3l-0.2,0.1h-0.1c0-0.1,0-0.2-0.1-0.3
		c0.1,0,0.2-0.2,0.2-0.4c0-0.2,0-0.4,0.1-0.5c0,0,0.1,0,0.1-0.1c0-0.1,0-0.3,0.1-0.4c0.1-0.1,0.1-0.3,0.1-0.4c0.3,0,0.4-0.1,0.4-0.4
		c0-0.3,0.1-0.5,0.4-0.7h-0.3c0,0.4-0.1,0.5-0.3,0.5c0-0.1,0-0.3,0.1-0.4c0.1-0.1,0.1-0.2,0.1-0.3c0,0,0.1-0.1,0.2-0.1
		c0-0.4,0.1-0.7,0.3-1c0.2-0.3,0.4-0.5,0.6-0.8h-0.3c0-0.1,0.1-0.1,0.2-0.2c0.1,0,0.2-0.1,0.3-0.2v-0.2c0,0-0.1,0-0.2,0.1
		c0,0,0-0.1-0.1-0.1c0,0-0.1-0.1-0.1-0.1c0.1,0,0.3-0.1,0.5-0.1c-0.3-0.3-0.3-0.5,0.1-0.8c-0.2-0.3-0.2-0.5,0.1-0.6c0,0-0.1,0-0.1,0
		c0,0,0-0.1,0-0.1c0.1-0.1,0.2-0.2,0.2-0.3c0-0.1,0.1-0.3,0.2-0.3l0.1,0.1h0.2v-0.1c-0.2,0-0.3-0.1-0.3-0.2c0.1,0,0.2-0.1,0.3-0.1
		c0,0-0.1-0.1-0.1-0.3c0.1-0.1,0.1-0.2,0.1-0.4c0.1,0,0.2,0,0.2,0c0.1,0,0.1,0,0.2,0v-0.1h-0.2h-0.2c0,0,0-0.1-0.1-0.2
		c0.1-0.1,0.2-0.1,0.3-0.2c0.1,0,0.2-0.1,0.4-0.2v-0.1H146h-0.1c0-0.1-0.1-0.2-0.1-0.3c0,0,0-0.1,0.1-0.1c0,0.1,0.1,0.2,0.1,0.2
		c-0.1-0.1,0-0.5,0.2-1.1c0.2-0.6,0.4-0.9,0.6-0.9c0,0-0.1-0.1-0.1-0.1h0.2v-0.2v-0.2h0.1h0.1c-0.2-0.2-0.2-0.3,0.1-0.3
		c0,0.1,0,0.2,0,0.3l0.1,0.1c0.3-0.6,0.4-1,0.4-1.1c-0.1,0.2-0.2,0.4-0.3,0.4c-0.1,0.1-0.1,0.1-0.1,0.2h-0.1c0,0,0-0.1-0.1-0.2
		c0.1-0.2,0.2-0.3,0.4-0.3c-0.1,0-0.1,0-0.1-0.1h0.1v-0.2l0.2-0.1V37c0-0.1,0.1-0.1,0.3-0.1c0,0-0.1,0-0.1-0.1
		c0.7-0.2,1.5-0.3,2.3-0.4c0.8-0.1,1.5-0.1,2.2,0l0.2-0.2c0.3,0.2,0.6,0.2,1,0.1c0.4-0.1,0.8-0.1,1,0.1c0.2-0.2,0.5-0.3,0.7-0.3
		c0-0.2-0.1-0.3-0.1-0.3c0.1-0.1,0.3-0.2,0.3-0.3c0.1,0,0.2,0.1,0.3,0.2c-0.1,0-0.2,0.2-0.2,0.3h-0.1c0,0.2,0.2,0.3,0.6,0.3v-0.1
		v-0.1c0.1,0,0.3,0,0.3-0.1c0.1-0.1,0.2-0.2,0.3-0.3c0,0-0.1-0.2-0.1-0.3c-0.5,0.1-0.7,0.1-0.8-0.1c-0.1-0.1-0.3-0.3-0.7-0.3
		c0,0,0,0.1-0.1,0.1c-0.2,0-0.3,0-0.3-0.1c-0.7,0-1.1,0.1-1.2,0.1h-0.3v-0.3c-0.1,0-0.2,0-0.2,0.1c0,0-0.1,0.1-0.2,0.1
		c0,0,0,0.1-0.1,0.2h-0.1h-0.1v-0.2c0,0-0.1,0.1-0.1,0.1c-0.4,0-1,0-1.7,0.1c-0.7,0.1-1.5,0.2-2.4,0.3c0.1-0.2,0.1-0.4,0.1-0.6h0.1
		h0.1c0,0.1,0,0.3-0.1,0.4c0.1,0,0.1-0.1,0.1-0.2c0-0.1,0.1-0.2,0.2-0.4v-0.1c-0.1,0-0.2,0-0.3-0.1v-0.1l1.4-2.8
		c0.3-0.1,0.4-0.3,0.5-0.6c0-0.3,0.1-0.5,0.1-0.6c0-0.3-0.3-0.4-0.8-0.4c-0.5,0-0.8,0.2-0.9,0.4c-0.2,0.3-0.4,0.6-0.6,0.9
		c-0.2,0.3-0.3,0.7-0.3,1.1c-0.1,0.1-0.2,0.2-0.2,0.3c-0.1,0.1-0.1,0.2-0.2,0.2l-0.2,0.8c-0.1,0.2-0.1,0.3-0.1,0.5l-0.3,0.7
		c0,0,0,0.1-0.1,0.1h0.1l-0.3,0.7c-1.4,0.3-2.7,0.6-3.9,1c-1.2,0.4-2,0.8-2.4,1.2c0,0.1,0,0.2,0,0.3c-0.1,0-0.1,0.1-0.1,0.2v0.3
		c0,0.1,0,0.2,0.1,0.4h0.1h0.1c0,0.4,0.1,0.5,0.3,0.4c0.2-0.1,0.5-0.2,0.8-0.2c0-0.1,0-0.2,0-0.2c0,0,0-0.1,0-0.1
		c0.5-0.1,1.1-0.4,1.9-0.9c0.8-0.5,1.3-0.5,1.5-0.1C145.3,37.7,145.6,37.5,146,37.4 M128.3,54.9c0,0,0-0.1,0-0.1l0.1,0.1
		c-0.1,0-0.2,0.1-0.2,0.1C128.3,55,128.3,54.9,128.3,54.9 M121,68.8c0.2-1,0.6-2.1,1.1-3.3c0.5-1.2,1.1-2.3,1.7-3.3
		c0.6-1,1.1-1.7,1.5-1.9c-0.1-0.2-0.3-0.3-0.3-0.3c-0.1,0,0.2-0.1,0.8-0.1v-0.2c-0.1,0-0.3-0.1-0.5-0.1v-0.1c0.6-0.4,1-0.7,1.1-1
		c0.1-0.2,0.3-0.5,0.8-0.8l-0.2-0.2c0.5-0.7,0.9-1.1,1.4-1.1c0,0-0.1,0-0.1,0.1c-0.2,0-0.3,0-0.3,0.1v0.1c0.3,0,0.6,0.1,0.8,0.1
		c0,0-0.3,0.8-0.9,2.2c-0.6,1.5-0.9,2.2-1.1,2.3c0,0.1,0.1,0.3,0.1,0.3c-0.1,0-0.1,0-0.1,0.1c0,0-0.1,0.2-0.2,0.3
		c-0.1,0-0.1,0-0.1,0.1c0,0,0,0.1,0.1,0.1c-1.8,4.5-3.5,7.3-5.3,8.2C120.9,70.5,120.8,69.8,121,68.8 M131.4,50c0,0,0-0.1,0-0.2
		c0.1,0,0.2,0.1,0.3,0.2c0,0.2,0,0.2-0.2,0.1C131.5,50,131.5,50,131.4,50 M127.1,50.6c0.1,0,0.1,0,0.2,0h-0.4
		c-0.1,0-0.1-0.1-0.1-0.2h0.1h0.1C127,50.5,127,50.6,127.1,50.6 M133.2,43.3H133V43h0.1h0.1C133.3,43.2,133.2,43.3,133.2,43.3
		 M121.3,71.7c0.7-0.2,1.2-0.4,1.6-0.8c0.6-0.4,1.4-1.2,2.2-2.4c0.7-1.1,1.3-2.2,1.8-3.5c0.5-1.3,1-2.3,1.7-3.2l-0.1-0.1
		c0-0.1,0.1-0.3,0-0.4c0-0.1,0-0.3,0-0.3h0.2h0.2V61c0.1,0,0.2,0,0.3-0.1c-0.1-0.4-0.1-1.1,0.1-2.1c0.2-1,0.4-2,0.7-3
		c0.1-0.1,0.2-0.2,0.2-0.3c0-0.2,0.1-0.6,0.4-1.1c0.3-0.6,0.6-1.1,0.8-1.7c0.8-0.8,1.7-1.4,2.7-1.9c1-0.5,2-1,2.9-1.4
		c0.1-0.1,0.3-0.2,0.6-0.3c0.3-0.1,0.4-0.3,0.4-0.6l-0.3,0.3l-0.1-0.1c0-0.1-0.1-0.1-0.3,0.1h-0.1c-0.1,0-0.2,0.1-0.2,0.2
		c0,0.1,0,0.1-0.1,0.1c0,0-0.1-0.1-0.2-0.2c-0.1,0.1-0.3,0.2-0.4,0.3c-0.1,0-0.2,0.1-0.4,0.2c0,0-0.1-0.1-0.1-0.3
		c0.2,0.2,0.4,0.1,0.8-0.2c-0.3,0.2-0.6,0.3-0.8,0.1c0,0.2-0.2,0.4-0.6,0.6c0,0-0.1,0-0.1-0.1c0,0,0.1-0.1,0.2-0.1
		c0.1,0,0.2-0.1,0.2-0.2c-0.1,0.1-0.3,0.2-0.5,0.2c-0.2,0-0.3,0.1-0.3,0.1c-0.1,0-0.3,0.1-0.4,0.2c-0.1,0.1-0.2,0.1-0.3,0.1
		c-0.2,0-0.4,0.1-0.7,0.2c-0.3,0.1-0.5,0.2-0.6,0.2c-0.1,0.1-0.3,0.3-0.5,0.3c-0.2,0.1-0.3,0.2-0.5,0.3c0.5-2,1.2-3.8,2.1-5.5
		c0.9-1.7,1.8-3.2,2.6-4.4c0.8-1.3,1.4-2.3,1.7-3.2c0.3-0.9,0.2-1.4-0.4-1.7c-0.7-0.1-1.2,0.1-1.3,0.6c-0.1,0.5-0.8,1.5-1.9,3.1
		c-0.5,0.7-1.3,1.7-2.3,3.1c-1,1.4-2.1,2.8-3.2,4.2c-1.1,1.4-2.2,2.7-3.3,3.8c-1.1,1.1-1.9,1.7-2.5,1.8c0-0.7,0.5-1.8,1.3-3.5
		c0.9-1.6,1.5-2.8,1.9-3.6v-0.4c0.7-1.2,1.4-2.5,2.1-3.9c0.7-1.3,1.4-2.6,1.9-3.7c0.4-0.8,0.3-1.3-0.3-1.4c-0.6-0.1-1.1-0.1-1.3,0.2
		c-0.1,0.3-0.3,0.6-0.5,1c-0.2,0.3-0.4,0.6-0.5,1c-0.2,0.3-0.3,0.7-0.5,1.1c0,0.2,0,0.3,0.1,0.2c0.2-0.1,0.3-0.1,0.3,0.1
		c-0.7,1.7-1.8,4-3.4,6.9c-1.5,3-2.7,5.6-3.6,7.8c0,0.4,0.1,0.7,0.3,1c0.4,0.5,0.8,0.6,1.2,0.4c0.4-0.2,0.6-0.3,0.7-0.3
		c0.2,0,0.9-0.6,1.9-1.8c1-1.2,2.1-2.6,3.2-4c1.1-1.5,2.2-2.9,3.1-4.1c0.9-1.3,1.5-2,1.6-2.1c0-0.1,0-0.2-0.1-0.3c0,0,0-0.1,0.3-0.1
		c-0.4,2-1,3.8-1.8,5.5c-0.8,1.6-1.5,3.1-2,4.5l-0.6,0.6h0.3c0,0-0.1,0.2-0.1,0.3c-0.1,0-0.2,0-0.3,0.1c0-0.2,0-0.4,0.1-0.4
		c-2.2,2.4-4.2,5.3-6.2,8.7c-2,3.3-2.7,6.1-2.3,8.3C120.2,71.6,120.6,71.8,121.3,71.7 M104.3,31.8c-0.1,0-0.3,0.1-0.3,0.4
		C104.1,32.2,104.2,32.1,104.3,31.8 M103.8,32.6h0.2c0-0.2,0-0.3,0.1-0.3L103.8,32.6z M103,35.7L103,35.7c0.1-0.1,0.1-0.2,0.1-0.3
		c0-0.1,0-0.2,0-0.3C103.1,35.2,103,35.4,103,35.7 M99.4,45.2h0.1c0-0.2,0-0.3,0.1-0.3h-0.2c0,0,0,0.1,0,0.2
		C99.4,45.1,99.4,45.1,99.4,45.2 M100.4,49.3c-0.2,0.2-0.3,0.2-0.4,0.2c0,0-0.1,0-0.1-0.1c0.1-0.1,0.3-0.2,0.3-0.3
		c0.1-0.1,0.2-0.2,0.3-0.3h0.3C100.7,49,100.5,49.1,100.4,49.3 M103.8,47.4c0,0,0-0.1-0.1-0.1c0.3-0.1,0.5-0.2,0.6-0.3
		c0.1,0,0.1-0.1,0.2-0.1c0,0.1,0,0.2,0.1,0.2C104.2,47.2,103.9,47.3,103.8,47.4 M112.8,43.7L112.8,43.7L112.8,43.7L112.8,43.7z
		 M97.5,51l0.8-0.7c-0.2,0-0.3,0-0.4,0.1c0.2-0.8,0.4-1.5,0.6-1.9h-0.1h-0.1c-0.1,0.4-0.2,0.7-0.3,0.8c-0.1,0.1-0.2,0.4-0.3,0.9
		h-0.1c0-0.2,0.1-0.5,0.2-0.9c0.1-0.4,0.3-0.7,0.4-0.8c0-0.1,0-0.1-0.1-0.1h0.2h0.3v-0.2c0,0-0.1,0-0.2,0c-0.1,0-0.2,0-0.2,0
		c0.1-0.4,0.2-0.6,0.2-0.7c0-0.1,0.1-0.3,0.2-0.6c0,0,0.1,0,0.1,0.1c0,0,0.1,0.1,0.1,0.1c0,0.1-0.1,0.4-0.1,0.8h0.1v-0.5v-0.5
		c0.5-0.2,0.7-0.5,0.5-1L99,45.9c0-0.4,0.1-0.8,0.2-1.3c0.2-0.4,0.3-0.9,0.4-1.3h0.1c0-0.6,0.1-1.2,0.4-1.5c0.3-0.4,0.4-0.8,0.4-1.3
		c2.2-0.6,4-1.5,5.3-2.7c1.3-1.2,2.6-1.9,3.9-2c0.9,0,2.1,0,3.7,0c1.6,0.1,2.3,0.8,2.3,2.3c0.1,0,0.2,0.1,0.3,0.1
		c-0.1,0.1-0.2,0.1-0.3,0.1c0,0.2,0,0.5,0,0.8c0,0.3,0,0.5,0,0.7l-0.1,0.1v0.3h0.1h-0.1h-0.1c-0.6,1.6-1.8,3.6-3.5,5.9
		c-1.8,2.3-3.7,4.6-6,6.6c-2.2,2.1-4.5,3.8-6.9,5.1c-2.4,1.4-4.5,1.8-6.4,1.4c-0.4,0-0.5,0-0.5,0c0-0.1,0-0.1,0-0.1
		c0-0.1-0.1-0.2-0.2-0.3c0-0.3,0.1-0.7,0.3-1.2c0.2-0.5,0.3-1,0.5-1.3h0.2c0-0.3,0.2-0.5,0.5-0.8c0.3-0.2,0.5-0.5,0.6-0.8h0.1v-0.2
		c0.3-0.1,0.5-0.3,0.7-0.5c0.2-0.2,0.4-0.4,0.8-0.6l0.3-0.1c0,0.3,0,0.6,0,0.9c0,0.3,0.2,0.5,0.5,0.6c0,0,0,0.1,0.1,0.3
		c0.2-0.1,0.4-0.2,0.5-0.2c0.1,0,0.2-0.2,0.4-0.4c0,0-0.1,0-0.1-0.1c0-0.1-0.1-0.1-0.1-0.2v-0.3L97,53.7c0-0.4,0.1-1,0.3-1.8
		l1.3-0.9c0.1-0.1,0.3-0.2,0.3-0.3c-0.1-0.1-0.1-0.2-0.1-0.3c0.1,0.1,0.2,0.1,0.2,0.2c0.1,0,0.1,0,0.2,0c0.6-0.7,1.4-1.2,2.3-1.5
		c0.9-0.3,1.8-0.8,2.6-1.3l0.1,0.1l0.2-0.2l0.3-0.3c0,0,0.1,0.1,0.2,0.1l0.2-0.2l0.3-0.3c0,0,0.1,0.1,0.2,0.1c0,0,0.1-0.1,0.2-0.1
		c0.1,0,0.2-0.1,0.3-0.3c0.1,0,0.6-0.1,1.3-0.4c0.7-0.3,1.2-0.6,1.3-0.8c0,0,0.1,0.1,0.2,0.1l3.5-1.7c0,0.1,0.1,0.1,0.2,0.1
		c-0.1,0-0.1-0.1-0.1-0.2c-0.1,0.1-0.2,0.3-0.3,0.3c-0.3-0.1-0.5-0.1-0.6-0.1l-2.7,1.1v0.1c0,0-0.2,0.1-0.3,0.1c0,0-0.1,0-0.1-0.1
		c-0.6,0.6-1.2,0.9-1.9,0.9c-0.7,0.1-1.4,0.4-1.9,0.9c0,0,0-0.2,0.1-0.5c-0.2,0.1-0.5,0.2-0.8,0.3c-0.3,0.1-0.5,0.1-0.6,0.2
		c0,0,0.1,0.1,0.3,0.2c-0.3,0.4-0.7,0.7-1,0.8c-0.3,0.1-0.7,0.3-1.2,0.6c0,0-0.1,0-0.1-0.1c0,0-0.1,0.1-0.2,0.3
		c-0.1,0-0.2,0-0.2-0.1l0.3-0.3l0.3-0.3c0,0,0,0.1,0.1,0.1c0.1,0,0.2-0.1,0.4-0.2c0.2-0.1,0.4-0.2,0.5-0.3l-0.2-0.2
		c-0.1,0-0.4,0.2-0.9,0.4c-0.5,0.3-0.7,0.4-0.7,0.6c-0.3,0.1-0.7,0.3-1.2,0.7c-0.5,0.4-0.7,0.7-0.7,1c-0.2,0-0.5,0.1-0.7,0.3
		c-0.3,0.2-0.5,0.3-0.7,0.5H97.5z M94.5,54c0,0,0,0.1-0.1,0.3H94L94.5,54z M100.3,58.3c2.9-2.1,5.7-4.3,8.3-6.9
		c2.6-2.5,4.7-4.9,6.4-7.1c1.7-2.2,2.3-3.3,1.9-3.2v-0.2v-0.2h0.2h0.2c0.1-0.5,0.2-1.1,0.3-1.9h0.2c-0.1,0-0.1-0.1-0.1-0.3h0.1h0.1
		c0-0.1,0-0.3,0-0.4c0-0.1,0-0.3,0-0.4h-0.1h-0.1v-0.1c0.1,0,0.2,0,0.2-0.1c-0.1-0.2-0.2-0.5-0.2-0.8h-0.2c0,0,0.1,0.2,0.1,0.5
		c0,0-0.1,0-0.2,0c-0.1,0-0.1-0.1-0.1-0.1c0.2-1.1-0.4-1.9-1.8-2.5c-1.4-0.6-2.7-0.7-3.9-0.4c1.7-1.5,3-2.8,3.9-3.8
		c0.9-1,1.3-2.3,1.2-3.8c0-0.1-0.3-0.6-0.8-1.3c-0.5-0.8-1.4-1-2.7-0.9c0,0.1-0.1,0.2-0.2,0.2c-0.1,0-0.2-0.1-0.1-0.2
		c-0.4,0-1.2,0-2.3,0.2c-1.1,0.2-2.3,0.4-3.5,0.7c-1.2,0.3-2.2,0.6-3.1,1c-0.9,0.3-1.3,0.7-1.3,0.9c-0.5,0-1.3,0.2-2.4,0.4
		c-1.2,0.3-1.8,0.7-1.9,1.1c-0.4,0.1-0.6,0.5-0.6,1c0,0.6,0.4,0.7,1.1,0.5c0.3,0,0.7-0.1,1.1-0.3c0.4-0.1,0.7-0.4,0.9-0.8h0.2v-0.3
		h0.2h0.2v-0.1h0.4c0-0.1,0.1-0.2,0.3-0.3c0.2-0.1,0.4-0.1,0.4-0.1V28c1.4-0.4,3.1-1,5.3-1.7c2.1-0.7,4-0.8,5.7-0.3v0.1
		c0-0.1,0.2-0.1,0.4,0c0.3,0.1,0.4,0.1,0.6,0.1c0.7,0.6,0.7,1.4-0.1,2.5s-1.5,1.8-2.1,2.2c-0.1,0.4-0.2,0.6-0.4,0.7
		c-0.1,0-0.1,0.1-0.1,0.2c0,0-0.1,0-0.2,0.1c-0.1,0.1-0.2,0.2-0.2,0.4h-0.2h-0.2c0,0,0,0.1,0.1,0.3c-0.3,0.2-0.5,0.3-0.7,0.4
		c-0.2,0.1-0.3,0.3-0.4,0.6c-0.7,0-1.2,0.3-1.2,0.8c-1.5,0.6-2.8,1.4-4,2.1c-1.2,0.8-2.2,1.2-2.8,1.2c0-0.1,0.1-0.4,0.2-0.8
		c0.2-0.4,0.3-0.7,0.3-0.9h0.1v-0.1c0.4-0.4,0.5-0.9,0.5-1.6c0-0.7,0.2-1.3,0.6-1.7c0-0.2-0.1-0.3-0.1-0.3c0,0,0.1,0,0.3-0.2
		c0,0-0.1-0.1-0.1-0.1l0.1-0.1c-0.1-0.3,0-0.9,0.3-1.7c0.4-0.8,0.6-1.4,0.8-1.7l-1.5-0.1c-0.1,0.7-0.2,1.1-0.3,1.3
		c-0.1,0.2-0.2,0.6-0.3,1.2c0,0-0.1,0.1-0.2,0.4c-0.1,0.3-0.1,0.4-0.2,0.5c-0.1,0.4-0.2,0.8-0.2,1c-0.1,0.3-0.2,0.6-0.2,1
		c0,0.1-0.2,0.3-0.4,0.6c0,0,0,0.3,0,0.6c0,0.4,0,0.4,0,0.2c-0.1,0-0.2,0.1-0.3,0.2c-0.1,0.2-0.1,0.3-0.1,0.3c0,0,0.1,0.1,0.2,0.1
		c0,0.2-0.1,0.5-0.2,0.9c-0.2,0.4-0.2,0.7-0.2,0.9c-0.4,0-0.9,0.2-1.5,0.7c-0.6,0.4-0.8,0.7-0.5,0.9c-0.5,0.1-0.7,0.3-0.7,0.5
		c0,0.2,0.1,0.5,0.1,1h0.1c0,0,0,0.1-0.1,0.1c0.3,0.1,0.8,0.1,1.3-0.1c-0.2,0.4-0.3,0.7-0.3,1h-0.1h-0.1c-0.1,0.3-0.2,0.6-0.4,0.7
		v0.1c0,0,0.1,0,0.2,0.1c-0.2,0.3-0.5,0.7-0.7,1.3c-0.3,0.6-0.4,1-0.4,1.3c0,0.2,0,0.3,0.1,0.3c-0.6,1.4-1,2.4-1.2,3.2
		c-0.2,0.7-0.5,1.9-0.9,3.4v0.1l-0.1-0.1c-0.3,0.1-0.6,0.4-0.8,0.7c-0.3,0.3-0.3,0.4-0.1,0.3c0,0.1-0.2,0.2-0.4,0.4
		c-0.2,0.2-0.5,0.3-0.7,0.5c-0.2,0.3-0.5,0.6-0.7,0.9c-0.3,0.3-0.5,0.5-0.8,0.6c0,0.1,0,0.3-0.1,0.3c-0.1,0.1-0.2,0.2-0.2,0.3h-0.2
		c0,0.1-0.1,0.3-0.1,0.6c-0.1,0-0.3,0.3-0.6,0.9c-0.3,0.6-0.5,1.1-0.6,1.4h0.1c0,0-0.1,0.2-0.1,0.4c0.1,0,0.1,0,0.1,0.1
		c-0.1,0-0.1,0-0.1,0.1v0.1v0.1c0.2,0,0.4,0.2,0.6,0.4c0.1,0.2,0.3,0.4,0.6,0.4v0.2c0.6,0,1,0,1.3,0.1
		C94.9,61.2,97.4,60.3,100.3,58.3"/>
	
		<polyline style="clip-path:url(#SVGID_2_);fill:none;stroke:#E66728;stroke-width:2;stroke-linecap:round;stroke-linejoin:round;" points="
		87.9,18.1 87.9,3.5 172.1,3.5 172.1,18.1 	"/>
	
		<polyline style="clip-path:url(#SVGID_2_);fill:none;stroke:#E66728;stroke-width:2;stroke-linecap:round;stroke-linejoin:round;" points="
		87.9,78.6 87.9,93.9 172.1,93.9 172.1,78.1 	"/>
</g>
</svg>
