<?xml version="1.0" encoding="utf-8"?>
<!-- Generator: Adobe Illustrator 22.0.1, SVG Export Plug-In . SVG Version: 6.00 Build 0)  -->
<svg version="1.1" id="Capa_1" xmlns="http://www.w3.org/2000/svg" xmlns:xlink="http://www.w3.org/1999/xlink" x="0px" y="0px"
	 viewBox="0 0 260 98.9" style="enable-background:new 0 0 260 98.9;" xml:space="preserve">
<style type="text/css">
	.st0{fill:#FFFFFF;}
	.st1{fill:none;stroke:#E66728;stroke-width:2;stroke-linecap:round;stroke-linejoin:round;}
	.st2{fill:#E66728;}
	.st3{fill:none;stroke:#E66728;stroke-width:1.5;stroke-linecap:round;stroke-linejoin:round;}
	.st4{clip-path:url(#SVGID_2_);fill:#E66728;}
	.st5{clip-path:url(#SVGID_2_);fill:#FFFFFF;}
	.st6{fill:none;stroke:#D25A2B;stroke-width:2.082;stroke-linecap:round;stroke-linejoin:round;}
	.st7{fill:none;stroke:#D25A2B;stroke-width:1.948;stroke-linecap:round;stroke-linejoin:round;}
	.st8{clip-path:url(#SVGID_4_);fill:#E66728;}
	.st9{clip-path:url(#SVGID_4_);fill:#FFFFFF;}
	.st10{clip-path:url(#SVGID_6_);fill:#E66728;}
	.st11{clip-path:url(#SVGID_6_);fill:#FFFFFF;}
	.st12{clip-path:url(#SVGID_8_);fill:#E66728;}
	.st13{clip-path:url(#SVGID_8_);fill:#FFFFFF;}
	.st14{fill:none;stroke:#D66F2C;stroke-width:1.594;stroke-linecap:round;stroke-linejoin:round;}
	.st15{clip-path:url(#SVGID_10_);fill:#FFFFFF;}
	.st16{clip-path:url(#SVGID_12_);fill:#FFFFFF;}
	.st17{clip-path:url(#SVGID_14_);fill:#FFFFFF;}
	.st18{fill:none;stroke:#D25A2B;stroke-width:1.906;stroke-linecap:round;stroke-linejoin:round;}
	.st19{fill:none;stroke:#DF6829;stroke-width:1.763;stroke-linecap:round;stroke-linejoin:round;}
	.st20{fill:none;stroke:#D25A2B;stroke-width:1.763;stroke-linecap:round;stroke-linejoin:round;}
</style>
<polyline class="st20" points="73.5,17.4 73.5,2.3 186.5,2.3 186.5,17.4 "/>
<polyline class="st20" points="73.5,80.4 73.5,96.3 186.5,96.3 186.5,79.9 "/>
<path class="st0" d="M171,80.4l1.5-4.9h0l1.5,4.9H171z M171.9,74.2l-3.3,9.8h1.2l0.8-2.6h3.7l0.8,2.6h1.3l-3.2-9.8H171.9z M165.9,84
	h1.2v-9.8h-1.2V84z M163.9,82.6c-0.5,0.3-1.1,0.5-1.8,0.5c-2.1,0-3.2-1.7-3.2-4.2c0-2.4,1.5-3.7,3.1-3.7c0.7,0,1.3,0.2,1.8,0.5v-1.2
	c-0.5-0.2-1.2-0.4-1.9-0.4c-2.6,0-4.4,1.9-4.4,5c0,2.7,1.3,5,4.4,5c0.6,0,1.2-0.1,1.8-0.3V82.6z M149.2,84h1.2V76h0l3.7,8.1h1.5
	v-9.8h-1.2v8.1h0l-3.7-8.1h-1.5V84z M142.4,84h4.8v-1.1h-3.5v-3.5h3.2v-1.1h-3.2v-3.1h3.3v-1.1h-4.6V84z M135.1,75.2h0.7
	c2.4,0,3.3,1.6,3.3,3.7c0,2.5-1.1,4-3.3,4h-0.7V75.2z M133.9,84h1.5c3.7,0,5-2.2,5-5.1c0-2.2-0.9-3.4-1.8-4.1
	c-0.6-0.4-1.3-0.7-2.6-0.7h-2.1V84z M125.1,84h1.2V76h0L130,84h1.5v-9.8h-1.2v8.1h0l-3.7-8.1h-1.5V84z M118.3,84h4.8v-1.1h-3.5v-3.5
	h3.2v-1.1h-3.2v-3.1h3.3v-1.1h-4.6V84z M112.5,75.2h0.7c1.3,0,2,0.5,2,1.9c0,1.1-0.5,1.8-2.1,1.8h-0.7V75.2z M111.3,84h1.2v-4.1h0.8
	c2.1,0,3.2-1,3.2-2.9c0-0.9-0.3-1.5-0.8-2c-0.5-0.5-1.1-0.8-2.1-0.8h-2.4V84z M104.5,84h4.8v-1.1h-3.5v-3.5h3.2v-1.1h-3.2v-3.1h3.3
	v-1.1h-4.6V84z M97.2,75.2h0.7c2.4,0,3.3,1.6,3.3,3.7c0,2.5-1.1,4-3.3,4h-0.7V75.2z M96,84h1.5c3.7,0,5-2.2,5-5.1
	c0-2.2-0.9-3.4-1.8-4.1c-0.6-0.4-1.3-0.7-2.6-0.7H96V84z M87.2,84h1.2V76h0l3.7,8.1h1.5v-9.8h-1.2v8.1h0l-3.7-8.1h-1.5V84z M83.5,84
	h1.2v-9.8h-1.2V84z"/>
<path class="st0" d="M174.4,47.4h0.1v-0.2V47h-0.2c0,0,0,0.1,0,0.1C174.3,47.2,174.4,47.3,174.4,47.4 M186.4,40.1
	c-0.2,1.6-1,3-2.3,4.3c-0.8,0.8-1.7,1.5-2.7,1.9c-1,0.5-1.6,0.7-1.9,0.8c-1.1,0.3-1.8,0.4-2.2,0.2c-0.4-0.1-0.4-0.8-0.1-1.9h0.2
	l-0.1-0.1c0,0,0.1,0,0.1-0.1c0,0,0.1-0.2,0.1-0.4c0,0,0.1,0,0.1-0.1c0,0,0-0.1,0.1-0.2c0-0.1,0.1-0.1,0.1-0.2c0-0.1,0-0.1,0.1-0.1
	v-0.3h0.3c-0.1-0.1-0.2-0.2-0.2-0.3c0.1-0.1,0.3-0.3,0.4-0.5c0.1-0.2,0.3-0.4,0.5-0.5l-0.1-0.1h0.1h0.1c0-0.3,0.2-0.7,0.7-1.2
	c0.5-0.5,0.9-0.9,1.2-1c-0.1,0-0.1,0-0.1-0.1c0.1,0,0.2,0,0.3-0.1c0.1-0.1,0.2-0.1,0.3-0.2v-0.3l-0.1-0.1c0.1,0,0.2-0.1,0.3-0.2
	c0.1-0.1,0.2-0.2,0.4-0.3c0.6-0.4,1-0.6,1.4-0.8h0.1c0.4-0.2,0.9-0.3,1.4-0.2C186.1,37.8,186.6,38.5,186.4,40.1 M179.7,55.9
	c-1,0.4-2,0.6-2.8,0.6c-0.9,0-1.6-0.5-2.2-1.5c-0.6-0.9-0.7-2-0.4-3.5c0.3-1.5,0.7-2.9,1.3-4.2c0.1-0.2,0.2-0.4,0.3-0.6
	c0.1-0.2,0.2-0.4,0.4-0.7c-0.5,1.4-0.2,2.2,1,2.3c1.2,0.1,2.7-0.3,4.6-1.2c1.3-0.6,2.4-1.4,3.4-2.4c1-1,1.5-2.2,1.7-3.6
	c0-0.6,0-1.3,0.1-2.2c0.1-0.9-0.3-1.4-1.1-1.6c-0.6,0-1.3,0-2.1,0.2c-0.8,0.2-1.1,0.4-1.1,0.5c-0.8-0.2-2.1,0.6-3.9,2.5
	c-1.8,1.8-3.2,3.8-4.2,6h-0.2c-0.2,0.2-0.2,0.3-0.1,0.3c0.3,0,0.5,0.1,0.5,0.4c-0.4,0.3-0.7,0.4-0.9,0.4c0,0,0.1,0.1,0.1,0.1
	c0,0.2,0,0.4-0.1,0.5h0.1c0,0.1-0.1,0.2-0.4,0.2c-0.6,1.1-1,2.1-1.2,3.1c-0.1,1-0.1,2,0,2.8c0.3,1.4,1,2.3,2.1,2.8
	c0.1,0,0.2,0,0.2-0.1c0,0,0-0.1,0.2-0.1c0,0.1,0.1,0.2,0.1,0.4c0.7,0.3,1.4,0.4,2,0.4c0.4,0,0.7,0,1-0.1c0.6-0.1,1.3-0.3,2-0.7
	c0.3-0.2,0.5-0.3,0.6-0.4c0,0,0.3-0.2,0.7-0.5c0.1-0.1,0.2-0.3,0.3-0.4h0.1l0.4-0.4c0.1-0.1,0.4-0.3,0.8-0.5
	c0.4-0.3,0.5-0.5,0.5-0.7c0.1,0,0.3-0.1,0.3-0.2c0.1-0.1,0.2-0.2,0.3-0.3c0,0,0.1-0.2,0.3-0.3c0.1-0.2,0.3-0.3,0.4-0.4
	c-0.1,0-0.3,0.1-0.3,0.2c-0.1,0.1-0.1,0.2-0.2,0.2c-0.1,0-0.1-0.1-0.1-0.2c0.1,0,0.3-0.1,0.5-0.2c0.2-0.1,0.3-0.1,0.3-0.1
	c0-0.3,0.1-0.6,0.4-0.8c-0.3,0.2-0.5,0.4-0.5,0.7c0-0.1-0.1-0.2-0.1-0.3c0-0.1,0.1-0.2,0.3-0.3c0.1-0.1,0.2-0.2,0.3-0.3
	c0-0.1,0-0.2-0.1-0.3h0.1c0,0,0.1,0,0.3-0.1c0-0.2,0.1-0.3,0.1-0.4c0-0.1,0.1-0.1,0.2-0.1v-0.1v-0.1c0.1,0,0.2-0.1,0.3-0.1
	c-0.2-0.1-0.5-0.1-0.6,0.1c-0.2,0.2-0.4,0.4-0.5,0.5c-0.4,0.6-0.9,1.2-1.5,1.8c-0.6,0.6-1.1,1.1-1.6,1.5c-0.2,0.1-0.4,0.2-0.6,0.4
	h-0.1C180.8,55.3,180.3,55.6,179.7,55.9 M156.9,47.5h0.1c0-0.2,0-0.3,0.1-0.4H157h-0.2C156.9,47.2,156.9,47.3,156.9,47.5
	 M168.2,51.4L168.2,51.4L168.2,51.4z M154.8,51.6c-0.3,1-0.4,2-0.4,2.8c0.1,1.4,0.7,2.3,1.7,2.7c0.1,0,0.2,0,0.3,0c0,0,0.1,0,0.3,0
	v0.1v0.2c0.6,0.3,1.4,0.4,2.4,0.4c0.8,0,1.5-0.3,2.3-0.7c0.8-0.4,1.5-0.9,2.3-1.3c0.1,0,0.2-0.1,0.4-0.1c0.1,0,0.3-0.1,0.4-0.2
	c0.1,0,0.4-0.2,0.8-0.5c0.4-0.3,0.8-0.6,1.1-0.9c0.1-0.1,0.3-0.3,0.5-0.5c0.2-0.2,0.3-0.4,0.3-0.6c0,0,0.1-0.1,0.2-0.3
	c0.1-0.1,0.2-0.2,0.3-0.3c0.1-0.1,0.2-0.2,0.3-0.4c0.1-0.2,0.2-0.3,0.4-0.4c-0.1,0-0.2,0.1-0.4,0.4h-0.1h-0.1l0.3-0.3
	c0.4-0.2,0.6-0.3,0.6-0.3v-0.4l0.1-0.1l0.1-0.3c-0.1,0-0.1,0.1-0.1,0.3h-0.2c0,0,0.1,0,0.2-0.1c0.1-0.1,0.2-0.2,0.3-0.2
	c0-0.1,0-0.2-0.1-0.4h0.1c0,0,0.1,0,0.2-0.1l0.1-0.3c0.3-0.1,0.4-0.2,0.2-0.2v-0.2c0.1,0,0.2-0.1,0.2-0.1c-0.2-0.1-0.4,0-0.6,0.2
	c-0.1,0.2-0.3,0.4-0.4,0.6c-1.2,1.4-2.3,2.6-3.5,3.5c-1.2,0.9-2.5,1.7-3.7,2.2c-1,0.5-2,0.7-2.9,0.6c-0.9,0-1.6-0.5-2.1-1.4
	c-0.4-0.9-0.4-2,0-3.5c0.4-1.5,1-2.9,1.8-4.2c1.3-2.4,3-4.6,5.1-6.5c2-1.9,3.8-2.8,5.2-2.7c0.4,0,0.9,0.3,1.5,0.9
	c0,0,0.1,0.1,0.1,0.2l0.1,0.1c0.1,0.4-0.1,0.7-0.7,1.1c-0.6,0.3-0.8,0.8-0.8,1.4c0,0.4,0.3,0.7,0.8,0.7c0.3,0,0.7,0,1.2,0
	c0.5-0.1,0.8-0.3,1-0.8c0.2-0.7,0.4-1.4,0.5-2c0.2-0.6,0-1-0.5-1c-0.1,0-0.3,0-0.5-0.1c-0.2,0-0.4-0.1-0.5-0.1c0,0-0.1-0.1-0.1-0.2
	c0-0.4-0.3-0.6-0.8-0.7c-0.6-0.1-1.3,0-2.1,0.2c-0.8,0.2-1.2,0.4-1.2,0.5c-0.7-0.2-2.1,0.6-4.2,2.4c-2.1,1.8-3.8,3.8-5,6h-0.1
	c-0.2,0.1-0.3,0.2-0.2,0.2c0,0.1,0.1,0.2,0.3,0.2c0.1,0,0.2,0.1,0.2,0.2c-0.2,0.2-0.6,0.4-0.9,0.6h0.1c0,0.1-0.1,0.2-0.1,0.4h0.1
	c0,0.2-0.1,0.3-0.4,0.3C155.5,49.6,155,50.6,154.8,51.6 M153.7,37.5c0.9,0,1.3-0.4,1.3-1.2c0.1-0.5,0-0.8-0.4-1
	c-0.3-0.1-0.4-0.3-0.4-0.4c-0.8-0.1-1.4,0-1.7,0.2c-0.6,0.2-0.8,0.7-0.4,1.6C152.3,37.4,152.8,37.6,153.7,37.5 M145.1,57.5
	c0.1,0.1,0.2,0.2,0.3,0.3c0.5,0,1.1,0,1.6,0c0.1,0,0.5-0.1,0.9-0.3c0.5-0.2,0.9-0.4,1.3-0.6c0.1,0,0.3-0.2,0.6-0.3
	c0.3-0.2,0.4-0.3,0.5-0.5c0.1,0,0.3,0,0.4-0.1c0.1-0.1,0.2-0.2,0.4-0.2c0,0,0.2-0.1,0.3-0.2c0.2-0.1,0.3-0.3,0.5-0.4
	c-0.1,0-0.3,0-0.4,0.1c-0.1,0.1-0.2,0.1-0.2,0.1c-0.2,0-0.2,0,0-0.1c0.1,0,0.2,0,0.4-0.1c0.2-0.1,0.3-0.1,0.4-0.1
	c0.1-0.3,0.3-0.5,0.5-0.6c-0.4,0.1-0.6,0.3-0.6,0.6c0-0.1-0.1-0.2-0.1-0.3c0.4-0.2,0.7-0.3,0.8-0.4c0-0.1,0-0.2,0-0.2
	c0.1,0,0.2-0.1,0.2,0c0,0,0.1,0,0.2,0c0,0,0-0.1,0.1-0.2c0.1-0.1,0.1-0.1,0.1-0.2c0-0.1,0.1-0.2,0.1-0.2v-0.1c0.2,0,0.3,0,0.4-0.1
	c-0.2-0.1-0.4-0.1-0.6,0c-0.2,0.2-0.4,0.3-0.6,0.5c-0.8,0.5-1.6,1-2.6,1.6c-1,0.6-1.7,0.9-2,1c-0.3,0-0.6,0.1-1,0.1
	c-0.4,0-0.6,0-0.8-0.1c-0.1-0.1-0.1-0.3-0.1-0.5c0-0.2,0-0.4,0-0.5c0.1-0.8,0.5-1.7,1-2.9c0.5-1.2,1.2-2.5,1.9-4.1
	c0.7-1.5,1.4-2.9,2.1-4.2c0.7-1.3,1.2-2,1.6-2.2v-0.1c0.2-0.1,0.4-0.5,0.6-0.9c0.2-0.5,0.3-0.9,0.3-1.2c-0.1-0.5-0.6-0.8-1.4-0.8
	c-0.6,0-0.9,0.2-1.1,0.6c-0.2,0.4-0.3,0.7-0.3,0.8c0,0.1-0.3,1-1,2.7c-0.7,1.7-1.4,3.4-2.2,5.4c-0.9,2-1.8,4.1-2.9,6.3
	c-0.3,0.7-0.4,1.3-0.2,1.8c0,0-0.1,0.2-0.1,0.4c0.2,0,0.3,0,0.4,0.1v0.1c0,0.1,0.1,0.2,0.3,0.3C144.9,57.3,145,57.4,145.1,57.5
	 M132.5,52.1c-0.1,0.2-0.1,0.4-0.1,0.6c0,0,0.1-0.1,0.1-0.1c0.1-0.2,0.2-0.6,0.3-1.1C132.7,51.6,132.6,51.8,132.5,52.1 M133.5,49.7
	h0.1c0-0.1,0.1-0.3,0.2-0.6h-0.3c0,0.1,0,0.3,0,0.3C133.5,49.5,133.5,49.6,133.5,49.7 M133.9,48.4v-0.2h0.1v0.1L133.9,48.4z
	 M134.9,46.4h0.1c0-0.1,0-0.3,0.1-0.6c0.1-0.2,0.1-0.4,0.1-0.6c-0.1,0.2-0.2,0.4-0.3,0.6C135,46,134.9,46.2,134.9,46.4 M135.9,43.6
	l0.2-0.1v-0.1C136.1,43.4,136,43.4,135.9,43.6 M136.6,42.6c-0.1,0-0.1-0.2,0-0.4h-0.2c0,0.2,0,0.3-0.1,0.3c0,0,0,0.1,0.1,0.1
	C136.4,42.6,136.5,42.6,136.6,42.6 M136.8,41.8c0.1-0.1,0.2-0.2,0.2-0.3c-0.3,0.1-0.4,0.2-0.4,0.3c0,0.1,0,0.2,0,0.4
	C136.6,42,136.7,41.9,136.8,41.8 M137.2,40.8l-0.1,0.2C137.1,40.9,137.2,40.9,137.2,40.8 M136.2,39.5c-0.7,1.5-1.2,2.9-1.3,4h-0.2
	v0.4c-0.1,0-0.2,0-0.4,0.1c0,0,0-0.2,0.1-0.5c-0.3,0.2-0.5,0.5-0.4,1h-0.1c0,0.2,0,0.4-0.1,0.7c-0.1,0.3-0.3,0.5-0.4,0.5
	c-0.2,0.4-0.8,1.7-1.5,3.9c-0.8,2.2-1.4,4-1.9,5.6c-0.3,0.8-0.5,1.5-0.5,1.9c0,0,0,0.1,0,0.2c0,0.1,0,0.2,0,0.2c0,0,0.1,0.1,0.2,0.1
	c0,0.4,0.3,0.8,0.7,1.2c0.5,0.1,1,0.1,1.6,0c0.1,0,0.4-0.1,0.9-0.4c0.5-0.2,0.9-0.4,1.3-0.6c0.6,0,0.9-0.2,1.1-0.7
	c0.4-0.2,0.6-0.3,0.7-0.4c0.1,0,0.2-0.1,0.4-0.2c0.1-0.1,0.3-0.2,0.4-0.3c-0.1,0-0.3,0.1-0.5,0.2c-0.1-0.1-0.1-0.1,0-0.1
	c0.3-0.3,0.6-0.4,0.9-0.2c0-0.2,0.1-0.5,0.4-0.6c-0.1,0-0.3,0.2-0.6,0.5c-0.1-0.1-0.1-0.2-0.1-0.3c0,0,0.4-0.1,0.9-0.4
	c0-0.1,0-0.2-0.1-0.4h0.2h0.2c0.1-0.1,0.2-0.2,0.2-0.2l0.1-0.2c0,0,0-0.1,0.1-0.1c0,0,0.1-0.1,0.3-0.1c-0.1-0.1-0.3-0.1-0.6,0
	c-0.3,0.1-0.5,0.3-0.6,0.4c-0.7,0.5-1.6,1.1-2.6,1.6c-1,0.6-1.7,0.9-2.1,0.9c-0.6,0.1-1,0.1-1.2-0.1c0-0.1,0-0.3-0.1-0.5
	c0-0.1,0.1-0.4,0.1-0.6c0-0.3,0.1-0.6,0.1-0.9c0.1-0.3,0.2-0.6,0.3-0.8c0.1-0.3,0.1-0.5,0-0.7v-0.1c0.2,0,0.3-0.1,0.3-0.3l-0.2,0.1
	h-0.1c0-0.1,0-0.2-0.1-0.3c0.1,0,0.2-0.2,0.2-0.4c0-0.2,0-0.4,0.1-0.5c0,0,0.1,0,0.1-0.1c0-0.1,0-0.3,0.1-0.4
	c0.1-0.1,0.1-0.3,0.1-0.4c0.3,0,0.4-0.2,0.4-0.5c0-0.3,0.1-0.5,0.4-0.7h-0.3c0,0.4-0.1,0.6-0.3,0.5c0-0.1,0-0.3,0.1-0.4
	c0.1-0.1,0.1-0.2,0.1-0.3c0,0,0.1-0.1,0.2-0.1c0-0.4,0.1-0.8,0.4-1c0.2-0.3,0.5-0.5,0.6-0.8H134c0-0.1,0.1-0.2,0.2-0.2
	c0.1,0,0.2-0.1,0.3-0.2v-0.2c0,0-0.1,0-0.2,0.1c0,0,0-0.1-0.1-0.1c0,0-0.1-0.1-0.1-0.1c0.1,0,0.3-0.1,0.5-0.1
	c-0.3-0.3-0.3-0.6,0.1-0.8c-0.2-0.3-0.2-0.6,0.1-0.6c0,0-0.1,0-0.1,0c0,0,0-0.1,0-0.1c0.1-0.1,0.2-0.2,0.3-0.4
	c0-0.1,0.1-0.3,0.3-0.4l0.1,0.1h0.2v-0.1c-0.2,0-0.3-0.1-0.3-0.2c0.1,0,0.2-0.1,0.3-0.1c0,0-0.1-0.1-0.1-0.3
	c0.1-0.1,0.1-0.2,0.1-0.4c0.1,0,0.2,0,0.3,0c0.1,0,0.1,0,0.2,0v-0.1h-0.2h-0.2c0,0,0-0.1-0.1-0.2c0.1-0.1,0.2-0.2,0.3-0.2
	c0.1,0,0.3-0.1,0.4-0.3v-0.1h-0.1H136c0-0.1-0.1-0.2-0.1-0.3c0,0,0-0.1,0.1-0.1c0,0.1,0.1,0.2,0.1,0.2c-0.1-0.1,0-0.5,0.2-1.1
	c0.2-0.6,0.5-0.9,0.6-0.9c0,0-0.1-0.1-0.1-0.1h0.2v-0.2v-0.2h0.1h0.1c-0.2-0.2-0.2-0.4,0.1-0.4c0,0.1,0,0.2,0,0.3l0.1,0.1
	c0.3-0.6,0.4-1,0.4-1.2c-0.1,0.2-0.3,0.4-0.3,0.5c-0.1,0.1-0.1,0.1-0.1,0.2h-0.1c0,0,0-0.1-0.1-0.2c0.1-0.2,0.2-0.4,0.4-0.4
	c-0.1,0-0.1,0-0.1-0.1h0.1v-0.2l0.2-0.1V39c0-0.1,0.1-0.1,0.3-0.1c0,0-0.1,0-0.1-0.1c0.8-0.2,1.6-0.3,2.4-0.5c0.8-0.1,1.6-0.1,2.3,0
	l0.2-0.2c0.3,0.2,0.6,0.2,1.1,0.1c0.4-0.1,0.8-0.1,1.1,0.1c0.2-0.2,0.5-0.4,0.7-0.4c0-0.2-0.1-0.3-0.1-0.4c0.1-0.1,0.3-0.2,0.4-0.3
	c0.1,0,0.2,0.1,0.3,0.2c-0.1,0-0.2,0.2-0.2,0.4h-0.1c0,0.2,0.2,0.4,0.6,0.4V38v-0.1c0.1,0,0.3,0,0.4-0.1c0.1-0.1,0.2-0.2,0.4-0.3
	c0,0-0.1-0.2-0.1-0.4c-0.5,0.1-0.8,0.1-0.8-0.1c-0.1-0.1-0.3-0.3-0.7-0.4c0,0,0,0.1-0.1,0.1c-0.2,0-0.3,0-0.3-0.1
	c-0.7,0-1.2,0.1-1.3,0.1h-0.4v-0.3c-0.1,0-0.2,0-0.2,0.1c0,0-0.1,0.1-0.2,0.1c0,0,0,0.1-0.1,0.2h-0.1h-0.1v-0.2c0,0-0.1,0.1-0.1,0.1
	c-0.4,0-1,0-1.8,0.1c-0.7,0.1-1.6,0.2-2.5,0.3c0.1-0.2,0.1-0.4,0.1-0.6h0.1h0.1c0,0.1,0,0.3-0.1,0.4c0.1,0,0.1-0.1,0.1-0.2
	c0-0.1,0.1-0.3,0.2-0.4v-0.1c-0.1,0-0.2,0-0.3-0.1v-0.1l1.4-2.9c0.3-0.1,0.5-0.4,0.5-0.6c0-0.3,0.1-0.5,0.1-0.6
	c0-0.3-0.3-0.4-0.8-0.4c-0.5,0-0.8,0.2-0.9,0.5c-0.2,0.3-0.4,0.6-0.6,0.9c-0.2,0.3-0.4,0.7-0.4,1.2c-0.1,0.1-0.2,0.2-0.3,0.3
	c-0.1,0.1-0.1,0.2-0.2,0.2l-0.2,0.9c-0.1,0.2-0.1,0.4-0.1,0.5l-0.4,0.7c0,0,0,0.1-0.1,0.1h0.1l-0.3,0.7c-1.4,0.3-2.8,0.6-4,1
	c-1.2,0.4-2.1,0.8-2.5,1.2c0,0.1,0,0.2,0,0.3c-0.1,0-0.1,0.1-0.1,0.2v0.3c0,0.1,0,0.3,0.1,0.4h0.1h0.1c0,0.4,0.1,0.5,0.4,0.4
	c0.2-0.1,0.5-0.2,0.8-0.2c0-0.1,0-0.2,0-0.2c0,0,0-0.1,0-0.1c0.5-0.1,1.1-0.5,1.9-1c0.8-0.5,1.3-0.5,1.6-0.1
	C135.5,39.7,135.8,39.6,136.2,39.5 M118.5,44.8c-0.2,0-0.4-0.1-0.4-0.3h0.2C118.3,44.7,118.4,44.8,118.5,44.8 M122.5,44h0.4v0.1
	h-0.2C122.5,44.1,122.4,44,122.5,44 M116.7,51.1h0.1v0.2h-0.2C116.6,51.2,116.6,51.1,116.7,51.1 M117.5,46.7c-0.1,0-0.2,0-0.3,0.1
	c0-0.1,0.1-0.3,0.2-0.4c0,0,0.1-0.1,0.2-0.1C117.6,46.4,117.6,46.5,117.5,46.7 M113.5,57.8c0.2-0.4,0.5-0.9,0.8-1.5
	c0.4-0.6,0.8-1.2,1.2-1.8c0.3-0.5,0.7-1,1.1-1.5c0.4-0.5,0.8-1,1.2-1.6c0.9-1.2,1.7-2.3,2.6-3.4c0.8-1.1,1.6-2,2.2-2.7
	c0.3-0.3,0.8-0.9,1.7-1.8c0.8-0.8,1.5-1.4,2.1-1.6c0,0,0.2-0.1,0.4-0.1c0,0.1-0.2,0.6-0.4,1.4c-0.6,0.7-0.5,1.2,0.1,1.5
	c0.2,0.2,0.6,0.1,0.9-0.4c0.4-0.5,0.5-0.8,0.2-1.1c0.1-0.1,0.2-0.5,0.4-0.9c0.1-0.4,0.3-0.8,0.5-1.2c0.2-0.4,0.4-0.8,0.6-1.2v-0.4
	c0-0.2-0.1-0.4-0.4-0.6c-0.4-0.4-0.7-0.6-1-0.6c-0.1,0.1-0.3,0.2-0.5,0.2c-0.2,0-0.3,0.1-0.4,0.3c-0.8,0.9-1.4,1.6-1.8,2.1
	c-0.5,0.5-0.9,1-1.3,1.5c-0.4,0.5-0.7,0.7-0.7,0.8v0.3h0.1c0,0-0.1,0-0.1,0.1c-0.1,0-0.3-0.1-0.4-0.1c-1,1.2-1.8,2-2.3,2.6
	c-0.5,0.6-1.5,2-3,4.4v0.2c0,0,0,0.1-0.1,0.1h-0.1c0.5-2.4,1.3-4.6,2.3-6.4c1-1.8,1.7-3.6,2.2-5.1c0-0.3-0.2-0.6-0.7-0.6
	c-0.5-0.1-0.8,0-1,0.4c-0.1,0.8-0.5,1.6-1.1,2.2c-0.8,0.7-1.8,1.1-3,1.1c-1.1-0.3-1.6,0.1-1.6,1.3c0,0.2,0.2,0.4,0.7,0.5
	c1.2,0,2.3-0.3,3.2-0.9l0.5-0.4c-0.2,1.3-0.7,2.9-1.6,4.6l0.2-0.1c0,0.1,0,0.3-0.1,0.4h-0.1v0.1c0,0.2-0.1,0.4-0.3,0.4
	c-0.1,0.2-0.2,0.5-0.4,0.7c0.1,0,0.3-0.1,0.4-0.3c0,0.3-0.2,0.5-0.3,0.6c-0.2,0.1-0.3,0.3-0.5,0.5h-0.1c-0.3,0.7-0.6,1.2-0.9,1.5
	c0,0.2,0,0.3-0.1,0.4h-0.2l-0.4,0.9l0.1-0.1c0,0.1-0.1,0.3-0.1,0.4h-0.1l-0.1,0.1c0,0.1,0,0.3-0.1,0.4h-0.1l-0.4,0.7
	c0,0,0.2-0.1,0.5-0.3c-0.1,0.3-0.2,0.5-0.4,0.6c-0.2,0.1-0.3,0.3-0.4,0.5h-0.3l-0.5,0.9c-0.1,0.1-0.3,0.5-0.4,1
	c0,0.5,0.2,0.8,0.6,0.9C112.7,58.1,113.1,58,113.5,57.8 M98.4,48h0.1v-0.2c0,0-0.1,0-0.2-0.1C98.3,47.8,98.4,47.9,98.4,48
	 M110.4,40.9c-0.2,1.6-1,3-2.3,4.3c-0.8,0.8-1.7,1.4-2.7,1.8c-1,0.5-1.6,0.8-1.9,0.9c-1.1,0.3-1.8,0.4-2.2,0.2
	c-0.4-0.2-0.4-0.9-0.1-2h0.2c-0.1,0-0.1-0.1-0.1-0.1h0.1c0-0.1,0.1-0.3,0.1-0.4c0,0,0-0.1,0.1-0.1c0-0.1,0-0.2,0.1-0.2
	c0,0,0.1-0.1,0.1-0.2h0.1v-0.2v-0.1c0.1-0.1,0.2-0.1,0.3-0.1l-0.2-0.2c0.1-0.1,0.3-0.3,0.4-0.6c0.1-0.2,0.3-0.4,0.5-0.4
	c-0.1,0-0.1-0.1-0.1-0.1h0.1h0.1c0-0.3,0.2-0.7,0.7-1.2c0.5-0.5,0.9-0.9,1.2-1c-0.1,0-0.1,0-0.1-0.1c0.2-0.1,0.4-0.2,0.6-0.2v-0.4
	l-0.1-0.1c0.1,0,0.2-0.1,0.3-0.2c0.1-0.1,0.2-0.2,0.4-0.3c0.2-0.1,0.5-0.3,0.7-0.4c0.2-0.1,0.4-0.2,0.7-0.3h0.1
	c0.4-0.2,0.9-0.3,1.4-0.3C110.1,38.6,110.7,39.3,110.4,40.9 M107.7,36.7c0.2,0,0.3,0,0.4-0.1v-0.1c0.4,0,1-0.2,1.8-0.8
	c0.8-0.6,1.5-1,2.2-1.3c0.2-0.1,0.4-0.2,0.6-0.3c0,0-0.1-0.1-0.1-0.3c0.3,0,0.5,0,0.6-0.1c0.1,0,0.2-0.1,0.3-0.4
	c0.2-0.1,0.5-0.2,0.9-0.3c0,0,0.1-0.1,0.1-0.1c0.1-0.1,0.2-0.2,0.3-0.2c-0.2-0.1-0.5-0.1-0.9-0.1h-0.2h-0.1c0-0.1,0-0.1-0.1,0
	c-0.6,0.2-1.2,0.4-1.7,0.8c-0.6,0.3-1.2,0.6-1.7,0.9c-0.5,0.3-1,0.5-1.4,0.6c-0.4,0.1-0.8,0.3-1.1,0.4c-0.1,0.1-0.2,0.3-0.3,0.4
	c0,0.1,0,0.4,0.1,0.8h0.1C107.3,36.6,107.4,36.7,107.7,36.7 M103.8,56.6c-1,0.5-2,0.7-2.8,0.7c-0.9,0-1.6-0.5-2.2-1.5
	c-0.6-0.9-0.7-2-0.4-3.5c0.3-1.5,0.7-2.9,1.3-4.2c0.1-0.2,0.2-0.4,0.3-0.6c0.1-0.2,0.2-0.4,0.4-0.7c-0.5,1.4-0.2,2.2,1,2.4
	c1.2,0.1,2.7-0.2,4.6-1.2c1.3-0.6,2.4-1.4,3.4-2.4c1-1.1,1.5-2.3,1.7-3.6c0-0.6,0-1.4,0.1-2.2c0.1-0.8-0.3-1.3-1.1-1.5
	c-0.6-0.1-1.3-0.1-2.1,0.1c-0.8,0.2-1.1,0.4-1.1,0.5c-0.8-0.1-2.1,0.7-3.9,2.5c-1.8,1.8-3.2,3.8-4.2,6h-0.2c0,0.1,0,0.2-0.1,0.2
	c-0.1,0-0.1,0.1,0,0.1c0.3,0.2,0.5,0.3,0.5,0.4c-0.3,0.2-0.6,0.4-0.9,0.4c0,0.1,0.1,0.1,0.1,0.1c0,0.1,0,0.3-0.1,0.4h0.1
	c0,0.2,0,0.3-0.1,0.2c-0.1,0-0.2-0.1-0.3-0.1c-0.6,1-1,2-1.2,3.1c-0.1,1.1-0.1,2,0,2.9c0.3,1.4,1,2.4,2.1,2.7c0.1,0,0.2,0,0.2,0
	c0,0,0,0,0.2,0c0,0,0.1,0.1,0.1,0.3c0.6,0.3,1.2,0.4,2,0.4c0.1,0,0.4,0,1-0.1c0.3-0.1,0.7-0.3,1-0.4c0.3-0.1,0.7-0.2,1-0.3
	c0.1,0,0.3-0.2,0.6-0.4l0.7-0.6c0.1-0.1,0.2-0.2,0.3-0.2l0.1-0.1c0.2-0.1,0.3-0.2,0.4-0.4c0.1,0,0.4-0.2,0.8-0.5
	c0.4-0.3,0.5-0.5,0.5-0.7c0.1,0,0.3-0.1,0.3-0.3c0.1-0.1,0.2-0.2,0.3-0.3c0-0.1,0.1-0.2,0.3-0.4c0.1-0.2,0.3-0.3,0.4-0.4
	c-0.1,0-0.3,0.1-0.3,0.2c-0.1,0.1-0.1,0.2-0.2,0.2c-0.2,0-0.2-0.1-0.1-0.2c0.1,0,0.3-0.1,0.5-0.2c0.2-0.1,0.3-0.2,0.3-0.2
	c0-0.3,0.1-0.6,0.4-0.8c-0.1,0-0.3,0.3-0.5,0.7c0-0.1-0.1-0.2-0.1-0.3c0,0,0.1-0.1,0.3-0.2c0.1-0.1,0.2-0.2,0.3-0.3
	c0-0.1,0-0.3-0.1-0.4h0.1c0,0,0.1,0,0.3-0.1l0.1-0.3c0.2-0.2,0.3-0.3,0.2-0.3v-0.1c0.1,0,0.2-0.1,0.3-0.2c-0.2,0-0.5,0-0.6,0.3
	c-0.2,0.2-0.4,0.4-0.5,0.6c-0.4,0.5-0.9,1-1.5,1.7c-0.6,0.6-1.1,1.1-1.6,1.4c-0.2,0.2-0.4,0.4-0.6,0.4l-0.1,0.1
	C104.8,56.1,104.2,56.4,103.8,56.6 M76.1,54.9v-0.3h0.2v0.2C76.3,54.8,76.2,54.8,76.1,54.9 M74.6,61.8c0.1-0.2,0.3-0.4,0.6-0.5
	c0-0.6,0.2-1.1,0.7-1.7c0.5-0.5,0.7-1.1,0.6-1.7c0.1,0,0.3-0.3,0.4-0.7c0.1,0,0.2,0,0.2-0.1c0-0.3,0.2-0.7,0.5-1.1
	c0.3-0.4,0.5-0.8,0.5-1.2c0.1,0,0.2-0.1,0.2-0.1c0-0.4,0.4-1,0.9-1.8c0.6-0.8,0.8-1.3,0.8-1.4c1.1-2.6,2.9-5.6,5.6-9
	c2.7-3.4,5.5-8.3,8.4-14.5h0.4c0-0.1,0-0.3,0-0.5c0.1,0,0.2-0.1,0.3-0.1v-0.2c0.2,0,0.5-0.4,0.8-1c0.3-0.6,0.4-1,0.5-1.3
	c0.2,0,0.3-0.1,0.4-0.1c0-0.1,0-0.2-0.1-0.3l0.2-0.8c-0.1-0.1-0.3-0.2-0.5-0.3c-0.2-0.1-0.4-0.2-0.4-0.3c-0.4,0-0.7,0.1-0.8,0.4
	c-0.1,0.3-0.3,0.5-0.5,0.6c-0.1,0.4-0.5,0.8-0.9,1c0,0.1,0.1,0.2,0.1,0.3c0,0.1,0.1,0.1,0.1,0.1c-0.1,0.2-0.3,0.3-0.4,0.4
	c-0.1,0.1-0.1,0.3-0.1,0.5c-0.1,0-0.2,0.1-0.2,0.1c0,0.1-0.1,0.3-0.1,0.5c-0.1,0-0.2,0-0.3,0.1c0,0.1,0,0.2-0.1,0.3
	c0,0,0,0.1,0.1,0.1c0,0.1-0.1,0.2-0.3,0.2c0.5,0.4,0.5,0.7-0.2,0.9c0,0.3,0,0.5,0.1,0.7c-0.6,0.9-1.4,2.2-2.6,4
	c-1.1,1.8-2.4,3.7-3.7,5.9c-1.4,2.2-2.8,4.4-4.3,6.7c-1.5,2.3-2.9,4.4-4.1,6.3c-0.1,0.3-0.3,0.7-0.5,1.2c-0.2,0.5-0.5,0.7-0.8,0.7
	v-0.2c-0.1,0-0.2,0.1-0.4,0.2c-0.1-0.1-0.3-0.2-0.4-0.2c-0.1,0-0.2-0.1-0.2-0.1c0-0.1,0.1-0.2,0.3-0.3c0,0-0.1,0-0.2-0.1
	C75,53,75,52.5,75.1,52.1c0.1-0.4,0.1-0.9,0.1-1.5c0.2-3,0.5-5.5,0.6-7.4c0.2-2,0.4-4,0.6-6c0.2-2,0.4-3.5,0.7-4.4
	c0,0-0.1-0.1-0.3-0.1c0.1-0.1,0.3-0.3,0.4-0.5c0.1-0.3,0.1-0.5-0.1-0.7c0-0.1,0.1-0.3,0.1-0.6c0-0.2,0.1-0.5,0.3-0.7
	c-0.1-0.3-0.2-0.4-0.2-0.3c0-1.6,0-2.4-0.2-2.6l0.1-0.1c-0.1,0-0.3-0.1-0.4-0.1V27v-0.1c-0.2,0-0.6-0.1-1-0.1v0.1
	c-0.4,0.3-0.6,0.6-0.6,1c0,0,0.1,0.1,0.1,0.1v0.2v0.2h0.1c-0.1,0.1-0.2,0.4-0.3,0.9c0,0.4,0,0.7,0,0.9c-0.1,0-0.2,0-0.3,0.1
	c0,0.3,0,0.6,0.1,0.8c-0.1,0-0.1,0-0.1,0.1c0,0.6,0.2,1.1,0.6,1.3c0,0.6-0.1,2-0.3,4.2c-0.1,2.2-0.3,4.6-0.5,7
	c-0.2,2.5-0.5,4.8-0.7,6.9c-0.3,2.1-0.5,3.3-0.8,3.6c0,0,0.1,0.1,0.1,0.3L73,54.4c0,0,0.1,0.1,0.2,0.1c-0.2,0.1-0.3,0.2-0.3,0.4h0.1
	c0,0.1,0,0.3-0.1,0.6h0.2c0,0.6,0.1,1.1,0.1,1.4c0,0.4,0.4,0.6,1.2,0.6c0,0.2-0.2,0.6-0.5,1.2c-0.3,0.6-0.5,1-0.7,1
	c0,0.2,0,0.3,0.1,0.4c-0.1,0-0.2,0-0.3,0.1c-0.1,0-0.2,0.1-0.2,0.1c0,0.2,0,0.4,0,0.4c0,0,0.1,0.1,0.3,0.3c0,0.1,0,0.3-0.1,0.3
	c0,0.1,0,0.2,0.1,0.4h0.1h0.3V62v0.2c0.3,0,0.5,0.1,0.6,0.2C74.4,62.2,74.5,62,74.6,61.8"/>
</svg>
