<?xml version="1.0" encoding="utf-8"?>
<!-- Generator: Adobe Illustrator 22.0.1, SVG Export Plug-In . SVG Version: 6.00 Build 0)  -->
<svg version="1.1" id="Capa_1" xmlns="http://www.w3.org/2000/svg" xmlns:xlink="http://www.w3.org/1999/xlink" x="0px" y="0px"
	 viewBox="0 0 260 98.9" style="enable-background:new 0 0 260 98.9;" xml:space="preserve">
<style type="text/css">
	.st0{fill:#FFFFFF;}
	.st1{fill:none;stroke:#E66728;stroke-width:2;stroke-linecap:round;stroke-linejoin:round;}
	.st2{fill:#E66728;}
	.st3{fill:none;stroke:#E66728;stroke-width:1.5;stroke-linecap:round;stroke-linejoin:round;}
	.st4{clip-path:url(#SVGID_2_);fill:#E66728;}
	.st5{clip-path:url(#SVGID_2_);fill:#FFFFFF;}
	.st6{fill:none;stroke:#D25A2B;stroke-width:2.082;stroke-linecap:round;stroke-linejoin:round;}
	.st7{fill:none;stroke:#D25A2B;stroke-width:1.948;stroke-linecap:round;stroke-linejoin:round;}
	.st8{clip-path:url(#SVGID_4_);fill:#E66728;}
	.st9{clip-path:url(#SVGID_4_);fill:#FFFFFF;}
	.st10{clip-path:url(#SVGID_6_);fill:#E66728;}
	.st11{clip-path:url(#SVGID_6_);fill:#FFFFFF;}
	.st12{clip-path:url(#SVGID_8_);fill:#E66728;}
	.st13{clip-path:url(#SVGID_8_);fill:#FFFFFF;}
	.st14{fill:none;stroke:#D66F2C;stroke-width:1.594;stroke-linecap:round;stroke-linejoin:round;}
	.st15{clip-path:url(#SVGID_10_);fill:#FFFFFF;}
	.st16{clip-path:url(#SVGID_12_);fill:#FFFFFF;}
	.st17{clip-path:url(#SVGID_14_);fill:#FFFFFF;}
	.st18{fill:none;stroke:#D25A2B;stroke-width:1.906;stroke-linecap:round;stroke-linejoin:round;}
	.st19{fill:none;stroke:#DF6829;stroke-width:1.763;stroke-linecap:round;stroke-linejoin:round;}
	.st20{fill:none;stroke:#D25A2B;stroke-width:1.763;stroke-linecap:round;stroke-linejoin:round;}
</style>
<g>
	<g>
		<defs>
			<rect id="SVGID_5_" x="-1.7" y="-32.7" width="263.5" height="159.7"/>
		</defs>
		<clipPath id="SVGID_2_">
			<use xlink:href="#SVGID_5_"  style="overflow:visible;"/>
		</clipPath>
		<path class="st4" d="M189.6,35.6c0-2.7,0-14.8,8.9-14.8s8.9,12,8.9,14.8c0,2.7,0,14.8-8.9,14.8S189.6,38.3,189.6,35.6 M186.3,35.6
			c0,3,0,17.6,12.2,17.6c12.2,0,12.2-14.6,12.2-17.6c0-3,0-17.6-12.2-17.6C186.3,17.9,186.3,32.5,186.3,35.6 M154.6,52.9h2.9V22.3
			h0.1l14.5,30.5h4V18.3h-2.9V49h-0.1l-14.5-30.7h-4V52.9z M133.9,37.1h6.2v12.1c-1.6,0.8-3,1-4.8,1c-9.1,0-12-8.5-12-14.8
			c0-11,6.6-14.7,11.6-14.7c2.6,0,5.9,1.1,7.3,2.2l0.1-3.4c-1-0.6-4.5-1.7-7.2-1.7c-9.7,0-15,8.4-15,17.3c0,6.6,3,18,15.1,18
			c2.8,0,5.5-0.5,8-1.9V34.3h-9.3V37.1z M100.9,21.5L100.9,21.5l5.9,18.9H94.9L100.9,21.5z M87.8,52.9h3.1l3.1-9.5h13.8l3,9.5h3.3
			l-11.5-34.6h-3.3L87.8,52.9z M50.7,52.9h2.9V21.1h0.1L64,52.9h2.3l10.2-31.7h0.1v31.7h2.9V18.3h-4.7l-9.6,30h-0.1l-9.6-30h-4.7
			V52.9z"/>
		<path class="st5" d="M181.5,76.4c0,0.5,0.4,0.9,0.9,0.9s0.9-0.4,0.9-0.9s-0.4-0.9-0.9-0.9S181.5,75.9,181.5,76.4 M172.9,70.4
			c-0.5-0.2-1.2-0.3-1.9-0.3c-1.6,0-3,0.9-3,2.7c0,1.4,0.4,2,2.3,3.2c1.4,0.9,1.6,1.3,1.6,2.2c0,0.9-0.7,1.7-1.9,1.7
			c-0.6,0-1.4-0.3-2-0.7v1.4c0.6,0.3,1.4,0.5,2.2,0.5c2,0,3.1-1.3,3.1-3c0-1.2-0.5-2.1-2.2-3.1c-1.5-0.9-1.8-1.3-1.8-2
			c0-0.9,0.7-1.6,1.7-1.6c0.7,0,1.3,0.2,1.8,0.5V70.4z M160,80.7h5.1v-1.2h-3.8v-3.8h3.4v-1.2h-3.4v-3.4h3.6v-1.2H160V80.7z
			 M150.9,71.3h0.8c2.6,0,3.6,1.8,3.6,4c0,2.7-1.2,4.3-3.6,4.3h-0.8V71.3z M149.6,80.7h1.7c4,0,5.4-2.4,5.4-5.5c0-2.4-1-3.7-2-4.4
			c-0.6-0.4-1.4-0.8-2.8-0.8h-2.3V80.7z M138.9,80.7h1.3V72h0l4,8.7h1.7V70.1h-1.3v8.8h0l-4-8.8h-1.7V80.7z M129,75.5
			c0-3.3,1.2-4.4,2.6-4.4c1.8,0,2.5,2.1,2.5,4.2c0,3.3-1.2,4.4-2.6,4.4C129.7,79.7,129,77.7,129,75.5 M127.6,75.5
			c0,3.3,1.5,5.3,3.9,5.3c2.5,0,4-1.9,4-5.5c0-3.3-1.5-5.3-3.9-5.3C129.1,70,127.6,71.9,127.6,75.5 M124.7,79.2
			c-0.5,0.3-1.2,0.5-1.9,0.5c-2.3,0-3.4-1.8-3.4-4.5c0-2.6,1.6-4,3.3-4c0.7,0,1.4,0.2,2,0.5v-1.3c-0.5-0.2-1.2-0.4-2-0.4
			c-2.8,0-4.7,2.1-4.7,5.4c0,2.9,1.4,5.4,4.8,5.4c0.6,0,1.3-0.1,1.9-0.3V79.2z M109.3,70.4c-0.5-0.2-1.2-0.3-1.9-0.3
			c-1.6,0-3,0.9-3,2.7c0,1.4,0.4,2,2.3,3.2c1.4,0.9,1.6,1.3,1.6,2.2c0,0.9-0.7,1.7-1.9,1.7c-0.6,0-1.4-0.3-2-0.7v1.4
			c0.6,0.3,1.4,0.5,2.2,0.5c2,0,3.1-1.3,3.1-3c0-1.2-0.5-2.1-2.2-3.1c-1.5-0.9-1.8-1.3-1.8-2c0-0.9,0.7-1.6,1.7-1.6
			c0.7,0,1.3,0.2,1.8,0.5V70.4z M96.2,76.8l1.7-5.3h0l1.6,5.3H96.2z M97.2,70.1l-3.6,10.6H95l0.9-2.8h4l0.9,2.8h1.4l-3.5-10.6H97.2z
			 M87,80.7h4.8v-1.2h-3.5v-9.5H87V80.7z M76.7,76.4c0,0.5,0.4,0.9,0.9,0.9c0.5,0,0.9-0.4,0.9-0.9s-0.4-0.9-0.9-0.9
			C77.1,75.4,76.7,75.9,76.7,76.4"/>
	</g>
	<line class="st3" x1="70.5" y1="76.3" x2="51" y2="76.3"/>
	<line class="st3" x1="210.2" y1="76.3" x2="190.7" y2="76.3"/>
</g>
</svg>
