<?xml version="1.0" encoding="utf-8"?>
<!-- Generator: Adobe Illustrator 22.0.1, SVG Export Plug-In . SVG Version: 6.00 Build 0)  -->
<svg version="1.1" id="Capa_1" xmlns="http://www.w3.org/2000/svg" xmlns:xlink="http://www.w3.org/1999/xlink" x="0px" y="0px"
	 viewBox="0 0 221 84" style="enable-background:new 0 0 221 84;" xml:space="preserve">
<style type="text/css">
	.st0{clip-path:url(#SVGID_2_);fill:#FFFFFF;}
	.st1{clip-path:url(#SVGID_2_);fill:none;stroke:#E66728;stroke-width:1.763;stroke-linecap:round;stroke-linejoin:round;}
</style>
<g>
	<defs>
		<rect id="SVGID_1_" x="61.3" y="0.7" width="98.3" height="82.5"/>
	</defs>
	<clipPath id="SVGID_2_">
		<use xlink:href="#SVGID_1_"  style="overflow:visible;"/>
	</clipPath>
	<path class="st0" d="M147.4,35L147.4,35c-0.2-0.1-0.2-0.3,0-0.5c0.1-0.1,0.3-0.2,0.4-0.2c0.1,0,0.3,0,0.6-0.1
		c0-0.1,0.2-0.2,0.6-0.2c0.1,0.2,0.2,0.3,0.3,0.4c0.1,0.1,0.1,0.2,0.1,0.5c-0.2,0.2-0.4,0.3-0.7,0.4c-0.3,0-0.5,0.1-0.7,0.1
		C147.7,35.4,147.5,35.3,147.4,35 M140.3,45.7c0.4-1.1,0.9-2.2,1.5-3.3c0.6-1.1,1.2-2.1,1.7-2.9c0.6-0.9,1-1.5,1.3-1.9
		c0.1-0.1,0.2-0.2,0.4-0.3c0.2-0.1,0.4-0.2,0.5-0.3c0.6,0.1,1.3,0.1,2.1,0c0.8-0.1,1.3-0.2,1.5-0.4c-0.3,1.9-0.9,3.6-1.8,5.1
		c-0.9,1.5-1.8,2.8-2.7,3.8c-0.9,1-1.8,1.8-2.5,2.2c-0.7,0.5-1.2,0.6-1.3,0.4c-0.2,0-0.3,0-0.4,0.1v0.1c-0.2,0-0.5,0.1-0.7,0.2
		C139.7,47.8,139.9,46.9,140.3,45.7 M139.6,50.1c0.2,0,0.3-0.2,0.5-0.4c0.1,0,0.3,0,0.5,0c0.2,0,0.3-0.1,0.4-0.2
		c0.8-0.1,1.9-0.8,3.2-2c1.4-1.2,2.1-2,2.1-2.4c0.1-0.1,0.2-0.2,0.3-0.2v-0.1c0.1-0.1,0.3-0.2,0.4-0.2v-0.2c0,0-0.1,0-0.1-0.1
		c0,0-0.1-0.1-0.1-0.1h0.1h0.1V44c0.1-0.1,0.2-0.2,0.3-0.2c0.6-0.9,1.2-1.9,1.6-3c0.4-1.1,0.8-2.2,1.2-3l-0.1-0.1
		c0.1-0.2,0.2-0.5,0.3-0.8c0.1-0.3,0.2-0.6,0.4-0.8c1.2-0.2,2.3-0.8,3.1-1.6c0.8-0.8,2.3-1.2,4.4-1.2c0.1,0.5,0.4,0.6,0.8,0.3
		c0.3-0.1,0.5-0.2,0.6-0.3c0.1-0.1,0-0.2-0.2-0.5c-0.3-0.2-0.7-0.4-1.1-0.4c-0.4,0-0.7,0-0.9,0l-0.2,0.2c-0.6,0.1-1.3,0.3-2,0.6
		c-0.7,0.2-1.3,0.5-2,0.7c-0.5,0.2-1,0.3-1.4,0.4c-0.4,0.1-0.8,0.2-1.2,0.2c0-0.3-0.1-0.7-0.3-1c-0.2-0.4-0.4-0.6-0.7-0.7
		c-0.8,0-1.7,0.1-2.7,0.3c-1,0.2-1.7,0.7-2,1.5c-0.2,0.5-0.4,0.8-0.5,0.8c-0.1,0-0.1,0.4,0,1.1c-0.2,0.2-0.4,0.5-0.6,0.8
		c-0.2,0.4-0.4,0.6-0.5,0.6c0,0.1,0.1,0.3,0.1,0.4h-0.1h-0.1c-0.2,0.7-0.7,1.7-1.6,2.9c-0.9,1.2-1.5,2.3-1.9,3.3
		c-0.3,0.8-0.6,1.4-0.7,1.9c-0.1,0.5-0.3,1.1-0.4,1.7c-0.1,1.1,0,1.8,0.5,2.1C139.3,50.2,139.5,50.1,139.6,50.1 M122,38.1
		c0,0,0.1,0.1,0.1,0.1c-0.2,0-0.3-0.1-0.3-0.2c-0.1-0.1,0-0.2,0.2-0.1C122,38,122,38.1,122,38.1 M125.9,37.5h0.2h0.2
		c0,0,0.1,0.1,0.1,0.2h-0.2H126C126,37.6,125.9,37.5,125.9,37.5 M120.5,44.1h0.1v0.2h-0.1h-0.1C120.4,44.2,120.4,44.1,120.5,44.1
		 M132.8,37.5h0.1h0.2c0,0.1,0.1,0.1,0.1,0.2h-0.3C132.9,37.6,132.9,37.5,132.8,37.5 M117.9,49.4c0,0,0.4-0.7,1.4-2.2
		c0.4-0.6,1.1-1.6,2-2.8c0.9-1.2,1.9-2.5,2.9-3.8c1-1.3,2-2.4,3-3.4c1-1,1.7-1.6,2.3-1.7c0,0.6-0.5,1.6-1.2,3.1
		c-0.8,1.5-1.4,2.6-1.7,3.2v0.4c-0.6,1.2-1.2,2.1-1.6,2.9c-0.5,0.8-0.9,1.7-1.4,2.7c-0.5,0.7-0.5,1.3,0,1.6c0.6,0.3,1,0.3,1.3,0
		c0.5-1,1-1.8,1.5-2.6c0.5-0.8,1.1-1.6,1.8-2.5c0.4-0.5,0.9-1.2,1.7-2.1c0.7-1,1.5-1.9,2.3-2.9c0.8-1,1.6-1.8,2.4-2.6
		c0.8-0.7,1.4-1.2,1.9-1.2c0,0.6-0.5,1.6-1.2,3.1c-0.8,1.5-1.4,2.6-1.7,3.2c-0.2,0.3-0.4,0.9-0.8,1.7c-0.4,0.8-0.7,1.4-0.9,2h-0.1
		v0.2c0,0-0.1,0-0.1,0c0,0-0.1,0-0.1,0c0,0.2,0,0.3-0.1,0.4v0.3v0.2c-0.2,0.2-0.3,0.3-0.2,0.3c0.1,0,0.1,0.2-0.1,0.4
		c0,0,0,0.1,0.1,0.2c-0.2,0.7,0,1.4,0.6,1.9c0.4,0.2,1.2,0,2.3-0.4c1.1-0.4,1.8-0.8,1.9-1.2l1.3-0.7c-0.1,0-0.2,0-0.3,0.1
		c-0.1,0.1-0.1,0.1-0.2,0.1c-0.2,0-0.2-0.1,0.2-0.2c0.3-0.1,0.5-0.1,0.7-0.1c0-0.3,0.1-0.5,0.4-0.6c-0.1,0-0.3,0.1-0.6,0.4
		c0-0.1-0.1-0.1-0.1-0.2c0.1,0,0.3-0.2,0.7-0.4c0-0.1,0-0.2,0-0.2h0.3l0.1-0.2c0,0,0.1,0,0.2-0.1c0-0.1,0-0.2,0.1-0.3
		c0.1,0,0.2,0,0.3-0.1c-0.3-0.2-1,0.2-2.1,1.1c-1.1,0.9-2.1,1.4-3,1.6c-0.5,0.1-0.8,0.1-0.9,0c-0.1-0.1-0.2-0.2-0.2-0.2
		c0,0,0-0.2-0.1-0.4c-0.2-0.3-0.1-1,0.3-2.2c0.4-1.1,1-2.4,1.7-3.9c0.7-1.4,1.4-2.8,2.1-4.2c0.7-1.4,1.3-2.5,1.6-3.3
		c0.1-0.2,0-0.5-0.3-0.9c-0.4-0.4-1-0.4-1.7-0.1c0,0-0.2,0.2-0.6,0.6c-0.4,0.4-0.7,0.8-1.2,1.3c-0.4,0.5-0.9,1-1.2,1.4
		c-0.4,0.4-0.6,0.7-0.7,0.7V37v0.1h0.2c0,0.1-0.1,0.2-0.1,0.2c-0.1,0-0.2-0.1-0.4-0.1c-1,1.1-2,2.3-3,3.5c-1,1.2-2,2.4-2.9,3.6
		c0.6-1.5,1.4-3.1,2.4-4.9c1-1.8,1.8-3.7,2.6-5.7c0.1-0.2,0-0.6-0.3-0.9c-0.4-0.4-0.8-0.5-1.1-0.3c-0.3,0.2-0.5,0.3-0.6,0.3
		c-0.2,0-0.8,0.6-1.7,1.7c-0.9,1.1-1.9,2.3-2.9,3.7c-1,1.3-2,2.6-2.8,3.7c-0.9,1.2-1.3,1.8-1.3,1.8c0,0.1-0.1,0.2,0,0.2
		c0,0-0.1,0.1-0.2,0.1c0.5-2.2,1.2-4.2,2.1-6c0.9-1.7,1.6-3.4,1.9-4.9c0-0.3-0.2-0.5-0.6-0.5c-0.4-0.1-0.7,0.1-0.9,0.4
		c0,0.5-0.2,1-0.7,1.5c-0.7,1-1.6,1.8-2.8,2.5c-1.2,0.7-2.1,1-2.9,1c-1-0.2-1.6,0.1-1.6,1.1c0,0.2,0.1,0.3,0.2,0.4
		c0.1,0,0.3,0.1,0.5,0.1c0.5,0.1,1.1,0,1.8-0.3c0.7-0.3,1.3-0.7,1.9-1.1c0.6-0.4,1.1-0.8,1.6-1.2c0.4-0.4,0.7-0.6,0.8-0.6
		c-0.4,1.9-1,3.6-1.7,5.1c-0.8,1.5-1.5,2.8-2.2,3.9c-0.7,1.1-1.2,2-1.5,2.6c-0.3,0.7-0.2,1.1,0.5,1.4H117.9z M108.6,35L108.6,35
		c-0.2-0.1-0.2-0.3,0-0.5c0.1-0.1,0.3-0.2,0.4-0.2c0.1,0,0.3,0,0.6-0.1c0-0.1,0.2-0.2,0.6-0.2c0.1,0.2,0.2,0.3,0.3,0.4
		c0.1,0.1,0.1,0.2,0.1,0.5c-0.2,0.2-0.4,0.3-0.7,0.4c-0.3,0-0.5,0.1-0.7,0.1C109,35.4,108.8,35.3,108.6,35 M101.5,45.7
		c0.4-1.1,0.9-2.2,1.5-3.3c0.6-1.1,1.2-2.1,1.7-2.9c0.6-0.9,1-1.5,1.3-1.9c0.1-0.1,0.2-0.2,0.4-0.3c0.2-0.1,0.4-0.2,0.5-0.3
		c0.6,0.1,1.3,0.1,2.1,0c0.8-0.1,1.3-0.2,1.5-0.4c-0.3,1.9-0.9,3.6-1.8,5.1c-0.9,1.5-1.8,2.8-2.7,3.8c-0.9,1-1.8,1.8-2.5,2.2
		c-0.7,0.5-1.2,0.6-1.3,0.4c-0.2,0-0.3,0-0.4,0.1v0.1c-0.2,0-0.5,0.1-0.7,0.2C101,47.8,101.1,46.9,101.5,45.7 M100.9,50.1
		c0.2,0,0.3-0.2,0.5-0.4c0.1,0,0.3,0,0.5,0c0.2,0,0.3-0.1,0.4-0.2c0.8-0.1,1.9-0.8,3.2-2c1.4-1.2,2.1-2,2.1-2.4
		c0.1-0.1,0.2-0.2,0.3-0.2v-0.1c0.1-0.1,0.3-0.2,0.4-0.2v-0.2c0,0-0.1,0-0.1-0.1c0,0-0.1-0.1-0.1-0.1h0.1h0.1V44
		c0.1-0.1,0.2-0.2,0.3-0.2c0.6-0.9,1.2-1.9,1.6-3c0.4-1.1,0.8-2.2,1.2-3l-0.1-0.1c0.1-0.2,0.2-0.5,0.3-0.8c0.1-0.3,0.2-0.6,0.4-0.8
		c1.2-0.2,2.3-0.8,3.1-1.6c0.8-0.8,2.3-1.2,4.4-1.2c0.1,0.5,0.4,0.6,0.8,0.3c0.3-0.1,0.5-0.2,0.6-0.3c0.1-0.1,0-0.2-0.2-0.5
		c-0.3-0.2-0.7-0.4-1.1-0.4c-0.4,0-0.7,0-0.9,0l-0.2,0.2c-0.6,0.1-1.3,0.3-2,0.6c-0.7,0.2-1.3,0.5-2,0.7c-0.5,0.2-1,0.3-1.4,0.4
		c-0.4,0.1-0.8,0.2-1.2,0.2c0-0.3-0.1-0.7-0.3-1c-0.2-0.4-0.4-0.6-0.7-0.7c-0.8,0-1.7,0.1-2.7,0.3c-1,0.2-1.7,0.7-2,1.5
		c-0.2,0.5-0.4,0.8-0.5,0.8c-0.1,0-0.1,0.4,0,1.1c-0.2,0.2-0.4,0.5-0.6,0.8c-0.2,0.4-0.4,0.6-0.5,0.6c0,0.1,0.1,0.3,0.1,0.4h-0.1
		h-0.1c-0.2,0.7-0.7,1.7-1.6,2.9c-0.9,1.2-1.5,2.3-1.9,3.3c-0.3,0.8-0.6,1.4-0.7,1.9c-0.1,0.5-0.3,1.1-0.4,1.7
		c-0.1,1.1,0,1.8,0.5,2.1C100.5,50.2,100.7,50.1,100.9,50.1 M90.5,38c-0.2,0-0.3-0.1-0.3-0.2h0.2C90.3,37.9,90.4,38,90.5,38
		 M93.9,37.3h0.4v0.1h-0.2C94,37.4,93.9,37.3,93.9,37.3 M88.9,43.5H89v0.2h-0.2C88.8,43.6,88.9,43.5,88.9,43.5 M89.6,39.6
		c-0.1,0-0.2,0-0.2,0.1c0-0.1,0.1-0.2,0.2-0.4c0,0,0.1-0.1,0.2-0.1C89.7,39.4,89.7,39.5,89.6,39.6 M86.2,49.3
		c0.2-0.4,0.4-0.8,0.7-1.3c0.3-0.5,0.7-1,1-1.6c0.3-0.4,0.6-0.8,0.9-1.3c0.3-0.4,0.7-0.9,1-1.4c0.7-1,1.5-2,2.2-3
		c0.7-1,1.4-1.8,1.9-2.3c0.2-0.3,0.7-0.8,1.4-1.5c0.7-0.7,1.3-1.2,1.8-1.4c0,0,0.1-0.1,0.3-0.1c0,0.1-0.2,0.5-0.4,1.2
		c-0.5,0.6-0.5,1,0.1,1.3c0.2,0.2,0.5,0.1,0.8-0.3c0.3-0.4,0.4-0.7,0.2-1c0.1-0.1,0.2-0.4,0.3-0.8c0.1-0.3,0.3-0.7,0.4-1
		c0.2-0.3,0.3-0.7,0.5-1v-0.3c0-0.2-0.1-0.4-0.3-0.5c-0.3-0.3-0.6-0.5-0.9-0.5c-0.1,0.1-0.3,0.1-0.4,0.2c-0.2,0-0.3,0.1-0.4,0.2
		c-0.7,0.7-1.2,1.4-1.6,1.8c-0.4,0.5-0.8,0.9-1.2,1.3c-0.4,0.4-0.6,0.6-0.6,0.7V37h0.1c0,0-0.1,0-0.1,0.1c-0.1,0-0.2-0.1-0.4-0.1
		c-0.9,1-1.5,1.7-2,2.2c-0.4,0.5-1.3,1.8-2.6,3.8v0.2c0,0,0,0.1-0.1,0.1H89c0.5-2.1,1.1-4,2-5.6c0.9-1.6,1.5-3.1,1.9-4.5
		c0-0.3-0.2-0.5-0.6-0.6c-0.4-0.1-0.7,0-0.8,0.3c-0.1,0.7-0.4,1.4-0.9,1.9c-0.7,0.6-1.6,0.9-2.6,0.9c-0.9-0.2-1.4,0.1-1.4,1.1
		c0,0.2,0.2,0.3,0.6,0.4c1.1,0,2-0.3,2.7-0.8l0.4-0.3c-0.2,1.2-0.6,2.5-1.4,4l0.2-0.1c0,0.1,0,0.2-0.1,0.3h-0.1v0.1
		c0,0.2-0.1,0.3-0.2,0.4c-0.1,0.2-0.2,0.4-0.3,0.6c0.1,0,0.2-0.1,0.4-0.2c0,0.2-0.1,0.4-0.3,0.6c-0.1,0.1-0.3,0.3-0.4,0.4H88
		c-0.3,0.6-0.5,1-0.7,1.3c0,0.2,0,0.3-0.1,0.4H87l-0.4,0.8l0.1-0.1c0,0.1-0.1,0.2-0.1,0.3h-0.1l-0.1,0.1c0,0.1,0,0.2-0.1,0.4h-0.1
		l-0.3,0.6c0,0,0.2-0.1,0.4-0.2c-0.1,0.2-0.2,0.4-0.4,0.6c-0.2,0.1-0.3,0.3-0.3,0.4h-0.2l-0.4,0.8c-0.1,0.1-0.2,0.4-0.3,0.9
		c0,0.4,0.2,0.7,0.6,0.7C85.4,49.5,85.8,49.5,86.2,49.3 M68.9,29.2c0-0.1-0.1-0.1-0.1-0.2h0.2c0,0,0,0.1,0.1,0.2H69H68.9z
		 M68.6,29.7v-0.2c0.2,0,0.4,0,0.5,0.1C68.9,29.7,68.7,29.7,68.6,29.7 M67.5,31.6c0,0,0.1-0.1,0.2-0.1c0.1-0.1,0.2-0.4,0.5-0.7
		c-0.5,0.3-0.8,0.6-0.9,0.8C67.4,31.7,67.4,31.6,67.5,31.6 M66.8,32.6h0.3c0-0.2,0.1-0.3,0.2-0.3c0-0.1-0.1-0.2-0.1-0.2
		c0,0,0.1,0,0.2-0.1v-0.1h-0.2c-0.1,0.1-0.2,0.3-0.3,0.4c-0.1,0.1-0.2,0.2-0.3,0.2C66.8,32.5,66.8,32.6,66.8,32.6 M66.3,33.5h0.2
		c0,0-0.1-0.1-0.1-0.2c-0.1,0-0.2,0-0.2,0.1v0.1H66.3z M66.1,34.3c0-0.2,0.1-0.4,0.2-0.6c-0.3,0-0.4,0.1-0.4,0.3
		c0,0.2-0.1,0.2-0.4,0.2c0,0.1,0,0.1,0.1,0.1C65.8,34.5,65.9,34.4,66.1,34.3 M65.4,35.1h0.2c0,0,0-0.1,0.1-0.2
		c0-0.1,0.1-0.2,0.1-0.3c-0.1,0-0.2,0.1-0.5,0.3v0.2H65.4z M64.8,35.1h0.3c0-0.1-0.1-0.1-0.2-0.2c0.1-0.2,0.2-0.4,0.4-0.6
		c0.1-0.2,0.2-0.4,0.2-0.7c0.1-0.1,0.2-0.2,0.4-0.2v-0.2l0.2-0.2c0.1-0.1,0.1-0.3,0-0.4c0.1-0.2,0.2-0.3,0.2-0.4
		c0.2-0.1,0.5-0.3,0.7-0.6c0,0-0.1-0.1-0.1-0.2c0-0.2,0.1-0.3,0.3-0.4c0.2-0.1,0.4-0.4,0.4-0.7c0.2,0,0.4-0.1,0.5-0.2
		c0.1-0.1,0.3-0.2,0.5-0.2c-0.1,0.2-0.2,0.4-0.4,0.6v0.2c0,0,0.1,0.1,0.2,0.1c0.1-0.1,0.1-0.2,0.2-0.3c0-0.1,0.2-0.2,0.4-0.3
		c0.1-0.2,0.2-0.4,0.4-0.5c-0.1,0-0.1,0-0.1-0.1c0,0,0.1,0,0.2-0.1c0.1-0.1,0.1-0.1,0.2-0.2c0-0.2,0.1-0.4,0.2-0.4
		c0.1,0,0.2-0.1,0.2-0.3c0,0,0.1-0.1,0.3-0.1v-0.2c-0.2,0.1-0.4,0.2-0.6,0.3c-0.1,0.1-0.2,0.2-0.4,0.3h-0.1c0-0.1,0-0.2,0.1-0.3
		c0-0.1,0.1-0.2,0.2-0.4c0.9,0,1.4-0.3,1.6-0.8c0.1-0.5,0.7-0.9,1.6-1.3c-0.1-0.5,0.1-1,0.8-1.5c0.6-0.5,1.4-0.9,2.3-1.3
		c0.9-0.4,1.8-0.6,2.7-0.7c0.9-0.1,1.5,0,1.8,0.3V23v0.1c0.1,0,0.3,0.1,0.6,0.4c-0.1,0.2-0.2,0.4-0.2,0.6c0,0,0.1,0.1,0.2,0.1
		c-0.1,0.1-0.2,0.2-0.3,0.4c-0.1,0.1-0.1,0.2,0,0.2c-0.2,0.3-0.5,0.7-1,1.1c-0.5,0.4-0.7,0.7-0.7,1c0,0.1,0.1,0.1,0.1,0.1
		c0,0.7,0.1,1.1,0.2,1.2c0.1,0.1,0.1,0.1,0.2,0c0-0.1,0-0.1,0-0.1c0,0-0.1,0.2-0.2,0.7c0.3,0.2,0.7,0.5,1.2,0.6l-0.2,0.2
		c0.1,0,0.4,0,0.9-0.2c0.5-0.2,0.8-0.3,0.8-0.4c0.1,0,0.2-0.1,0.4-0.3c0.1-0.2,0.2-0.4,0.2-0.6c0.1,0,0.2-0.1,0.2-0.1
		c0-0.1,0-0.2-0.1-0.2c0.6-0.9,1.1-1.8,1.5-2.6c0.4-0.8,0.5-2,0.5-3.4c-0.1,0-0.2,0-0.3,0c-0.1,0-0.2-0.1-0.2-0.1l0.1-0.2
		c-0.2,0-0.3,0-0.4,0.1c-0.2,0-0.3,0-0.5-0.1c-0.2-0.1-0.3-0.1-0.5-0.2c0,0,0,0.1-0.1,0.1h-0.2c0,0.2,0,0.3,0.1,0.3l-0.1,0.1
		c0,0.1,0,0.3,0,0.6c-0.3,0-0.5-0.1-0.7-0.3c-0.2-0.2-0.4-0.3-0.6-0.3c-1.3-0.4-2.6-0.3-4,0.2c-1.4,0.5-2.6,1.1-3.8,1.8
		c-1.1,0.7-2,1.5-2.6,2.2c-0.6,0.7-0.8,1-0.5,0.9c0,0,0.1,0.1,0.2,0.2c-0.2,0-0.4,0.1-0.7,0.3c-0.2,0.1-0.4,0.3-0.4,0.5
		c0,0.1,0.1,0.2,0.2,0.2c-0.1,0-0.2,0.1-0.5,0.1c0,0.2-0.1,0.4-0.5,0.8c-0.4,0.4-0.7,0.6-0.9,0.8c0,0.1,0,0.2-0.2,0.3
		c-0.2,0.1-0.2,0.3-0.2,0.4c-0.2,0.1-0.4,0.4-0.7,0.8C66.2,31.6,66,31.9,66,32c-0.2,0-0.5,0.3-0.7,0.7c-0.2,0.5-0.4,0.8-0.6,0.9
		c0.2,0.2,0.3,0.3,0.3,0.4c-0.1,0-0.3,0.1-0.7,0.2l0.1,0.1c-0.1,0-0.2,0.1-0.2,0.2c0.1,0,0.1,0,0.2,0.1c0,0.1,0.1,0.2,0.2,0.3
		C64.7,35,64.7,35.1,64.8,35.1 M64.2,35.3c-0.2,0-0.3,0-0.3,0.1c0,0-0.1,0-0.1,0.1C63.9,35.4,64.1,35.4,64.2,35.3 M65,36.2
		c0.2-0.2,0.3-0.4,0.2-0.7c0.1,0,0.2,0,0.2-0.1v-0.1c-0.2,0-0.5,0-0.6,0.1c0,0,0,0.1,0,0.1c0,0,0,0.1,0,0.1c0,0-0.1,0-0.2,0.1
		l-0.3,0.7C64.6,36.5,64.8,36.4,65,36.2 M63,40.3c0-0.1,0.1-0.2,0.1-0.3h-0.2v-0.1H63v-0.1v-0.1l0.4,0.1c-0.1,0.2-0.2,0.3-0.2,0.3
		c0,0,0.1,0.1,0.2,0.1v0.2c-0.1,0-0.2,0-0.2,0.1c0,0,0.1,0.1,0.2,0.1c-0.1,0-0.2,0.1-0.2,0.2C63,40.5,62.9,40.4,63,40.3 M62.6,41.5
		c0-0.3,0-0.6,0-0.8h0.2H63l0.2,1C63.1,41.8,63,41.9,63,42c0,0.1-0.1,0.2-0.2,0.3c-0.1,0-0.2,0-0.2,0.1
		C62.6,42.1,62.6,41.8,62.6,41.5 M74.3,48.8c2-1.1,3.6-2.2,4.7-3.3c0-0.1,0.1-0.3,0.3-0.6c0.2-0.3,0.4-0.4,0.4-0.4
		c0-0.1,0-0.3,0.1-0.7c0.4,0,0.6-0.3,0.7-0.7c0-0.4-0.2-0.4-0.7,0.1c-0.1,0.1-0.1,0.3-0.2,0.4c0,0.2-0.2,0.4-0.6,0.8
		c-0.9,0.9-2.1,1.7-3.6,2.6c-1.6,0.9-2.9,1.5-3.9,2c-2.5,1-4.5,0.9-6.1-0.3c-1.6-1.2-2.3-2.7-2.1-4.6h0.2c0-0.4-0.1-0.7-0.2-0.9
		l0.1-0.1c0-0.2,0-0.4,0.1-0.5c0-0.1,0.1-0.3,0.1-0.6l0.2-0.2c-0.1-0.1-0.1-0.4,0-0.9c0.1-0.5,0.2-0.9,0.2-1.2h0.1
		c0-0.1,0-0.2,0-0.2c0-0.1,0-0.2,0-0.3h0.1C64,39.1,64,39,64,38.9c-0.1,0-0.1-0.1-0.1-0.1c0.2-0.2,0.3-0.6,0.3-1.1l0.2-0.1
		c0-0.2,0.1-0.5,0.2-0.7c-0.1-0.1-0.1-0.3,0.1-0.4h-0.3c0,0.1-0.1,0.3-0.2,0.5c-0.1,0.2-0.2,0.3-0.2,0.3c0,0,0.1,0.1,0.1,0.2
		c-0.2,0.2-0.3,0.4-0.4,0.7c-0.1,0.3-0.1,0.5-0.2,0.8c0,0-0.1,0.1-0.2,0.1c0,0-0.1-0.1-0.2-0.1c0.1-0.1,0.1-0.2,0.1-0.2
		c0-0.1,0-0.1,0.1-0.2c0,0-0.1,0-0.1-0.1c0-0.1,0.1-0.1,0.2-0.1c-0.1-0.3-0.1-0.5,0.1-0.7c0.1-0.2,0.2-0.5,0.3-0.8
		c0.1,0,0.1,0,0.2,0c0,0,0.1,0,0.2,0c-0.1,0-0.2,0-0.2-0.1c0-0.1-0.1-0.1-0.2-0.2c0.1-0.1,0.2-0.4,0.2-0.8c0-0.1-0.2-0.1-0.6-0.2
		c0,0.2,0.1,0.3,0.2,0.3c-0.2,0.2-0.5,0.7-0.9,1.2c-0.3,0.6-0.5,1.1-0.5,1.4c0.1,0,0.2,0.1,0.2,0.1c-0.1,0.2-0.3,0.6-0.5,0.9
		c-0.2,0.4-0.3,0.7-0.3,0.9c0.1,0,0.2,0,0.2,0.1c0,0-0.1,0.1-0.1,0.2c-0.2,0-0.3,0-0.3,0.1l-0.1,0.7c0.1,0.1,0.2,0.1,0.2,0.2
		c0,0-0.1,0.1-0.3,0.2c0,0.1,0,0.1,0.1,0.2c-0.1,0.2-0.1,0.6-0.1,1c0,0.4,0,0.7,0.1,1c0.2,0.1,0.2,0.4,0.1,0.7
		c-0.1,0.3,0,0.6,0.2,0.7c-0.2,0-0.3,0.1-0.3,0.2c0,0,0.1,0,0.3,0.1c0,0.3-0.1,0.5-0.1,0.6c0.3,1.4,0.8,2.5,1.5,3.1
		c0.7,0.7,1.5,1.1,2.3,1.4c0.8,0.2,1.6,0.3,2.4,0.3c0.8-0.1,1.4-0.1,1.9-0.2C70.8,50.6,72.3,49.9,74.3,48.8"/>
	<polyline class="st1" points="61.8,14.3 61.8,1.1 158,1.1 158,14.3 	"/>
	<polyline class="st1" points="61.8,68.9 61.8,82.7 158,82.7 158,68.5 	"/>
	<path class="st0" d="M134.9,69.6l1.4-4.4h0l1.4,4.4H134.9z M135.8,64.1l-3,8.8h1.1l0.7-2.3h3.4l0.7,2.3h1.2l-2.9-8.8H135.8z
		 M125.9,72.9h1.1v-7.2h0l3.3,7.2h1.4v-8.8h-1.1v7.3h0l-3.3-7.3h-1.4V72.9z M120.5,65h0.9c1,0,1.6,0.5,1.6,1.5
		c0,0.8-0.5,1.6-1.6,1.6h-0.9V65z M119.3,72.9h1.1v-4h0.5c0.8,0,1.2,0.3,1.4,1l1,3h1.2l-1.2-3.5c-0.2-0.5-0.4-0.8-1-0.9v0
		c1.3-0.3,1.7-1.2,1.7-2.1c0-0.6-0.2-1.3-0.7-1.7c-0.4-0.4-0.9-0.6-1.9-0.6h-2.3V72.9z M113.5,72.9h4.3v-1h-3.2v-3.1h2.9v-1h-2.9V65
		h3v-1h-4.1V72.9z M109.1,72.9h1.1V65h2v-1h-5.2v1h2V72.9z M105.9,64.3c-0.4-0.2-1-0.3-1.6-0.3c-1.3,0-2.5,0.8-2.5,2.2
		c0,1.1,0.4,1.7,2,2.6c1.2,0.7,1.4,1.1,1.4,1.8c0,0.7-0.6,1.4-1.6,1.4c-0.5,0-1.2-0.3-1.7-0.6v1.2c0.5,0.2,1.1,0.4,1.9,0.4
		c1.7,0,2.6-1.1,2.6-2.5c0-1-0.5-1.8-1.8-2.6c-1.3-0.7-1.5-1.1-1.5-1.7c0-0.7,0.5-1.3,1.4-1.3c0.5,0,1.1,0.2,1.5,0.4V64.3z
		 M99.2,72.9h1.1v-8.8h-1.1V72.9z M97.6,71.6c-0.5,0.3-1,0.4-1.6,0.4c-1.9,0-2.8-1.5-2.8-3.8c0-2.2,1.3-3.3,2.8-3.3
		c0.6,0,1.2,0.1,1.7,0.4v-1.1c-0.4-0.2-1-0.3-1.7-0.3c-2.3,0-3.9,1.7-3.9,4.5c0,2.4,1.2,4.5,4,4.5c0.5,0,1.1-0.1,1.6-0.3V71.6z
		 M83.3,69.6l1.4-4.4h0l1.4,4.4H83.3z M84.1,64.1l-3,8.8h1.1l0.7-2.3h3.4l0.7,2.3h1.2l-2.9-8.8H84.1z M76.9,72.9h4v-1H78v-7.9h-1.1
		V72.9z"/>
</g>
</svg>
