<?xml version="1.0" encoding="utf-8"?>
<!-- Generator: Adobe Illustrator 22.0.1, SVG Export Plug-In . SVG Version: 6.00 Build 0)  -->
<svg version="1.1" id="Capa_1" xmlns="http://www.w3.org/2000/svg" xmlns:xlink="http://www.w3.org/1999/xlink" x="0px" y="0px"
	 viewBox="0 0 300 114" style="enable-background:new 0 0 300 114;" xml:space="preserve">
<style type="text/css">
	.st0{clip-path:url(#SVGID_2_);fill:#FFFFFF;}
	.st1{clip-path:url(#SVGID_2_);fill:none;stroke:#E66728;stroke-width:2;stroke-linecap:round;stroke-linejoin:round;}
	.st2{clip-path:url(#SVGID_4_);fill:#FFFFFF;}
	.st3{clip-path:url(#SVGID_4_);fill:none;stroke:#E66728;stroke-width:2;stroke-linecap:round;stroke-linejoin:round;}
	.st4{clip-path:url(#SVGID_6_);fill:#FFFFFF;}
	.st5{clip-path:url(#SVGID_6_);fill:none;stroke:#E66728;stroke-width:2;stroke-linecap:round;stroke-linejoin:round;}
	.st6{clip-path:url(#SVGID_8_);fill:#FFFFFF;}
	.st7{clip-path:url(#SVGID_8_);fill:none;stroke:#E66728;stroke-width:2;stroke-linecap:round;stroke-linejoin:round;}
	.st8{clip-path:url(#SVGID_10_);fill:#E66728;}
	.st9{clip-path:url(#SVGID_10_);fill:#FFFFFF;}
	.st10{clip-path:url(#SVGID_10_);fill:none;stroke:#E66728;stroke-width:1.5;stroke-linecap:round;stroke-linejoin:round;}
	.st11{clip-path:url(#SVGID_12_);fill:#FFFFFF;}
	.st12{clip-path:url(#SVGID_12_);fill:none;stroke:#E66728;stroke-width:2;stroke-linecap:round;stroke-linejoin:round;}
	.st13{clip-path:url(#SVGID_14_);fill:#FFFFFF;}
	.st14{clip-path:url(#SVGID_14_);fill:none;stroke:#E66728;stroke-width:2;stroke-linecap:round;stroke-linejoin:round;}
</style>
<g>
	<defs>
		<rect id="SVGID_3_" x="84.4" y="4.3" width="132.6" height="103.9"/>
	</defs>
	<clipPath id="SVGID_2_">
		<use xlink:href="#SVGID_3_"  style="overflow:visible;"/>
	</clipPath>
	<path class="st0" d="M182.6,88.9c0-3.3,1.2-4.5,2.6-4.5c1.8,0,2.5,2.1,2.5,4.3c0,3.3-1.2,4.5-2.6,4.5
		C183.3,93.2,182.6,91.1,182.6,88.9 M181.2,88.9c0,3.3,1.5,5.4,3.9,5.4c2.5,0,4-1.9,4-5.6c0-3.3-1.5-5.4-3.9-5.4
		C182.7,83.3,181.2,85.2,181.2,88.9 M179,83.7c-0.5-0.2-1.2-0.4-1.9-0.4c-1.6,0-3,0.9-3,2.7c0,1.4,0.4,2,2.4,3.2
		c1.4,0.9,1.7,1.4,1.7,2.2c0,0.9-0.7,1.7-1.9,1.7c-0.6,0-1.4-0.3-2-0.7v1.4c0.6,0.3,1.4,0.5,2.2,0.5c2.1,0,3.1-1.3,3.1-3
		c0-1.2-0.6-2.2-2.2-3.1c-1.5-0.9-1.8-1.3-1.8-2c0-0.9,0.7-1.6,1.7-1.6c0.7,0,1.3,0.2,1.8,0.5V83.7z M170.4,82.9h1l1.6-2.2h-1.5
		L170.4,82.9z M170.5,94.2h1.4V83.4h-1.4V94.2z M162.9,90.2l1.7-5.4h0l1.6,5.4H162.9z M163.9,83.4l-3.6,10.7h1.4l0.9-2.8h4.1
		l0.9,2.8h1.4l-3.5-10.7H163.9z M154.4,84.6h1.1c1.2,0,2,0.6,2,1.8c0,0.9-0.6,1.9-2,1.9h-1V84.6z M153.1,94.2h1.4v-4.9h0.6
		c1,0,1.4,0.3,1.7,1.2l1.2,3.6h1.5l-1.5-4.3c-0.2-0.6-0.5-0.9-1.2-1v0c1.6-0.3,2.1-1.4,2.1-2.6c0-0.8-0.2-1.5-0.8-2
		c-0.5-0.5-1.1-0.7-2.3-0.7h-2.8V94.2z M145.5,90.2l1.7-5.4h0l1.6,5.4H145.5z M146.5,83.4l-3.6,10.7h1.4l0.9-2.8h4.1l0.9,2.8h1.4
		L148,83.4H146.5z M138.3,84.6h0.8c1.4,0,2.2,0.6,2.2,2.1c0,1.2-0.6,2-2.2,2h-0.7V84.6z M136.9,94.2h1.4v-4.5h0.9
		c2.3,0,3.5-1.1,3.5-3.2c0-0.9-0.3-1.7-0.8-2.2c-0.6-0.5-1.2-0.8-2.3-0.8h-2.6V94.2z M130.4,94.2h4.9V93h-3.5v-9.6h-1.4V94.2z
		 M122.7,90.2l1.7-5.4h0l1.6,5.4H122.7z M123.8,83.4l-3.6,10.7h1.4l0.9-2.8h4.1l0.9,2.8h1.4l-3.5-10.7H123.8z M115.6,94.2h1.4
		l3.4-10.7h-1.4l-2.6,8.8h0l-2.5-8.8h-1.5L115.6,94.2z"/>
	<path class="st0" d="M198.9,54.4h0.2c0-0.2,0-0.3,0.1-0.4h-0.2v0.2V54.4z M210.5,52c-0.5,1-0.7,1.4-0.7,1.2
		c-0.2,0.2-0.2,0.3-0.2,0.4c0,0.1-0.1,0.1-0.3,0.2V54c-0.3-0.1-0.5-0.1-0.6,0c0,0.2,0,0.3-0.1,0.4c-0.1,0.1-0.1,0.2-0.1,0.3
		c-0.4,0.7-1.1,1.5-1.9,2.5c-0.9,1-1.8,1.9-2.8,2.9c-1,0.9-2,1.8-3,2.5c-1,0.7-1.8,1.2-2.5,1.3c-0.3,0.1-0.6,0.1-1,0.1
		c-0.3-0.1-0.6-0.2-0.7-0.3c0.1-1,0.5-2.4,1.3-4.2c0.8-1.8,1.8-3.7,3-5.5c1.5-2.5,3.2-4.8,5.1-6.8c1.9-2,3.6-2.9,5-2.8
		c0.5,0,1.1,0.3,1.7,0.9c0,0.1,0,0.2,0.1,0.2l0.1,0.1c0,0.4-0.3,0.8-0.9,1.3c-0.6,0.4-0.9,0.9-0.9,1.6c0,0.4,0.3,0.6,0.9,0.6
		C211.5,50.1,211,51.1,210.5,52 M199.1,65.3c1-0.4,2-1.1,3-2c1-0.9,2-1.8,3-2.9c1-1,1.8-2,2.6-2.9c0.3-0.4,0.6-0.9,1-1.5
		c0.3-0.6,0.6-1.1,0.8-1.8c-0.1,0.2-0.1,0.4-0.2,0.7c-0.1,0.2-0.2,0.4-0.2,0.6l-0.4,1.1c-0.1,0.5-0.3,1.1-0.6,1.8
		c-0.3,0.7-0.5,1.4-0.7,2.1h-0.1c0,0.2-0.1,0.4-0.2,0.7v0.1v0.2v0.2c-0.1,0.1-0.2,0.1-0.2,0.2l0.1,0.2v0.4v0.4
		c0.1,0.3,0.1,0.6,0.3,0.9c0.1,0.3,0.3,0.5,0.6,0.7c0.6,0.2,1.2,0.2,1.7,0c0.2,0,0.5-0.1,1-0.4c0.5-0.2,1-0.5,1.5-0.7
		c0.2,0,0.4-0.1,0.7-0.3c0.3-0.2,0.5-0.4,0.5-0.6c0.3-0.2,0.6-0.3,0.7-0.5c0.1,0,0.2-0.1,0.3-0.2c0.2-0.2,0.3-0.3,0.6-0.3
		c-0.2,0-0.3,0-0.4,0.1c-0.1,0.1-0.2,0.1-0.2,0.1c-0.1-0.1-0.1-0.2,0-0.2c0.4-0.3,0.7-0.3,0.9-0.2c0.1-0.4,0.2-0.6,0.6-0.8
		c-0.2,0-0.4,0.2-0.7,0.6c-0.1-0.1-0.1-0.2-0.1-0.3c0.2-0.1,0.3-0.1,0.4-0.2c0.1-0.1,0.3-0.1,0.4-0.2c0.1-0.1,0.1-0.2,0-0.3h0.2h0.2
		c0-0.1,0.1-0.2,0.2-0.3c0.1-0.2,0.1-0.2,0.2-0.2v-0.1v-0.2h0.2h0.3c-0.3-0.2-0.5-0.2-0.7,0c-0.2,0.2-0.5,0.3-0.7,0.5
		c-0.8,0.6-1.7,1.2-2.8,1.8c-1.1,0.6-1.8,0.9-2.2,1c-0.6,0.1-1,0.1-1.1,0c-0.1-0.1-0.2-0.2-0.2-0.2v-0.2l0.1-0.2
		c-0.2-0.3-0.2-0.8,0-1.4c0.1-0.6,0.3-1.3,0.5-2.1c0.4-1.3,0.8-2.6,1.4-3.9c0.5-1.3,0.9-2,1.1-2c0-0.3,0.1-0.7,0.3-1.1
		c0.2-0.4,0.3-0.8,0.3-1.3c0.1,0,0.2,0,0.2,0c0.1,0,0.1,0,0.2,0v-0.2v-0.3h0.1h0.1c0-0.2,0.1-0.4,0.2-0.8c0.1-0.4,0.3-0.8,0.4-1.3
		c0.3-0.7,0.6-1.4,0.8-2.2c0.2-0.8,0.1-1.2-0.5-1.2c-0.4,0-0.8,0-1-0.1c-0.1,0-0.2-0.1-0.2-0.3c0-0.4-0.3-0.7-0.9-0.8
		c-0.6-0.1-1.4,0-2.2,0.2c-0.9,0.2-1.3,0.4-1.3,0.6c-0.8-0.2-2.3,0.7-4.4,2.7c-2.1,2-3.9,4.2-5.2,6.6h-0.2c-0.2,0.2-0.3,0.3-0.2,0.3
		c0.4,0.2,0.5,0.3,0.5,0.4c-0.2,0.1-0.4,0.2-0.5,0.3c-0.2,0.1-0.3,0.2-0.5,0.2c0,0.1,0.1,0.1,0.2,0.1l-0.2,0.5h0.2
		c0,0.2-0.2,0.3-0.5,0.3c-0.8,1.1-1.6,2.8-2.2,5c-0.6,2.3-0.8,3.4-0.6,3.4c0,0.4,0.1,0.6,0.4,0.8c0.3,0.2,0.4,0.3,0.4,0.4
		c0.2,0,0.2,0,0.2-0.1c0-0.1,0.1-0.1,0.2-0.1v0.3v0.2C197.3,65.8,198.1,65.8,199.1,65.3 M183.2,51.4c-0.3,0-0.4-0.1-0.4-0.3h0.2
		C183.1,51.2,183.1,51.3,183.2,51.4 M187.6,50.5h0.5v0.2h-0.2C187.6,50.6,187.6,50.5,187.6,50.5 M181.2,58.3h0.2v0.2h-0.2
		C181.2,58.4,181.2,58.3,181.2,58.3 M182.1,53.4c-0.1,0-0.2,0-0.3,0.1c0-0.2,0.1-0.3,0.2-0.5c0.1-0.1,0.1-0.1,0.2-0.1
		C182.3,53.1,182.2,53.2,182.1,53.4 M177.8,65.6c0.2-0.5,0.5-1,0.9-1.7c0.4-0.7,0.8-1.3,1.3-2c0.4-0.5,0.8-1.1,1.2-1.6
		c0.4-0.6,0.8-1.1,1.3-1.8c0.9-1.3,1.9-2.5,2.8-3.7c0.9-1.2,1.7-2.2,2.4-2.9c0.3-0.4,0.9-1,1.8-1.9c0.9-0.9,1.7-1.5,2.3-1.8
		c0.1-0.1,0.2-0.1,0.4-0.1c-0.1,0.1-0.2,0.6-0.5,1.6c-0.6,0.7-0.6,1.3,0.2,1.7c0.3,0.2,0.6,0.1,1-0.4c0.4-0.5,0.5-0.9,0.2-1.2
		c0.1-0.2,0.2-0.5,0.4-1c0.2-0.4,0.3-0.8,0.5-1.3c0.2-0.4,0.4-0.8,0.6-1.3v-0.4c0-0.3-0.1-0.5-0.4-0.6c-0.4-0.4-0.8-0.6-1.1-0.6
		c-0.2,0.1-0.3,0.2-0.5,0.2c-0.2,0.1-0.4,0.2-0.5,0.3c-0.8,0.9-1.5,1.7-2,2.3c-0.5,0.6-1,1.1-1.5,1.6c-0.5,0.5-0.7,0.8-0.8,0.9v0.3
		h0.2c-0.1,0-0.1,0.1-0.1,0.2c-0.2-0.1-0.3-0.1-0.5-0.1L185,53c-0.5,0.6-1.6,2.2-3.3,4.8V58c0,0.1-0.1,0.1-0.2,0.1h-0.2
		c0.6-2.7,1.4-5,2.5-7c1.1-2,1.9-3.9,2.4-5.6c0-0.4-0.2-0.6-0.7-0.7c-0.5-0.1-0.9,0-1.1,0.4c-0.2,0.9-0.6,1.7-1.2,2.4
		c-0.9,0.8-2,1.2-3.3,1.2c-1.2-0.3-1.7,0.2-1.7,1.4c0,0.2,0.3,0.4,0.8,0.5c1.4,0,2.5-0.3,3.5-1l0.5-0.4c-0.2,1.5-0.8,3.1-1.7,5
		l0.2-0.1c0,0.2-0.1,0.3-0.2,0.4h-0.2v0.1c0,0.3-0.1,0.4-0.3,0.5c-0.1,0.3-0.2,0.5-0.4,0.8c0.2-0.1,0.3-0.2,0.5-0.3
		c-0.1,0.3-0.2,0.5-0.4,0.7c-0.2,0.2-0.4,0.3-0.5,0.6h-0.1c-0.4,0.7-0.7,1.3-0.9,1.7c0,0.2,0,0.4-0.1,0.5h-0.2l-0.5,1l0.1-0.2
		c-0.1,0.2-0.1,0.3-0.1,0.4h-0.2l-0.2,0.2c0.1,0.2,0,0.3-0.2,0.5h-0.1l-0.4,0.8c0.1-0.1,0.2-0.2,0.6-0.3c-0.1,0.3-0.3,0.6-0.5,0.7
		c-0.2,0.2-0.3,0.3-0.4,0.6h-0.3l-0.5,1c-0.2,0.2-0.3,0.5-0.4,1.1c0,0.5,0.2,0.8,0.7,0.9C176.9,65.8,177.3,65.8,177.8,65.6
		 M167,47.6L167,47.6c-0.2-0.2-0.2-0.4,0-0.6c0.2-0.2,0.3-0.2,0.5-0.2c0.2,0,0.4,0,0.7-0.1c0-0.2,0.3-0.2,0.8-0.2
		c0.2,0.2,0.3,0.4,0.4,0.5c0.1,0.1,0.1,0.3,0.1,0.6c-0.2,0.3-0.5,0.4-0.9,0.5c-0.4,0.1-0.7,0.1-0.9,0.1
		C167.5,48.1,167.2,47.9,167,47.6 M158.1,61.1c0.5-1.4,1.2-2.8,1.9-4.2c0.7-1.4,1.5-2.6,2.2-3.7c0.7-1.1,1.2-1.9,1.6-2.4
		c0.1-0.2,0.3-0.3,0.6-0.4c0.3-0.1,0.5-0.2,0.6-0.4c0.8,0.2,1.7,0.2,2.6,0c1-0.1,1.6-0.3,1.8-0.5c-0.4,2.4-1.2,4.6-2.3,6.4
		c-1.1,1.9-2.2,3.5-3.4,4.8c-1.2,1.3-2.2,2.2-3.2,2.8c-0.9,0.6-1.5,0.8-1.7,0.5c-0.2,0-0.4,0-0.6,0.1v0.2c-0.3,0-0.6,0.1-0.9,0.2
		C157.4,63.7,157.6,62.5,158.1,61.1 M157.3,66.6c0.2-0.1,0.4-0.2,0.6-0.5c0.2,0,0.4,0,0.6,0c0.3,0,0.4-0.1,0.5-0.3
		c1-0.2,2.4-1,4.1-2.5c1.7-1.5,2.6-2.5,2.6-3.1c0.1-0.2,0.2-0.3,0.4-0.3v-0.2c0.2-0.2,0.3-0.2,0.6-0.2v-0.2c-0.1,0-0.1,0-0.2-0.1
		c-0.1-0.1-0.1-0.1-0.2-0.1h0.2h0.2v-0.2c0.2-0.2,0.3-0.2,0.4-0.2c0.8-1.1,1.5-2.4,2-3.8c0.6-1.4,1-2.7,1.5-3.8l-0.1-0.1
		c0.2-0.3,0.3-0.7,0.4-1.1c0.1-0.4,0.3-0.7,0.5-1.1c1.6-0.3,2.9-1,3.9-2c1-1,2.9-1.6,5.5-1.6c0.1,0.6,0.4,0.8,1,0.4
		c0.4-0.2,0.7-0.3,0.8-0.4c0.1-0.1,0-0.3-0.3-0.6c-0.4-0.3-0.9-0.5-1.3-0.5c-0.5,0-0.9,0-1.2,0l-0.2,0.2c-0.8,0.2-1.6,0.4-2.5,0.7
		c-0.9,0.3-1.7,0.6-2.5,0.9c-0.6,0.2-1.2,0.4-1.8,0.5c-0.6,0.2-1.1,0.2-1.5,0.2c0-0.4-0.1-0.9-0.4-1.3c-0.3-0.4-0.6-0.7-0.9-0.8
		c-1,0-2.2,0.1-3.4,0.4c-1.2,0.3-2.1,0.9-2.6,1.8c-0.3,0.6-0.5,1-0.7,1c-0.1,0.1-0.1,0.5,0,1.3c-0.2,0.3-0.4,0.6-0.7,1.1
		c-0.3,0.4-0.5,0.7-0.6,0.7c0.1,0.2,0.1,0.3,0.1,0.6h-0.2h-0.2c-0.2,0.9-0.9,2.2-2,3.7c-1.1,1.5-1.9,2.9-2.4,4.1
		c-0.4,1-0.7,1.8-0.9,2.4c-0.2,0.6-0.4,1.3-0.5,2.1c-0.2,1.4,0.1,2.3,0.6,2.7C156.8,66.7,157.1,66.7,157.3,66.6 M138.7,54.3h0.2
		c0-0.2,0-0.3,0.1-0.4h-0.2h-0.2C138.7,53.9,138.7,54.1,138.7,54.3 M151.1,58.6L151.1,58.6L151.1,58.6z M136.3,58.8
		c-0.3,1.1-0.4,2.2-0.4,3.1c0.2,1.5,0.8,2.5,1.8,3c0.2,0,0.2,0,0.3,0c0,0,0.1,0,0.3,0V65v0.2c0.7,0.3,1.5,0.5,2.6,0.5
		c0.8-0.1,1.7-0.3,2.6-0.7c0.9-0.4,1.7-0.9,2.5-1.5c0.1-0.1,0.2-0.1,0.4-0.2c0.2-0.1,0.3-0.1,0.5-0.2c0.2,0,0.5-0.2,0.9-0.6
		c0.4-0.4,0.9-0.7,1.2-1c0.2-0.2,0.3-0.3,0.5-0.6c0.2-0.2,0.3-0.4,0.4-0.6c0.1-0.1,0.1-0.1,0.2-0.3c0.1-0.1,0.2-0.2,0.3-0.3
		c0.1-0.1,0.2-0.2,0.3-0.4c0.1-0.2,0.2-0.3,0.4-0.4c-0.1,0-0.3,0.1-0.5,0.4h-0.1h-0.1l0.3-0.3c0.4-0.2,0.7-0.3,0.7-0.3v-0.4l0.1-0.2
		l0.2-0.3c-0.1,0-0.2,0.1-0.2,0.3h-0.2c0.1,0,0.1-0.1,0.2-0.2c0.1-0.1,0.2-0.2,0.4-0.2c0-0.1-0.1-0.2-0.2-0.4h0.1c0,0,0.1,0,0.2-0.1
		l0.1-0.3c0.3-0.2,0.4-0.2,0.2-0.2v-0.2c0.1-0.1,0.2-0.1,0.2-0.2c-0.3-0.1-0.5,0-0.6,0.2c-0.2,0.3-0.3,0.5-0.5,0.6
		c-1.3,1.5-2.5,2.8-3.8,3.9c-1.4,1-2.7,1.8-4,2.4c-1.1,0.5-2.1,0.8-3.1,0.7c-1-0.1-1.8-0.6-2.3-1.6c-0.5-0.9-0.5-2.2,0-3.9
		c0.5-1.6,1.1-3.1,2-4.6c1.5-2.6,3.3-5,5.5-7.1c2.2-2.1,4.1-3.1,5.7-2.9c0.5,0,1,0.3,1.7,0.9c0.1,0.1,0.1,0.1,0.1,0.2l0.1,0.1
		c0.1,0.4-0.1,0.8-0.7,1.2c-0.6,0.4-0.9,0.9-0.9,1.5c0,0.5,0.3,0.7,0.9,0.8c0.3,0.1,0.7,0,1.3,0c0.5-0.1,0.9-0.4,1.1-0.9
		c0.2-0.8,0.4-1.5,0.6-2.2c0.2-0.7,0-1.1-0.5-1.1c-0.2,0-0.3,0-0.6-0.1c-0.2-0.1-0.4-0.1-0.5-0.1c-0.1-0.1-0.1-0.1-0.1-0.2
		c0-0.4-0.3-0.7-0.9-0.8c-0.6-0.1-1.4,0-2.2,0.2c-0.9,0.2-1.3,0.4-1.3,0.6c-0.8-0.2-2.3,0.7-4.6,2.7c-2.3,2-4.1,4.2-5.4,6.5H139
		c-0.3,0.2-0.3,0.2-0.2,0.2c0.1,0.1,0.2,0.2,0.3,0.2c0.2,0,0.2,0.1,0.2,0.2c-0.3,0.2-0.6,0.4-1,0.6h0.2c-0.1,0.1-0.1,0.3-0.2,0.5
		h0.2c0,0.2-0.1,0.3-0.4,0.3C137.2,56.5,136.6,57.7,136.3,58.8 M123.5,51.5c-0.3,0-0.4-0.1-0.4-0.2c0.1-0.1,0.1-0.2,0.2-0.2
		C123.3,51.3,123.4,51.4,123.5,51.5 M128.4,50.7l-0.2-0.2h0.2h0.3c0.1,0,0.1,0.1,0.1,0.2h-0.2H128.4z M121.5,58.9h0.2v0.2v0.2h-0.2
		h-0.2C121.3,59.1,121.3,59,121.5,58.9 M118.3,65.6c0.6-1,1.4-2.4,2.4-4c0.4-0.5,0.7-0.9,0.9-1.2c0.2-0.3,0.6-0.7,1.1-1.3
		c1-1.3,2-2.6,2.9-3.9c1-1.3,1.8-2.3,2.6-3.2c0.3-0.3,0.9-1,1.8-2c0.9-1,1.7-1.7,2.4-2c0.2,0,0.3,0,0.4-0.1c-0.1,0.8-0.6,2.1-1.6,4
		c-1,1.9-1.7,3.2-2.1,4c-0.2,0.4-0.5,1.1-1,2c-0.4,0.9-0.8,1.8-1.1,2.6v0.1l-0.1,0.1l-0.2,0.2c0,0.3-0.1,0.4-0.2,0.6v0.2V62
		c-0.1,0.1-0.1,0.2-0.2,0.3c0,0.3-0.1,0.4-0.2,0.5c0.1,0.2,0.1,0.3,0.2,0.3c-0.3,0.8-0.1,1.7,0.6,2.4c0.6,0.1,1.2,0.1,1.7,0
		c0.2,0,0.5-0.1,1-0.4c0.5-0.2,1-0.5,1.5-0.7c0.2-0.1,0.4-0.2,0.6-0.4c0.3-0.2,0.4-0.4,0.6-0.6c0.3-0.1,0.6-0.2,0.8-0.4
		c0.1,0,0.2-0.1,0.3-0.2c0.1-0.2,0.2-0.3,0.4-0.3c-0.1,0-0.3,0.1-0.5,0.3c-0.2-0.2-0.2-0.2,0-0.2c0.3-0.3,0.6-0.4,0.9-0.2
		c0.1-0.4,0.2-0.6,0.6-0.8c-0.2,0-0.4,0.2-0.7,0.6c-0.1-0.1-0.1-0.2-0.1-0.3c0.1-0.1,0.4-0.2,0.9-0.3v-0.2v-0.2h0.3
		c0-0.1,0-0.1,0.1-0.2c0.1-0.1,0.1-0.1,0.1-0.2c0.3-0.2,0.4-0.2,0.3-0.2v-0.1v-0.2h0.4c-0.2-0.2-0.4-0.2-0.7,0
		c-0.3,0.2-0.5,0.3-0.6,0.5c-0.8,0.6-1.7,1.2-2.8,1.8c-1.1,0.6-1.8,0.9-2.2,1c-0.6,0.1-0.9,0.1-1.1,0c-0.1-0.1-0.2-0.2-0.2-0.3
		c0-0.2-0.1-0.3-0.2-0.5c-0.1-0.1-0.1-0.5,0-1.1c0.1-0.6,0.3-1.5,0.7-2.6c0.8-1.9,1.8-4,3.1-6.3c1.3-2.3,2.4-4.7,3.3-7.2v-0.4
		c0-0.3-0.1-0.5-0.4-0.8c-0.3-0.4-0.7-0.6-1.1-0.6c-0.5,0.1-0.8,0.3-1,0.5c-0.1,0-0.3,0.2-0.7,0.7c-0.4,0.5-0.9,1.1-1.5,1.7
		c-0.6,0.6-1.1,1.2-1.6,1.8c-0.5,0.6-0.8,0.9-0.8,0.9v0.4h0.1h0.1c-0.1,0.1-0.1,0.2-0.1,0.2c-0.2-0.1-0.3-0.2-0.5-0.2
		c-1.1,1.4-2,2.4-2.6,3c-0.6,0.6-1.8,2.4-3.5,5.2v0.2c0,0.1-0.1,0.2-0.2,0.2h-0.1c0.6-2.8,1.5-5.3,2.7-7.5c1.2-2.2,2-4.2,2.4-6.1
		c0-0.4-0.3-0.6-0.8-0.7c-0.5-0.1-0.9,0.1-1.1,0.5c0,0.6-0.3,1.3-0.9,1.9c-0.9,1.2-2.1,2.2-3.5,3.1c-1.5,0.9-2.7,1.3-3.6,1.3
		c-1.3-0.3-2,0.2-2,1.4c0,0.3,0.3,0.4,0.9,0.5c1.4,0.2,2.6-0.1,3.8-1c1-0.8,2.3-1.8,3.9-2.9c-0.5,2.4-1.2,4.5-2.3,6.4
		c-1,1.9-2.5,4.5-4.4,7.9c-0.2,0.2-0.2,0.3-0.3,0.5c0,0.2-0.1,0.4-0.1,0.6c-0.1,0.6,0.2,0.9,0.8,1C117.5,65.8,117.9,65.8,118.3,65.6
		 M103.4,74.9c0-0.1,0.1-0.3,0.5-0.4c0-0.2,0-0.3,0-0.4c0-0.1,0-0.2,0-0.2c0.1-0.1,0.2-0.2,0.3-0.2c0-0.3,0-0.5,0-0.7
		c0-0.2,0-0.5,0-0.7c-0.9-0.3-1.1-1.4-0.7-3.5c0.4-2,1-4.3,1.8-6.7c0.8-2.4,1.6-4.6,2.5-6.6c0.8-2,1.3-3,1.3-3.1
		c0.4-0.5,1.3-0.8,2.8-0.9c1.5-0.1,2.6-0.2,3.2-0.2c0.1-0.1,0.3-0.2,0.9-0.4c0-0.2,0-0.3,0.1-0.3l0.3-0.2v-0.4v-0.4
		c-0.2-0.1-0.4-0.2-0.7-0.5c-1,0-2,0.2-3.1,0.6c-1,0.4-2,0.6-3,0.6c0.2-0.3,0.6-1.2,1.2-2.6c0.7-1.4,1.1-2.7,1.4-3.8h0.2
		c0,0.1-0.1,0.2-0.2,0.3l0.5-1.1c0.2,0,0.5-1,1.1-3.1c0.1-0.1,0.2-0.1,0.3-0.1c-0.1-0.1-0.2-0.2-0.2-0.4c0.2-0.1,0.3-0.2,0.3-0.3
		c-0.1-0.1-0.3-0.1-0.5-0.2c0-0.2,0.4-1.3,1.3-3.4c-0.2-0.3-0.1-0.7,0.4-1.4c0.5-0.7,0.7-1.2,0.6-1.7c0.4-0.1,0.6-0.5,0.7-1.2
		l-0.2-0.1c0.5-1.2,0.6-2,0.4-2.5c-0.5-0.7-1.1-0.8-1.9-0.4c-0.8,0.4-1.4,1.3-1.8,2.5c-0.1,0.3-0.3,0.5-0.5,0.8
		c-0.2,0.3-0.3,0.5-0.3,0.7c-0.3,0.1-0.5,0.2-0.5,0.2c0,0.1-0.1,0.1-0.2,0.1c-0.2,0.2-0.8,1.3-1.9,3.2c-1.1,1.9-2.4,4.1-3.8,6.5
		c-1.4,2.4-2.9,4.7-4.4,7c-1.5,2.3-2.7,3.8-3.7,4.6c-0.8,0.2-1.9,0.5-3.1,1.1c-1.3,0.6-4,1.6-8.2,3.1c0,0.2,0.1,0.4,0.2,0.6
		c0.1,0.2,0.2,0.4,0.2,0.7c0.2,0,0.4,0,0.7,0c0.3,0,0.5-0.1,0.7-0.4c0.2,0,0.5-0.1,0.7-0.2c0.3-0.1,0.6-0.2,0.8-0.3
		c0.1-0.1,0.1-0.2,0.1-0.3c0.2,0,0.3-0.1,0.5-0.2c0.2-0.1,0.4-0.2,0.5-0.2c0.1,0,0.1-0.1,0.2-0.2c0.6,0,1.3-0.2,1.9-0.7
		c0.6-0.4,1.3-0.7,2-0.7c-1.4,1.6-2.9,3.1-4.5,4.7c-1.7,1.6-3.6,2.3-5.9,2.1c-0.5-0.1-0.8,0.3-0.7,1c0,0.7,0.6,1.1,1.6,1.1v-0.1
		c1.9-0.4,3.6-1.1,5-2.2c1.4-1.1,2.6-2.2,3.6-3.4c1-1.2,1.9-2.3,2.8-3.2c0.8-1,1.6-1.6,2.5-1.8v-0.1c0.8-0.3,1.6-0.6,2.4-0.9
		c0.8-0.3,1.7-0.5,2.5-0.7h-0.3c0.3-0.1,0.9-0.2,1.8-0.5c0.9-0.3,1.5-0.3,1.8-0.2v0.3c-0.1,0-0.2,0.1-0.3,0.2
		c-1.1,2.8-2.3,5.8-3.5,9c-1.2,3.2-1.8,6.2-1.8,9.2c-0.1,0-0.1,0-0.2,0.1c0.3,0.4,0.2,0.7-0.2,0.9c0,0.2,0.1,0.3,0.2,0.3
		c-0.4,0.3-0.6,0.7-0.4,1.2c0.1,0.5,0.4,0.9,0.7,1.3C103.1,75.1,103.4,75,103.4,74.9 M103.5,48.5c1.4-2.2,2.8-4.4,4.2-6.6
		c1.4-2.2,2.6-4.2,3.7-5.9c1-1.7,1.6-2.5,1.7-2.5c0.3-0.5,0.5-0.7,0.8-0.6c0.3,0.1,0.4,0.3,0.2,0.8c-0.1,0.4-0.2,0.7-0.3,1.1
		c-0.2,0.3-0.2,0.7-0.2,1.1h-0.2h-0.2c0.1,0.1,0.2,0.2,0.4,0.2c-0.6,0.5-0.8,1.2-0.8,2c0.1,0.8-0.1,1.2-0.6,1.3l-0.9,3.3
		c-0.1,0.2-0.3,0.8-0.6,1.7c-0.3,0.9-0.7,1.9-1,2.9c-0.4,1-0.8,2.3-1.3,3.9c-0.5,0.1-1.2,0.2-2.2,0.5c-1,0.3-1.7,0.3-2,0
		c-0.1,0.1-0.1,0.2,0.1,0.3l-0.5,0.2v0.2c-0.4,0-0.7,0-0.7-0.1c-0.1,0.1-0.5,0.3-1.3,0.6c-0.8,0.3-1.3,0.4-1.6,0.4
		C101,52.3,102.1,50.7,103.5,48.5 M118.5,27.6c0.3,0,0.4,0,0.4-0.1c0-0.1,0-0.1,0.1-0.1c0.4,0.1,1.1-0.2,1.9-0.8
		c0.9-0.6,1.6-1.1,2.3-1.5c0.1,0,0.2,0,0.3-0.1c0.1-0.1,0.2-0.1,0.4-0.2v-0.2v-0.2c0.3,0,0.5,0,0.5-0.1c0.2-0.2,0.3-0.4,0.3-0.5
		c0.1-0.1,0.2-0.1,0.5-0.2c0.3-0.1,0.4-0.1,0.6-0.2c0.2-0.2,0.2-0.2,0.1-0.2c0.2-0.1,0.3-0.2,0.4-0.2c-0.3-0.2-0.7-0.2-1-0.1h-0.1
		H125c-0.1,0-0.1-0.1-0.2-0.2h-0.1c-1.3,0.6-2.6,1.2-3.9,2c-0.5,0.3-1,0.5-1.5,0.6c-0.5,0.2-0.9,0.3-1.1,0.5
		c-0.4,0.2-0.4,0.6-0.2,1.3c0,0.1,0.1,0.1,0.2,0.1C118.2,27.6,118.3,27.6,118.5,27.6 M114.1,31.2c-0.1,0.1-0.1,0.1-0.1,0.2
		c-0.1,0-0.1,0-0.2,0.1c-0.1,0.1-0.1,0.1-0.2,0.1C113.6,31.4,113.8,31.3,114.1,31.2"/>
	<polyline class="st1" points="85.9,21.5 85.9,4.9 215.4,4.9 215.4,21.5 	"/>
	<polyline class="st1" points="85.8,90.2 85.8,107.6 215.5,107.6 215.5,89.7 	"/>
</g>
</svg>
