<svg width="125" height="40" viewBox="0 0 125 40" fill="none" xmlns="http://www.w3.org/2000/svg">
<rect x="0.5" y="0.5" width="124" height="39" rx="19.5" stroke="#FF671D"/>
<path d="M41.265 24L39.105 15.93H40.845L42.255 22.29H42.285L43.56 15.93H45.285L43.155 24H41.265ZM51.7767 20.175H47.5617V20.64C47.5617 22.28 48.0117 23.1 48.9117 23.1C49.3617 23.1 49.7017 22.9 49.9317 22.5C50.1117 22.18 50.2017 21.78 50.2017 21.3H51.7317C51.7317 22.19 51.4767 22.9 50.9667 23.43C50.4667 23.95 49.7767 24.21 48.8967 24.21C48.0267 24.21 47.3717 23.99 46.9317 23.55C46.2717 22.9 45.9417 21.745 45.9417 20.085C45.9417 17.175 46.9367 15.72 48.9267 15.72C49.9967 15.72 50.7517 16.04 51.1917 16.68C51.5817 17.23 51.7767 18.11 51.7767 19.32V20.175ZM47.5617 19.065H50.1567V18.63C50.1567 17.43 49.7417 16.83 48.9117 16.83C48.0117 16.83 47.5617 17.52 47.5617 18.9V19.065ZM53.1101 24V15.93H54.7301V17.19H54.7601C55.1501 16.21 55.7751 15.72 56.6351 15.72C56.7551 15.72 56.8851 15.74 57.0251 15.78V17.43C56.7851 17.37 56.5601 17.34 56.3501 17.34C55.2701 17.34 54.7301 17.95 54.7301 19.17V24H53.1101ZM61.52 24V15.93H63.05V16.875H63.095C63.525 16.105 64.17 15.72 65.03 15.72C65.99 15.72 66.615 16.13 66.905 16.95C67.395 16.13 68.075 15.72 68.945 15.72C70.255 15.72 70.91 16.435 70.91 17.865V24H69.29V18.465C69.29 17.495 68.965 17.01 68.315 17.01C67.965 17.01 67.67 17.14 67.43 17.4C67.16 17.69 67.025 18.085 67.025 18.585V24H65.405V18.465C65.405 17.495 65.075 17.01 64.415 17.01C64.065 17.01 63.77 17.14 63.53 17.4C63.27 17.69 63.14 18.085 63.14 18.585V24H61.52ZM77.8436 17.7V22.32C77.8436 22.7 77.9836 22.89 78.2636 22.89C78.3836 22.89 78.4736 22.875 78.5336 22.845V23.895C78.2536 24.025 77.9886 24.09 77.7386 24.09C76.8686 24.09 76.4136 23.735 76.3736 23.025H76.3436C75.9136 23.815 75.2436 24.21 74.3336 24.21C72.9336 24.21 72.2336 23.455 72.2336 21.945C72.2336 21.115 72.4086 20.505 72.7586 20.115C73.0186 19.825 73.4686 19.59 74.1086 19.41L75.3686 19.065C75.6986 18.975 75.9286 18.87 76.0586 18.75C76.2286 18.6 76.3136 18.36 76.3136 18.03C76.3136 17.23 75.9436 16.83 75.2036 16.83C74.3836 16.83 73.9736 17.345 73.9736 18.375H72.4436C72.4436 17.485 72.6486 16.83 73.0586 16.41C73.5086 15.95 74.2486 15.72 75.2786 15.72C76.0486 15.72 76.6536 15.87 77.0936 16.17C77.5936 16.51 77.8436 17.02 77.8436 17.7ZM76.3136 21.09V19.74C76.1536 19.87 75.8586 20.01 75.4286 20.16C74.8986 20.34 74.5936 20.45 74.5136 20.49C74.0736 20.7 73.8536 21.135 73.8536 21.795C73.8536 22.155 73.9386 22.44 74.1086 22.65C74.2886 22.89 74.5386 23.01 74.8586 23.01C75.8286 23.01 76.3136 22.37 76.3136 21.09ZM74.4236 14.88L75.3236 12.72H77.1236L75.5336 14.88H74.4236ZM84.5019 18.285H82.9719V18.075C82.9719 17.245 82.6169 16.83 81.9069 16.83C81.1369 16.83 80.7519 17.18 80.7519 17.88C80.7519 18.19 80.8319 18.43 80.9919 18.6C81.1519 18.76 81.4519 18.915 81.8919 19.065L82.9269 19.425C83.5369 19.635 83.9819 19.92 84.2619 20.28C84.5419 20.64 84.6819 21.13 84.6819 21.75C84.6819 22.57 84.4019 23.195 83.8419 23.625C83.3419 24.015 82.6569 24.21 81.7869 24.21C80.8169 24.21 80.1219 23.985 79.7019 23.535C79.3219 23.145 79.1319 22.535 79.1319 21.705V21.405H80.5719V21.66C80.5719 22.62 80.9919 23.1 81.8319 23.1C82.7119 23.1 83.1519 22.705 83.1519 21.915C83.1519 21.335 82.8569 20.94 82.2669 20.73L80.9469 20.265C80.3269 20.045 79.8819 19.76 79.6119 19.41C79.3519 19.06 79.2219 18.57 79.2219 17.94C79.2219 17.2 79.4669 16.645 79.9569 16.275C80.4469 15.905 81.1219 15.72 81.9819 15.72C83.6619 15.72 84.5019 16.455 84.5019 17.925V18.285Z" fill="white"/>
</svg>
